<svg width="292" height="238" viewBox="0 0 292 238" fill="none" xmlns="http://www.w3.org/2000/svg">
<g clip-path="url(#clip0_3492_95546)">
<path d="M148.094 104.651L154.89 102.128L148.094 99.5326V96L159.735 100.686V103.57L148.094 108.256V104.651Z" fill="#A6AFB7"/>
<path d="M83.8188 127.002C81.3604 127.002 79.3359 125.776 79.3359 123.037V122.893C79.3359 119.576 82.2281 118.423 85.771 118.423H87.434V117.774C87.434 116.404 86.8555 115.611 85.4095 115.611C84.108 115.611 83.4573 116.332 83.385 117.341H79.7698C80.059 114.314 82.445 112.872 85.6264 112.872C88.8801 112.872 91.2661 114.241 91.2661 117.63V126.714H87.5786V125.128C86.8555 126.137 85.6264 127.002 83.8188 127.002ZM87.434 122.244V120.946H85.9156C84.0357 120.946 83.0957 121.451 83.0957 122.676V122.821C83.0957 123.758 83.6742 124.407 84.9756 124.407C86.2771 124.335 87.434 123.614 87.434 122.244ZM99.8703 127.002C96.1104 127.002 93.3629 124.695 93.3629 120.081V119.865C93.3629 115.251 96.2551 112.8 99.8703 112.8C102.979 112.8 105.51 114.386 105.799 117.918H102.184C101.967 116.621 101.244 115.755 99.9426 115.755C98.3519 115.755 97.195 117.053 97.195 119.721V120.153C97.195 122.893 98.2073 124.118 99.9426 124.118C101.244 124.118 102.184 123.181 102.401 121.667H105.871C105.655 124.839 103.558 127.002 99.8703 127.002ZM114.042 127.002C110.282 127.002 107.534 124.695 107.534 120.081V119.865C107.534 115.251 110.427 112.8 114.042 112.8C117.151 112.8 119.682 114.386 119.971 117.918H116.356C116.139 116.621 115.416 115.755 114.114 115.755C112.523 115.755 111.367 117.053 111.367 119.721V120.153C111.367 122.893 112.379 124.118 114.114 124.118C115.416 124.118 116.356 123.181 116.572 121.667H120.043C119.826 124.839 117.729 127.002 114.042 127.002ZM128.286 127.002C124.381 127.002 121.706 124.695 121.706 120.153V119.865C121.706 115.323 124.526 112.8 128.213 112.8C131.612 112.8 134.432 114.674 134.432 119.216V120.874H125.538C125.683 123.325 126.767 124.262 128.358 124.262C129.804 124.262 130.599 123.469 130.889 122.532H134.432C133.998 125.055 131.829 127.002 128.286 127.002ZM125.61 118.351H130.672C130.599 116.332 129.659 115.467 128.141 115.467C126.984 115.539 125.9 116.188 125.61 118.351ZM136.745 113.16H140.577V115.179C141.228 113.881 142.602 112.872 144.699 112.872C147.157 112.872 148.82 114.386 148.82 117.63V126.714H144.988V118.207C144.988 116.621 144.337 115.9 142.963 115.9C141.662 115.9 140.577 116.693 140.577 118.423V126.714H136.745V113.16ZM155.833 109.051V113.16H158.436V115.972H155.833V122.388C155.833 123.397 156.267 123.902 157.207 123.902C157.786 123.902 158.147 123.83 158.509 123.686V126.641C158.075 126.786 157.28 126.93 156.34 126.93C153.375 126.93 152.001 125.56 152.001 122.821V115.972H150.411V113.16H152.001V110.637L155.833 109.051ZM172.753 126.714H168.993V124.695C168.342 125.993 167.041 127.002 165.016 127.002C162.558 127.002 160.75 125.488 160.75 122.316V113.16H164.582V121.811C164.582 123.397 165.233 124.118 166.534 124.118C167.836 124.118 168.92 123.253 168.92 121.595V113.16H172.753V126.714ZM175.572 113.16H179.405V115.683C180.2 113.881 181.501 113.016 183.526 113.016V116.765C180.923 116.765 179.405 117.558 179.405 119.793V126.786H175.572V113.16ZM191.262 127.002C187.358 127.002 184.683 124.695 184.683 120.153V119.865C184.683 115.323 187.503 112.8 191.19 112.8C194.588 112.8 197.408 114.674 197.408 119.216V120.874H188.587C188.732 123.325 189.816 124.262 191.407 124.262C192.853 124.262 193.648 123.469 193.938 122.532H197.481C196.902 125.055 194.805 127.002 191.262 127.002ZM188.515 118.351H193.648C193.576 116.332 192.636 115.467 191.118 115.467C189.961 115.539 188.876 116.188 188.515 118.351Z" fill="#A6AFB7"/>
</g>
<defs>
<clipPath id="clip0_3492_95546">
<rect width="118" height="31" fill="white" transform="translate(79.3359 96)"/>
</clipPath>
</defs>
</svg>
