<svg width="292" height="238" viewBox="0 0 292 238" fill="none" xmlns="http://www.w3.org/2000/svg">
<path d="M165.917 139.552C167.417 138.552 168.417 136.802 168.417 135.052C168.417 132.052 165.917 129.302 161.667 129.302C161.167 129.302 153.167 129.302 153.167 129.302V150.302H154.417C154.417 150.302 162.417 150.302 162.917 150.302C167.167 150.302 169.667 147.552 169.667 144.802C169.667 142.302 168.167 140.302 165.917 139.552ZM157.167 132.802H161.917C163.417 132.802 164.417 134.052 164.417 135.302C164.417 136.552 163.417 137.802 161.917 137.802H157.167V132.802ZM163.167 146.552H157.167V141.552H163.417C164.917 141.552 165.917 142.552 165.917 144.052C165.917 145.552 164.667 146.552 163.167 146.552Z" fill="#A6AFB7"/>
<path d="M149.917 149.302C149.667 149.302 149.667 149.052 149.917 149.302C149.167 148.802 148.667 148.052 148.667 147.052V130.302C148.667 129.802 148.417 129.552 147.917 129.552H143.167V130.552H143.417H143.667C144.167 130.802 144.667 131.802 144.667 132.802V149.552C144.667 150.052 144.917 150.302 145.417 150.302H150.167L149.917 149.302Z" fill="#A6AFB7"/>
<path d="M127.917 145.302H135.917L137.917 150.302H142.167L134.417 130.552C134.167 129.802 133.417 129.552 132.917 129.552H129.917L121.667 150.552H125.917L127.917 145.302ZM129.417 141.802L131.917 135.302L134.417 141.802H129.417Z" fill="#A6AFB7"/>
<path d="M167.167 115.052C167.167 121.302 159.917 123.802 153.917 123.802H137.417C131.417 123.802 124.167 121.552 124.167 115.052C124.167 106.802 132.417 107.552 130.417 102.302C136.417 104.302 131.417 108.552 130.667 111.052C129.917 113.802 131.917 117.302 137.167 117.302C137.917 117.302 140.917 117.302 143.917 117.302V112.552H135.917L138.417 110.052H143.917V107.052C136.167 105.552 137.917 96.8023 127.417 96.0523C123.917 95.8023 125.167 89.0523 125.417 87.8023C125.417 87.5523 125.667 87.3023 126.167 87.5523C139.167 98.8023 146.417 95.3023 149.667 93.3023C151.167 92.3023 153.417 89.8023 155.167 89.8023C156.417 89.8023 157.667 90.5523 158.167 91.0523C158.667 91.5523 163.417 95.0523 163.417 95.0523C163.417 95.0523 159.917 95.0523 158.167 96.5523C153.917 99.5523 153.167 105.802 146.917 107.052V110.052H152.167L154.667 112.552H147.417V117.302C150.917 117.302 153.917 117.302 153.917 117.302C159.167 117.302 161.417 113.552 160.417 111.052C159.667 108.802 154.667 104.302 160.667 102.302C158.917 107.552 167.167 107.052 167.167 115.052ZM154.667 93.8023C154.667 94.5523 155.417 95.3023 156.167 95.3023C156.917 95.3023 157.667 94.5523 157.667 93.8023C157.667 93.0523 156.917 92.3023 156.167 92.3023C155.167 92.5523 154.667 93.0523 154.667 93.8023Z" fill="#A6AFB7"/>
</svg>
