<svg width="292" height="238" viewBox="0 0 292 238" fill="none" xmlns="http://www.w3.org/2000/svg">
<g clip-path="url(#clip0_3492_95551)">
<path fill-rule="evenodd" clip-rule="evenodd" d="M76.721 119.421L79.1629 112.805L81.4716 119.421H76.721ZM83.8395 126.095H86.0742L80.2728 110.171H78.0677L72 126.095H74.2495L76.0254 121.211H82.0932L83.8395 126.095ZM90.9432 120.59C88.8713 120.146 86.7402 119.657 86.7402 117.156C86.7402 114.966 88.5901 113.575 91.402 113.575C93.2075 113.575 94.939 114.256 95.8122 115.898L93.9327 116.683C93.7847 116.239 92.8079 115.129 91.18 115.129C89.5816 115.129 88.7825 116.076 88.7825 116.89C88.7825 118.044 90.292 118.518 91.5944 118.769C94.273 119.302 96.5965 119.998 96.5965 122.514C96.5965 124.482 94.8502 126.317 91.5204 126.317C89.0637 126.317 87.3321 125.503 86.4886 123.786L88.6345 123.416C89.1673 124.349 90.144 124.763 91.6092 124.763C93.4147 124.763 94.4654 124.082 94.4654 122.78C94.4506 121.419 92.7191 120.975 90.9432 120.59ZM101.036 113.945H103.241V115.632H101.036V122.529C101.036 123.964 101.036 124.571 101.91 124.571C102.294 124.571 102.827 124.423 103.241 124.29V125.962C102.886 126.006 102.043 126.169 101.273 126.169C98.92 126.169 98.92 125.03 98.9496 123.446V115.632H97.0257V113.945H98.9496V111.044L101.051 110.171V113.945H101.036ZM107.104 113.974V116.15C108.258 113.856 110.434 113.812 111.248 113.782V115.884C109.25 115.898 108.273 116.313 107.622 117.378C107.074 118.252 107.104 119.48 107.104 120.531V126.095H105.077V113.974H107.104ZM134.749 110.171V112.154L125.736 124.186H134.986V126.095H123.28V124.023L132.337 112.125H123.28V110.156L134.749 110.171ZM149.756 114.063V115.824C150.881 113.841 152.819 113.664 153.53 113.664C155.069 113.664 156.919 114.433 157.511 116.431C157.718 117.142 157.718 117.882 157.718 118.917V126.095H155.69V119.243C155.69 118.015 155.69 117.66 155.557 117.245C155.202 116.091 154.062 115.588 152.967 115.588C152.065 115.588 151.295 115.869 150.659 116.505C149.756 117.393 149.756 118.325 149.756 119.213V126.08H147.728V114.048H149.756V114.063ZM181.086 123.949C180.331 125.133 178.955 126.347 176.469 126.347C172.192 126.347 170.564 123.046 170.564 120.087C170.564 116.668 172.428 113.56 176.276 113.56C177.786 113.56 179.902 114.019 181.086 115.972L179.177 116.772C178.822 115.972 178.037 115.055 176.35 115.055C173.006 115.055 172.813 118.858 172.813 119.939C172.813 123.934 175.107 124.793 176.483 124.793C178.052 124.793 178.851 124.038 179.281 123.209L181.086 123.949ZM137.902 118.799H144.324C144.147 115.632 142.312 115.099 141.098 115.099C139.352 115.099 138.124 116.372 137.902 118.799ZM145.997 123.801C145.301 124.985 143.969 126.332 141.335 126.332C137.754 126.332 135.696 123.905 135.696 119.835C135.696 115.292 138.701 113.545 141.246 113.545C143.466 113.545 145.597 114.774 146.308 117.808C146.544 118.829 146.544 119.746 146.544 120.264H137.842C137.798 122.292 138.642 124.852 141.498 124.793C142.667 124.778 143.481 124.245 144.014 123.416L145.997 123.801ZM161.003 118.799H167.426C167.249 115.632 165.428 115.099 164.2 115.099C162.468 115.099 161.24 116.372 161.003 118.799ZM169.099 123.801C168.403 124.985 167.071 126.332 164.437 126.332C160.855 126.332 158.798 123.905 158.798 119.835C158.798 115.292 161.803 113.545 164.348 113.545C166.568 113.545 168.699 114.774 169.409 117.808C169.646 118.829 169.646 119.746 169.646 120.264H160.944C160.9 122.292 161.743 124.852 164.6 124.793C165.769 124.778 166.598 124.245 167.115 123.416L169.099 123.801ZM192.2 126.11L190.084 126.125C190.084 126.125 189.906 125.266 189.847 124.334C189.241 124.97 188.101 126.288 185.792 126.288C183.439 126.288 181.693 124.896 181.693 122.839C181.693 122.203 181.87 121.567 182.226 121.019C182.921 119.998 184.209 119.169 187.805 118.888L189.729 118.74V118.429C189.729 117.171 189.729 115.07 187.021 115.07C185.319 115.07 184.742 115.898 184.549 116.638L182.684 115.854C182.714 115.78 182.744 115.721 182.788 115.662C183.513 114.33 184.919 113.516 186.961 113.516C188.086 113.516 189.537 113.797 190.484 114.537C191.83 115.558 191.801 117.571 191.801 117.571L191.89 123.786C191.875 123.801 191.934 125.607 192.2 126.11ZM189.418 122.765C189.729 122.099 189.759 121.818 189.759 120.057C188.974 120.19 187.894 120.338 186.591 120.619C184.342 121.108 183.957 121.951 183.957 122.795C183.957 123.772 184.727 124.586 186.236 124.586C187.627 124.586 188.826 124.023 189.418 122.765ZM121.844 126.11L119.728 126.125C119.728 126.125 119.55 125.266 119.491 124.334C118.884 124.97 117.745 126.288 115.436 126.288C113.083 126.288 111.337 124.896 111.337 122.839C111.337 122.203 111.514 121.567 111.869 121.019C112.565 119.998 113.853 119.169 117.449 118.888L119.373 118.74V118.429C119.373 117.171 119.373 115.07 116.664 115.07C114.963 115.07 114.385 115.898 114.193 116.638L112.328 115.854C112.358 115.795 112.387 115.721 112.432 115.662C113.157 114.33 114.563 113.516 116.605 113.516C117.73 113.516 119.18 113.797 120.128 114.537C121.474 115.558 121.445 117.571 121.445 117.571L121.533 123.786C121.504 123.801 121.578 125.607 121.844 126.11ZM119.062 122.765C119.373 122.099 119.388 121.818 119.388 120.057C118.603 120.19 117.523 120.338 116.22 120.619C113.971 121.108 113.586 121.951 113.586 122.795C113.586 123.772 114.356 124.586 115.865 124.586C117.271 124.586 118.47 124.023 119.062 122.765Z" fill="#A6AFB7"/>
<path fill-rule="evenodd" clip-rule="evenodd" d="M219.976 109.328C219.976 109.254 219.961 109.18 219.946 109.106C219.917 108.958 219.872 108.81 219.813 108.676C219.754 108.528 219.68 108.38 219.591 108.247C219.502 108.099 219.399 107.951 219.295 107.803C219.236 107.714 219.162 107.64 219.088 107.566C219.014 107.478 218.925 107.404 218.836 107.33C218.629 107.167 218.422 107.004 218.2 106.856C217.712 106.56 217.208 106.235 216.691 105.998C216.054 105.717 215.433 105.376 214.767 105.154L210.312 103.615C210.312 102.771 210.342 101.928 210.312 101.07C210.282 99.8116 210.223 98.5537 210.12 97.3105C210.046 96.4374 209.942 95.5642 209.809 94.7058C209.705 94.0251 209.542 93.3739 209.394 92.7079C209.365 92.5599 209.306 92.4119 209.261 92.2639C209.172 92.0124 209.069 91.7608 208.95 91.524C208.847 91.3316 208.728 91.1392 208.595 90.9616C208.432 90.7544 208.255 90.5768 208.048 90.414C207.929 90.3252 207.811 90.266 207.692 90.2068C207.589 90.1624 207.471 90.118 207.367 90.0884C207.204 90.044 207.041 90.0292 206.864 90.0144C206.464 89.9996 206.079 90.044 205.709 90.1772C205.561 90.2216 205.428 90.2808 205.295 90.3548C204.984 90.5176 204.703 90.6952 204.422 90.9024C204.17 91.0948 203.919 91.2724 203.697 91.4796C202.764 92.3527 201.862 93.2407 200.959 94.1583C200.485 94.6466 200.026 95.1498 199.597 95.6678C197.881 97.7397 196.179 99.8264 194.521 101.958C193.796 102.905 193.13 103.896 192.449 104.888C192.286 105.139 192.124 105.391 191.976 105.643C191.724 106.101 191.487 106.56 191.25 107.034C191.191 107.152 191.147 107.285 191.102 107.404C191.058 107.522 191.014 107.655 190.984 107.774C190.925 107.996 190.895 108.232 190.91 108.469C190.91 108.528 190.925 108.588 190.954 108.632C190.969 108.691 190.999 108.75 191.028 108.795C191.102 108.913 191.191 109.017 191.28 109.12C191.384 109.224 191.502 109.328 191.62 109.431C191.739 109.535 191.872 109.624 192.005 109.712C192.242 109.86 192.479 110.008 192.716 110.142C192.819 110.201 192.923 110.26 193.041 110.304C193.086 110.319 192.967 110.26 192.923 110.245C192.923 110.245 192.908 110.23 192.908 110.245C192.908 110.245 192.923 110.245 192.923 110.26L193.1 110.349C194.565 111.118 196.031 111.873 197.496 112.643C198.961 113.427 200.426 114.211 201.876 115.025L205.132 116.86C204.007 117.719 202.853 118.548 201.743 119.421C201.314 119.761 200.929 120.131 200.544 120.516C200.234 120.827 199.938 121.152 199.656 121.493C199.434 121.759 199.227 122.055 199.05 122.351C198.902 122.588 198.768 122.825 198.65 123.076C198.561 123.269 198.487 123.461 198.428 123.653C198.384 123.787 198.354 123.935 198.324 124.083C198.31 124.171 198.31 124.26 198.295 124.349V124.675C198.31 124.956 198.384 125.222 198.517 125.474C198.546 125.533 198.576 125.592 198.62 125.636C198.694 125.74 198.768 125.844 198.857 125.932C198.946 126.021 199.05 126.11 199.153 126.184C199.257 126.258 199.36 126.332 199.479 126.391C199.597 126.45 199.716 126.51 199.834 126.554C199.952 126.598 200.071 126.658 200.204 126.687C200.663 126.791 201.122 126.88 201.58 126.939C201.802 126.968 202.039 126.983 202.261 126.968C203.045 126.909 203.83 126.82 204.614 126.702C205.532 126.554 206.435 126.362 207.323 126.169C208.388 125.932 209.439 125.696 210.49 125.415C211.23 125.222 211.984 125.045 212.695 124.749C213.257 124.527 213.819 124.305 214.382 124.068C214.5 124.009 214.619 123.949 214.737 123.875C214.841 123.816 214.944 123.742 215.048 123.668C215.137 123.609 215.225 123.535 215.299 123.461C215.359 123.402 215.433 123.328 215.477 123.254C215.566 123.135 215.625 123.002 215.655 122.854C215.684 122.736 215.684 122.603 215.655 122.469C215.625 122.351 215.581 122.233 215.521 122.129C215.462 122.025 215.388 121.922 215.299 121.833C215.151 121.67 214.989 121.522 214.811 121.389C214.722 121.33 214.648 121.271 214.559 121.226C213.982 120.871 213.405 120.516 212.813 120.176L210.371 118.725C211.851 117.719 213.361 116.727 214.826 115.706C215.462 115.262 216.069 114.818 216.676 114.33C217.179 113.915 217.682 113.471 218.156 113.027C218.378 112.82 218.585 112.569 218.792 112.347C218.881 112.243 218.97 112.125 219.058 112.006C219.132 111.903 219.206 111.799 219.266 111.681C219.458 111.296 219.65 110.926 219.798 110.526C219.858 110.364 219.887 110.186 219.932 110.023C219.946 109.949 219.961 109.86 219.961 109.786C219.961 109.712 219.976 109.638 219.976 109.55C219.991 109.476 219.976 109.402 219.976 109.328ZM201.728 99.338C202.557 98.4797 203.386 97.6213 204.229 96.7777C204.377 96.6298 204.555 96.4818 204.718 96.3486C204.777 96.3042 204.836 96.245 204.895 96.2006C204.94 96.171 204.984 96.1266 205.043 96.097C205.073 96.0822 205.117 96.0526 205.162 96.0378L205.295 95.9934C205.339 95.9934 205.384 95.9786 205.428 95.9934C205.473 95.9934 205.532 96.0082 205.576 96.0378C205.621 96.0674 205.68 96.1118 205.709 96.1562C205.739 96.1858 205.754 96.2154 205.769 96.245C205.783 96.2746 205.813 96.319 205.828 96.3486C205.872 96.4522 205.902 96.5558 205.931 96.6741C205.976 96.8369 206.005 96.9849 206.02 97.1477C206.079 97.5325 206.139 97.9321 206.183 98.3169C206.242 98.8201 206.287 99.338 206.331 99.8412L206.583 102.535L203.563 101.824L200.752 101.366L200.071 101.306H199.849C200.47 100.655 201.092 99.9892 201.728 99.338ZM199.834 103.082L199.849 103.067L199.864 103.053H199.923L200.026 103.082L200.293 103.186L200.663 103.349C201.625 103.763 202.572 104.163 203.534 104.577C204.17 104.843 204.807 105.11 205.428 105.391L206.686 105.924L206.805 105.968C206.879 106.96 206.953 107.951 207.012 108.943C207.056 109.712 207.071 110.497 207.086 111.266C207.086 111.37 207.086 111.459 207.071 111.562C207.071 111.622 207.056 111.666 207.056 111.725C207.041 111.784 207.041 111.829 207.027 111.888C207.012 111.947 206.997 111.991 206.967 112.036L206.879 112.169L206.819 112.228C206.79 112.243 206.775 112.258 206.745 112.273C206.686 112.302 206.627 112.332 206.568 112.332C206.479 112.347 206.405 112.347 206.316 112.332C206.272 112.332 206.227 112.317 206.183 112.302L206.05 112.258C205.946 112.213 205.857 112.169 205.769 112.125C205.665 112.065 205.561 111.991 205.473 111.932C205.369 111.858 205.265 111.769 205.162 111.681C205.058 111.592 204.955 111.488 204.851 111.385C204.629 111.148 204.422 110.911 204.215 110.674C203.845 110.23 203.475 109.801 203.149 109.313C202.705 108.662 202.261 108.01 201.832 107.344C201.58 106.945 201.314 106.56 201.107 106.131L200.145 104.222L199.938 103.615L199.893 103.437L199.864 103.26V103.127L199.834 103.082ZM210.504 120.042C210.771 120.205 211.022 120.368 211.289 120.546C211.614 120.768 211.955 120.975 212.28 121.211C212.517 121.374 212.739 121.552 212.946 121.744C213.05 121.833 213.139 121.922 213.227 122.011C213.301 122.085 213.361 122.173 213.42 122.262V122.321C213.42 122.336 213.405 122.336 213.405 122.351C213.39 122.366 213.39 122.366 213.375 122.366C213.361 122.366 213.346 122.381 213.331 122.381C213.301 122.381 213.287 122.395 213.257 122.395C211.984 122.484 210.712 122.573 209.454 122.677L204.496 123.061L204.348 123.076L204.422 123.002L204.733 122.721C205.369 122.247 205.991 121.729 206.657 121.285L209.468 119.376L210.504 120.042ZM214.323 110.29C214.293 110.393 214.249 110.482 214.175 110.556C214.086 110.66 213.997 110.748 213.908 110.837C213.701 111.03 213.494 111.222 213.272 111.385C212.487 111.947 211.703 112.509 210.904 113.057C210.356 113.427 209.794 113.782 209.232 114.137L205.976 116.224L204.599 115.425L198.694 112.051C197.363 111.252 196.016 110.467 194.699 109.668C194.447 109.52 194.21 109.342 193.973 109.165L193.752 108.987C193.722 108.972 193.707 108.958 193.678 108.928C193.633 108.884 193.574 108.839 193.53 108.78C193.47 108.721 193.426 108.647 193.396 108.558L193.352 108.425C193.352 108.38 193.337 108.336 193.352 108.277C193.367 108.173 193.411 108.07 193.47 107.966C193.589 107.744 193.752 107.552 193.929 107.374C194.684 106.59 195.468 105.82 196.223 105.036L198.295 102.934L198.398 103.275L198.65 103.867L198.665 103.896C199.212 104.843 199.73 105.805 200.308 106.738C200.974 107.803 201.684 108.839 202.394 109.875C202.735 110.364 203.075 110.837 203.445 111.296C203.756 111.695 204.096 112.08 204.451 112.45C204.762 112.776 205.117 113.057 205.458 113.353C205.635 113.486 205.828 113.605 206.02 113.723C206.198 113.827 206.39 113.915 206.583 113.975C206.76 114.034 206.953 114.063 207.13 114.093C207.352 114.108 207.589 114.093 207.796 114.034C207.855 114.019 207.914 113.989 207.988 113.975C208.048 113.945 208.107 113.93 208.151 113.901C208.196 113.871 208.255 113.841 208.299 113.812C208.388 113.753 208.477 113.679 208.551 113.605C208.61 113.545 208.684 113.471 208.728 113.397C208.802 113.309 208.862 113.205 208.921 113.101C209.069 112.85 209.202 112.569 209.291 112.287C209.394 111.977 209.498 111.666 209.572 111.34C209.676 110.911 209.794 110.467 209.838 110.023L210.105 107.448C210.712 107.729 211.333 107.996 211.94 108.306C212.517 108.617 213.079 108.958 213.642 109.298C213.701 109.342 213.775 109.387 213.834 109.431C213.923 109.505 213.997 109.579 214.071 109.653C214.145 109.742 214.219 109.831 214.263 109.934C214.278 109.979 214.293 110.038 214.308 110.097V110.186C214.337 110.23 214.337 110.26 214.323 110.29Z" fill="#A6AFB7"/>
</g>
<defs>
<clipPath id="clip0_3492_95551">
<rect width="147.994" height="36.9688" fill="white" transform="translate(72 90)"/>
</clipPath>
</defs>
</svg>
