<svg width="292" height="238" viewBox="0 0 292 238" fill="none" xmlns="http://www.w3.org/2000/svg">
<g clip-path="url(#clip0_3492_95458)">
<path d="M149.22 122.619C149.22 125.413 145.742 125.247 145.742 125.247H142.265V120.198H145.742C149.321 120.174 149.22 122.619 149.22 122.619ZM142.265 112.498H144.915C147.666 112.643 147.562 114.692 147.562 114.692C147.562 117.238 144.52 117.279 144.52 117.279H142.265V112.498ZM148.576 118.272C148.576 118.272 150.956 117.258 150.935 114.568C150.935 114.568 151.297 110.159 145.456 109.621H138.975V128.103H146.404C146.404 128.103 152.612 128.122 152.612 122.889C152.611 122.889 152.758 119.327 148.576 118.272ZM131.803 106H159.091V131.714H131.803V106ZM117.752 122.619C117.752 125.413 114.275 125.247 114.275 125.247H110.798V120.198H114.275C117.854 120.174 117.752 122.619 117.752 122.619ZM110.798 112.498H113.448C116.199 112.643 116.095 114.692 116.095 114.692C116.095 117.238 113.053 117.279 113.053 117.279H110.798V112.498ZM117.11 118.272C117.11 118.272 119.49 117.258 119.469 114.568C119.469 114.568 119.83 110.159 113.989 109.621H107.508V128.103H114.937C114.937 128.103 121.145 128.122 121.145 122.889C121.145 122.889 121.291 119.327 117.11 118.272ZM100.336 106H127.624V131.714H100.336V106ZM184.991 110.946V114.361C184.991 114.361 181.658 112.313 177.975 112.271C177.975 112.271 171.104 112.137 170.794 118.858C170.794 118.858 170.546 125.04 177.892 125.392C177.892 125.392 180.975 125.763 185.156 123.096V126.633C185.156 126.633 179.547 129.965 173.049 127.398C173.049 127.398 167.586 125.404 167.378 118.858C167.378 118.858 167.151 112.126 174.436 109.891C174.436 109.891 176.382 109.146 179.878 109.477C179.878 109.477 181.968 109.684 184.991 110.946ZM163.27 131.714H190.558V106H163.27V131.714Z" fill="#A6AFB7"/>
</g>
<defs>
<clipPath id="clip0_3492_95458">
<rect width="90.2218" height="25.7144" fill="white" transform="translate(100.336 106)"/>
</clipPath>
</defs>
</svg>
