<svg width="292" height="238" viewBox="0 0 292 238" fill="none" xmlns="http://www.w3.org/2000/svg">
<g clip-path="url(#clip0_3492_95442)">
<path fill-rule="evenodd" clip-rule="evenodd" d="M168.377 131.855C167.12 131.77 167.452 128.823 164.793 129.15C162.895 129.377 162.686 131.621 162.522 133.372C162.336 135.333 162.108 136.99 161.526 136.714C161.038 136.49 161.165 135.598 160.961 132.871C160.724 129.746 159.949 128.027 158.087 127.729C155.8 127.37 154.915 130.808 154.518 132.145C154.128 133.464 153.441 134.067 153.004 134.067C152.62 134.067 151.986 133.887 151.806 132.324C151.626 130.747 152.928 128.042 154.727 126.151C160.136 120.469 167.907 116.46 167.907 107.675C167.907 99.3846 161.921 95 156.417 95C152.201 95 149.856 97.4626 149.041 98.2681C147.73 99.5649 147.16 101.01 146.659 101.01C146.164 101.01 145.601 99.5649 144.295 98.2681C143.481 97.4626 141.13 95 136.921 95C131.414 95 125.431 99.3846 125.431 107.675C125.431 116.46 133.195 120.469 138.609 126.151C140.407 128.042 141.676 130.737 141.527 132.324C141.363 134.026 140.704 133.949 140.401 133.941C140.228 133.927 139.383 133.629 138.866 131.691C138.394 129.916 137.799 128.291 135.826 128.183C133.632 128.05 133.056 131.065 132.869 133.456C132.706 135.512 132.65 139.372 131.874 139.053C131.421 138.865 131.199 134.441 130.831 131.049C130.546 128.424 130.197 122.814 128.662 121.813C126.804 120.602 125.174 121.961 124.662 124.111C124.284 125.719 124.225 127.049 123.741 129.213C123.38 130.808 122.974 131.838 121.402 131.838L117 131.863V134.238H118.008C123.701 134.472 125.309 133.894 125.988 131.331C126.594 129.041 126.833 126.416 126.968 125.682C127.178 124.572 127.868 124.017 128.166 127.112C128.318 128.65 128.463 130.613 128.696 132.605C129.394 138.466 129.576 142.515 132.148 142.725C135 142.968 135.016 137.755 135.204 135.691C135.32 134.379 135.49 130.62 136.16 131.027C137.083 131.581 136.729 136.293 141.119 136.49C143.632 136.605 144.552 134.708 144.716 132.605C144.867 130.62 142.969 127.674 140.379 125.135C134.144 119.017 129.797 115.866 129.797 109.122C129.797 102.238 134.617 98.8228 138.831 98.8228C139.756 98.8228 142.59 98.6668 146.013 104.192C146.158 104.425 146.433 104.521 146.665 104.558C146.903 104.521 147.178 104.425 147.318 104.192C150.741 98.6668 153.574 98.8228 154.507 98.8228C158.715 98.8228 163.54 102.238 163.54 109.122C163.54 115.866 159.158 118.851 152.924 124.97C150.338 127.501 148.568 130.613 148.622 132.605C148.668 134.519 149.704 136.605 152.218 136.49C156.462 136.293 156.222 132.831 157.091 130.965C157.563 129.964 158.168 129.964 158.319 131.47C158.482 133.051 158.482 133.503 158.644 135.105C158.854 137.169 159.588 139.49 161.462 139.309C163.07 139.152 163.994 138.161 164.298 135.191C164.385 134.324 164.449 133.935 164.558 132.675C164.624 131.964 164.844 131.417 165.154 131.52C165.478 131.637 165.763 132.369 165.984 132.862C166.648 134.34 168.18 134.262 168.535 134.27C170.089 134.301 170.63 134.276 170.63 134.276L175.136 134.262V131.941C172.546 131.933 169.134 131.91 168.377 131.855Z" fill="#A6AFB7"/>
</g>
<defs>
<clipPath id="clip0_3492_95442">
<rect width="58.1365" height="47.7331" fill="white" transform="translate(117 95)"/>
</clipPath>
</defs>
</svg>
