<svg width="292" height="238" viewBox="0 0 292 238" fill="none" xmlns="http://www.w3.org/2000/svg">
<g clip-path="url(#clip0_3492_95475)">
<path d="M156.714 128.217C156.707 128.223 156.701 128.223 156.701 128.23C151.742 131.739 145.872 135.425 139.556 139.295L139.307 139.439C139.221 139.498 139.202 139.616 139.261 139.701C139.32 139.786 139.438 139.806 139.523 139.747L139.733 139.636C145.092 136.842 151.244 133.523 157.435 130.119C157.468 130.099 157.501 130.079 157.534 130.066C157.193 129.502 156.911 128.886 156.714 128.217V128.217ZM189.245 101.883C181.434 93.2649 131.161 101.017 109.786 105.687L109.287 105.792C109.182 105.812 109.117 105.91 109.136 106.009C109.156 106.114 109.254 106.179 109.353 106.16L109.845 106.061C127.553 102.906 164.388 98.5382 172.311 106.396C174.731 108.796 174.154 111.879 171.346 115.525C172.855 116.496 173.931 118.024 174.416 119.933C185.369 112.666 192.722 105.72 189.245 101.883V101.883Z" fill="#A6AFB7"/>
<path d="M159.876 125.952C159.974 128.982 161.896 131.468 164.395 131.468C169.242 131.468 171.308 125.513 171.164 121.538C171.059 118.501 169.091 116.022 166.592 116.022C162.427 116.016 159.732 121.945 159.876 125.952V125.952ZM157.318 125.788C157.141 120.613 161.194 115.32 167.084 115.32C171.019 115.32 173.597 117.944 173.741 121.964C173.932 127.421 170.141 132.432 163.982 132.432C160.033 132.432 157.456 129.815 157.318 125.788V125.788Z" fill="#A6AFB7"/>
<path d="M101.534 124.423C101.324 124.502 101.055 124.581 100.714 124.653C100.379 124.732 99.7627 124.837 98.8707 124.981C98.2542 125.079 97.8279 125.204 97.5852 125.381C97.3556 125.552 97.2179 125.755 97.1786 126.011C97.1326 126.28 97.2179 126.489 97.4475 126.66C97.6836 126.824 98.0771 126.909 98.6346 126.909C99.0544 126.909 99.461 126.844 99.8545 126.712C100.255 126.581 100.596 126.404 100.851 126.181C101.042 126.017 101.179 125.807 101.284 125.552C101.35 125.381 101.435 125.007 101.534 124.423V124.423ZM106.649 121.242C106.63 121.715 106.545 122.134 106.42 122.862L105.554 127.723C105.482 128.155 105.639 128.49 106.039 128.726L106.013 128.916L101.055 128.91L101.009 127.677C100.287 128.109 99.4151 128.477 98.6281 128.693C97.841 128.897 97.2048 128.982 96.2538 128.982C94.6534 128.982 93.7352 128.818 93.099 128.26C92.4562 127.69 92.1414 127.309 92.1742 126.522C92.2004 126.07 92.4365 125.486 92.771 125.079C93.1121 124.666 93.5843 124.397 94.0894 124.155C94.601 123.912 95.2044 123.735 96.0767 123.597C96.9556 123.453 98.1755 123.315 99.8086 123.177C100.668 123.105 101.193 122.908 101.435 122.81C101.776 122.679 101.914 122.528 101.96 122.252C102.052 121.754 101.894 121.465 101.225 121.334C99.4413 120.98 96.0898 121.564 94.3648 121.99L95.3027 119.458C97.5786 119.124 99.7103 118.914 101.96 118.914C105.548 118.914 106.689 119.931 106.649 121.242V121.242Z" fill="#A6AFB7"/>
<path d="M121.031 128.914L122.75 119.2H127.498L125.78 128.914H121.031ZM123.012 116.951C123.156 116.151 124.416 115.508 125.819 115.508C127.229 115.508 128.259 116.157 128.121 116.951C127.97 117.751 126.718 118.4 125.301 118.4C123.897 118.4 122.874 117.751 123.012 116.951V116.951Z" fill="#A6AFB7"/>
<path d="M144.354 124.444C144.138 124.517 143.862 124.595 143.528 124.674C143.193 124.753 142.577 124.851 141.685 124.995C141.075 125.094 140.642 125.218 140.406 125.395C140.176 125.559 140.045 125.769 139.992 126.018C139.94 126.287 140.038 126.504 140.261 126.668C140.504 126.832 140.897 126.91 141.455 126.91C141.868 126.91 142.275 126.851 142.675 126.727C143.082 126.589 143.416 126.419 143.678 126.196C143.862 126.032 144 125.815 144.098 125.566C144.164 125.402 144.249 125.028 144.354 124.444V124.444ZM149.47 121.257C149.45 121.736 149.365 122.155 149.234 122.877L148.374 127.743C148.302 128.17 148.46 128.511 148.86 128.747L148.834 128.917L143.875 128.924L143.836 127.684C143.114 128.124 142.235 128.491 141.455 128.701C140.668 128.911 140.032 128.996 139.068 128.996C137.467 128.996 136.556 128.839 135.919 128.275C135.27 127.698 134.962 127.324 134.995 126.537C135.014 126.078 135.25 125.494 135.591 125.094C135.932 124.674 136.405 124.412 136.916 124.169C137.428 123.926 138.031 123.749 138.897 123.605C139.776 123.467 141.002 123.323 142.636 123.185C143.488 123.113 144.013 122.923 144.256 122.824C144.603 122.693 144.734 122.542 144.787 122.26C144.872 121.768 144.721 121.48 144.059 121.342C142.262 120.988 138.923 121.572 137.198 121.998L138.13 119.466C140.412 119.132 142.537 118.922 144.787 118.922C148.361 118.928 149.503 119.952 149.47 121.257V121.257Z" fill="#A6AFB7"/>
<path d="M91.5337 125.423C89.9859 125.731 89.1201 125.849 87.5919 125.849C85.3226 125.849 83.5189 124.721 83.6173 122.655C83.6894 121.277 85.316 118.378 89.4546 118.378C90.7598 118.378 91.7764 118.608 93.1472 119.389L93.7506 116.017C91.8879 115.316 90.6549 115.211 89.0545 115.224C83.6238 115.283 78.4161 117.749 77.7668 122.766C77.1109 127.862 83.3352 129.141 86.0965 129.128C87.6903 129.122 89.3497 129.056 90.8975 128.899L91.5337 125.423Z" fill="#A6AFB7"/>
<path d="M130.115 119.145L130.456 117.164L135.421 116.082L134.89 119.138H137.323L136.864 121.093L134.503 121.086L133.067 128.898C133.067 128.898 128.285 128.865 128.266 128.898L129.696 121.106H127.898L128.266 119.138H130.115V119.145Z" fill="#A6AFB7"/>
<path d="M156.603 115.491L154.295 128.903L149.461 128.91L151.894 115.359L156.603 115.491Z" fill="#A6AFB7"/>
<path d="M114.746 121.477C114.123 121.477 113.559 121.667 113.06 122.041C112.562 122.422 112.247 122.973 112.123 123.701C111.972 124.547 112.064 125.157 112.398 125.53C112.739 125.904 113.224 126.094 113.867 126.094C114.3 126.094 114.746 126.016 115.074 125.852C115.481 125.635 115.763 125.412 116.005 125.052C116.268 124.678 116.438 124.258 116.53 123.773C116.668 123.005 116.55 122.435 116.196 122.054C115.848 121.674 115.369 121.477 114.746 121.477V121.477ZM106.102 132.266L108.417 119.254H112.588L112.267 120.913C112.628 120.415 113.205 120.008 114.005 119.68C114.812 119.352 115.717 119.109 116.701 119.109C117.789 119.109 118.458 119.168 119.272 119.588C120.078 120.014 120.649 120.631 120.951 121.431C121.265 122.218 121.331 123.11 121.161 124.074C120.879 125.681 120.098 126.941 118.813 127.872C117.54 128.803 116.392 129.046 114.759 129.053C114.182 129.053 113.697 128.993 113.297 128.895C112.903 128.79 112.588 128.666 112.352 128.515C112.123 128.364 111.88 128.147 111.572 127.806L110.798 132.266H106.102Z" fill="#A6AFB7"/>
<path d="M192.298 122.667C192.271 121.887 191.878 121.356 191.071 121.356C189.123 121.356 187.051 125.173 186.696 126.708C189.891 126.714 192.376 124.812 192.298 122.667V122.667ZM192.717 128.649L193.091 128.905C192.14 130.84 190.205 132.394 187.936 132.394C186.08 132.394 184.552 131.154 184.473 128.833C184.322 124.668 188.225 120.805 191.419 120.805C192.79 120.805 194.062 121.402 194.114 122.877C194.232 126.189 189.582 127.2 186.519 127.272C186.421 127.619 186.382 127.967 186.401 128.492C186.454 129.862 187.28 131.017 188.999 131.017C190.481 131.017 191.963 129.823 192.717 128.649V128.649Z" fill="#A6AFB7"/>
<path d="M173.668 122.561C173.996 122.515 174.527 122.456 174.756 122.456C175.104 122.456 175.432 122.522 175.452 122.869C175.458 123.073 175.091 124.549 175.012 124.89L174.271 128.156C173.969 129.494 173.648 130.891 173.359 131.999H175.261L176.331 126.824C179.59 123.427 180.85 122.319 181.617 122.319C181.965 122.319 182.201 122.502 182.22 122.915C182.24 123.512 181.866 124.87 181.742 125.263L180.653 129.035C180.404 129.881 180.22 130.648 180.24 131.193C180.272 132.019 180.771 132.386 181.519 132.386C182.909 132.386 183.919 130.937 184.798 129.514L184.542 129.048C184.188 129.618 183.362 130.871 182.712 130.871C182.509 130.871 182.312 130.733 182.306 130.392C182.286 129.953 182.47 129.291 182.601 128.851L183.814 124.43C184.142 123.211 184.293 122.43 184.286 122.01C184.254 121.184 183.775 120.797 183.034 120.797C181.781 120.797 180.121 121.715 176.599 125.762H176.547L176.993 123.788C177.236 122.705 177.472 121.577 177.695 120.797C176.475 121.236 174.73 121.728 173.655 121.938L173.668 122.561Z" fill="#A6AFB7"/>
</g>
<defs>
<clipPath id="clip0_3492_95475">
<rect width="116.394" height="41.7802" fill="white" transform="translate(77.7188 98)"/>
</clipPath>
</defs>
</svg>
