<svg width="292" height="238" viewBox="0 0 292 238" fill="none" xmlns="http://www.w3.org/2000/svg">
<path d="M189.753 125.763C189.753 124.318 190.926 123.145 192.37 123.145C193.815 123.145 194.986 124.318 194.986 125.763C194.986 127.208 193.815 128.379 192.37 128.379C190.926 128.379 189.753 127.208 189.753 125.763Z" fill="#A6AFB7"/>
<path d="M106.283 118.832C106.283 117.174 105.963 115.944 105.322 115.143C104.68 114.343 103.709 113.943 102.402 113.943H101.013V124.08H102.076C103.527 124.08 104.59 123.65 105.267 122.787C105.944 121.925 106.283 120.606 106.283 118.832V118.832ZM111.239 118.659C111.239 121.68 110.427 124.007 108.803 125.64C107.179 127.275 104.897 128.092 101.955 128.092H96.2378V109.994H102.354C105.191 109.994 107.381 110.737 108.924 112.222C110.467 113.708 111.239 115.853 111.239 118.659" fill="#A6AFB7"/>
<path d="M127.075 128.091H131.624V109.917H127.075V128.091Z" fill="#A6AFB7"/>
<path d="M138.015 121.312C138.015 122.471 138.166 123.354 138.468 123.962C138.771 124.57 139.279 124.874 139.992 124.874C140.698 124.874 141.197 124.57 141.488 123.962C141.778 123.354 141.923 122.471 141.923 121.312C141.923 120.159 141.776 119.29 141.482 118.703C141.186 118.115 140.683 117.82 139.969 117.82C139.27 117.82 138.771 118.113 138.468 118.696C138.166 119.28 138.015 120.152 138.015 121.312ZM146.553 121.312C146.553 123.52 145.975 125.242 144.814 126.476C143.655 127.711 142.032 128.329 139.946 128.329C137.945 128.329 136.352 127.698 135.17 126.434C133.986 125.171 133.395 123.464 133.395 121.312C133.395 119.111 133.974 117.401 135.135 116.182C136.295 114.963 137.921 114.353 140.016 114.353C141.31 114.353 142.456 114.636 143.448 115.2C144.44 115.764 145.207 116.572 145.745 117.625C146.285 118.676 146.553 119.906 146.553 121.312Z" fill="#A6AFB7"/>
<path d="M148.36 128.091H152.91V121.136V114.592H148.36V128.091Z" fill="#A6AFB7"/>
<path d="M148.36 112.959H152.91V109.917H148.36V112.959Z" fill="#A6AFB7"/>
<path d="M162.128 124.648C162.742 124.648 163.474 124.492 164.327 124.182V127.578C163.714 127.848 163.131 128.041 162.576 128.155C162.022 128.271 161.371 128.329 160.627 128.329C159.099 128.329 157.998 127.945 157.322 127.179C156.649 126.412 156.311 125.235 156.311 123.647V118.082H154.718V114.593H156.311V111.145L160.896 110.348V114.593H163.799V118.082H160.896V123.337C160.896 124.211 161.307 124.648 162.128 124.648" fill="#A6AFB7"/>
<path d="M172.658 124.648C173.272 124.648 174.004 124.492 174.857 124.182V127.578C174.245 127.848 173.661 128.041 173.106 128.155C172.551 128.271 171.903 128.329 171.157 128.329C169.63 128.329 168.529 127.945 167.854 127.179C167.179 126.412 166.841 125.235 166.841 123.647V118.082H165.247V114.593H166.841V111.093L171.425 110.348V114.593H174.33V118.082H171.425V123.337C171.425 124.211 171.837 124.648 172.658 124.648" fill="#A6AFB7"/>
<path d="M180.599 119.667C180.661 118.928 180.872 118.387 181.233 118.041C181.595 117.695 182.041 117.523 182.576 117.523C183.159 117.523 183.623 117.716 183.966 118.107C184.312 118.496 184.493 119.016 184.507 119.667H180.599V119.667ZM187.015 115.944C185.933 114.884 184.399 114.353 182.414 114.353C180.327 114.353 178.722 114.963 177.597 116.182C176.472 117.401 175.909 119.151 175.909 121.43C175.909 123.638 176.517 125.34 177.731 126.535C178.945 127.73 180.649 128.329 182.845 128.329C183.899 128.329 184.806 128.257 185.567 128.114C186.322 127.972 187.054 127.716 187.764 127.347L187.065 124.304C186.549 124.515 186.058 124.677 185.595 124.784C184.925 124.939 184.191 125.017 183.391 125.017C182.514 125.017 181.822 124.803 181.314 124.374C180.807 123.945 180.537 123.352 180.506 122.598H188.638V120.525C188.638 118.531 188.097 117.004 187.015 115.944Z" fill="#A6AFB7"/>
<path d="M117.277 119.667C117.339 118.928 117.55 118.387 117.91 118.041C118.272 117.695 118.719 117.523 119.255 117.523C119.836 117.523 120.3 117.716 120.644 118.107C120.99 118.496 121.17 119.016 121.186 119.667H117.277V119.667ZM123.693 115.944C122.611 114.884 121.078 114.353 119.092 114.353C117.005 114.353 115.4 114.963 114.275 116.182C113.151 117.401 112.587 119.151 112.587 121.43C112.587 123.638 113.195 125.34 114.409 126.535C115.623 127.73 117.327 128.329 119.523 128.329C120.577 128.329 121.484 128.257 122.245 128.114C123 127.972 123.732 127.716 124.442 127.347L123.743 124.304C123.227 124.515 122.736 124.677 122.273 124.784C121.602 124.939 120.869 125.017 120.069 125.017C119.193 125.017 118.5 124.803 117.992 124.374C117.484 123.945 117.215 123.352 117.184 122.598H125.316V120.525C125.316 118.531 124.775 117.004 123.693 115.944" fill="#A6AFB7"/>
</svg>
