<svg width="292" height="238" viewBox="0 0 292 238" fill="none" xmlns="http://www.w3.org/2000/svg">
<g clip-path="url(#clip0_3492_95448)">
<path d="M98.6894 128.141C93.1084 128.141 89.6641 123.453 89.6641 118.366C89.6641 113 92.7416 108.711 98.6256 108.711C102.963 108.711 106.296 111.302 106.599 114.93H102.748C102.556 113.232 100.73 111.852 98.6495 111.852C95.6119 111.852 93.5708 114.244 93.5708 118.542C93.5708 121.539 95.0777 124.92 98.6097 124.92C101.902 124.92 103.043 123.325 103.043 120.758H99.0083V117.736H106.591V120.758C106.606 125.127 104.765 128.141 98.6894 128.141Z" fill="#A6AFB7"/>
<path d="M108.797 127.527V109.109H112.369V127.527H108.797Z" fill="#A6AFB7"/>
<path d="M114.044 119.73C114.235 118.209 114.924 116.795 116.005 115.708C117.086 114.621 118.497 113.924 120.016 113.726C124.8 113.296 127.79 116.166 127.79 120.774C127.79 125.048 125.135 127.87 120.925 127.87C116.213 127.886 113.582 124.49 114.044 119.73ZM124.194 120.798C124.194 118.055 123.094 116.716 120.925 116.716C118.756 116.716 117.656 118.055 117.656 120.798C117.656 123.541 118.764 124.912 120.925 124.912C123.086 124.912 124.194 123.541 124.194 120.798Z" fill="#A6AFB7"/>
<path d="M129.531 127.527V109.109H133.031V115.807C133.464 115.148 134.057 114.61 134.754 114.242C135.451 113.874 136.23 113.688 137.018 113.702C140.502 113.702 142.559 116.588 142.543 120.67C142.543 125.215 140.095 127.909 136.699 127.909C135.951 127.952 135.205 127.788 134.543 127.437C133.881 127.085 133.328 126.56 132.944 125.916V127.551H129.531V127.527ZM138.963 120.901C138.963 118.143 137.983 116.739 135.902 116.739C133.821 116.739 132.912 118.183 132.912 121.14C132.912 123.413 134.227 125.007 135.926 125.007C137.624 125.007 138.963 123.301 138.963 120.901Z" fill="#A6AFB7"/>
<path d="M153.083 127.55C152.971 127.155 152.901 126.749 152.876 126.339C152.344 126.874 151.706 127.292 151.003 127.567C150.3 127.841 149.548 127.966 148.794 127.933C145.716 127.933 144.297 126.426 144.297 124.234C144.297 120.351 146.904 119.904 150.492 119.45C152.278 119.195 152.772 118.852 152.772 117.919C152.772 116.986 151.895 116.516 150.492 116.516C148.897 116.516 148.22 117.313 148.052 118.517H144.719C144.783 115.711 146.314 113.781 150.643 113.781C154.973 113.781 156.4 115.687 156.4 119.091V127.55H153.083ZM152.852 120.941C152.493 121.308 151.879 121.499 150.556 121.738C148.538 122.121 147.885 122.695 147.885 123.843C147.885 124.856 148.475 125.35 149.599 125.35C150.408 125.374 151.195 125.081 151.791 124.532C152.387 123.984 152.745 123.224 152.788 122.416L152.852 120.941Z" fill="#A6AFB7"/>
<path d="M167.486 127.549V119.369C167.486 117.288 166.888 116.714 165.19 116.714C163.316 116.714 162.423 117.759 162.423 119.816V127.549H158.859V114.059H162.256V116.037C162.676 115.266 163.311 114.635 164.084 114.22C164.858 113.805 165.735 113.625 166.609 113.701C167.156 113.66 167.705 113.728 168.225 113.901C168.746 114.073 169.227 114.346 169.641 114.704C170.056 115.063 170.396 115.499 170.642 115.989C170.888 116.479 171.034 117.013 171.074 117.559C171.09 117.774 171.09 117.99 171.074 118.205V127.549H167.486Z" fill="#A6AFB7"/>
<path d="M181.349 122.497C181.261 123.98 180.608 124.809 179.268 124.809C177.929 124.809 177.203 123.812 177.203 122.114V116.589H182.728V113.726H177.227V110.434H173.703V122.497C173.703 125.407 175.298 127.934 179.204 127.934C183.008 127.934 184.658 125.383 184.658 122.536L181.349 122.497Z" fill="#A6AFB7"/>
<path d="M188.908 108.111C188.717 108.002 188.491 107.972 188.278 108.027C188.065 108.082 187.882 108.218 187.768 108.406C187.655 108.598 187.624 108.828 187.68 109.044L189.275 111.435C190.791 113.701 191.601 116.367 191.601 119.093C191.601 121.82 190.791 124.485 189.275 126.751L187.68 129.143C187.647 129.245 187.634 129.352 187.644 129.458C187.653 129.565 187.683 129.668 187.733 129.763C187.783 129.857 187.851 129.941 187.934 130.008C188.016 130.076 188.112 130.126 188.214 130.156C188.32 130.191 188.433 130.202 188.543 130.187C188.654 130.171 188.76 130.131 188.852 130.068L202.246 119.958C202.465 119.796 202.61 119.554 202.65 119.285C202.691 119.016 202.623 118.742 202.462 118.523C202.399 118.441 202.327 118.366 202.246 118.3L188.908 108.111Z" fill="#A6AFB7"/>
</g>
<defs>
<clipPath id="clip0_3492_95448">
<rect width="113" height="22.1727" fill="white" transform="translate(89.6641 108)"/>
</clipPath>
</defs>
</svg>
