<svg width="292" height="238" viewBox="0 0 292 238" fill="none" xmlns="http://www.w3.org/2000/svg">
<g clip-path="url(#clip0_3492_95734)">
<path d="M137.089 119.489C137.089 124.764 132.938 128.651 127.845 128.651C122.752 128.651 118.602 124.764 118.602 119.489C118.602 114.178 122.752 110.328 127.845 110.328C132.938 110.328 137.089 114.178 137.089 119.489ZM133.042 119.489C133.042 116.193 130.637 113.938 127.845 113.938C125.053 113.938 122.648 116.193 122.648 119.489C122.648 122.752 125.053 125.041 127.845 125.041C130.637 125.041 133.042 122.748 133.042 119.489Z" fill="#A6AFB7"/>
<path d="M157.026 119.489C157.026 124.764 152.876 128.651 147.783 128.651C142.689 128.651 138.539 124.764 138.539 119.489C138.539 114.182 142.689 110.328 147.783 110.328C152.876 110.328 157.026 114.178 157.026 119.489ZM152.98 119.489C152.98 116.193 150.574 113.938 147.783 113.938C144.991 113.938 142.586 116.193 142.586 119.489C142.586 122.752 144.991 125.041 147.783 125.041C150.574 125.041 152.98 122.748 152.98 119.489Z" fill="#A6AFB7"/>
<path d="M176.141 110.882V127.329C176.141 134.095 172.128 136.858 167.384 136.858C162.918 136.858 160.23 133.888 159.216 131.459L162.739 130.001C163.366 131.492 164.904 133.252 167.38 133.252C170.416 133.252 172.298 131.389 172.298 127.882V126.565H172.157C171.251 127.676 169.507 128.647 167.305 128.647C162.698 128.647 158.477 124.657 158.477 119.522C158.477 114.351 162.698 110.328 167.305 110.328C169.502 110.328 171.247 111.299 172.157 112.377H172.298V110.886H176.141V110.882ZM172.585 119.522C172.585 116.297 170.421 113.938 167.666 113.938C164.874 113.938 162.535 116.297 162.535 119.522C162.535 122.715 164.874 125.041 167.666 125.041C170.421 125.041 172.585 122.715 172.585 119.522Z" fill="#A6AFB7"/>
<path d="M182.478 101.242V128.09H178.531V101.242H182.478Z" fill="#A6AFB7"/>
<path d="M197.852 122.501L200.993 124.583C199.979 126.074 197.537 128.643 193.316 128.643C188.081 128.643 184.172 124.62 184.172 119.482C184.172 114.034 188.114 110.32 192.863 110.32C197.645 110.32 199.984 114.104 200.748 116.148L201.168 117.189L188.85 122.261C189.793 124.099 191.259 125.037 193.316 125.037C195.376 125.037 196.805 124.029 197.852 122.501ZM188.185 119.205L196.419 115.806C195.966 114.661 194.604 113.864 193 113.864C190.944 113.864 188.081 115.669 188.185 119.205Z" fill="#A6AFB7"/>
<path d="M103.66 117.105V113.219H116.833C116.962 113.896 117.029 114.697 117.029 115.565C117.029 118.481 116.227 122.087 113.643 124.656C111.129 127.258 107.918 128.646 103.664 128.646C95.7789 128.646 89.1485 122.26 89.1485 114.421C89.1485 106.581 95.7789 100.195 103.664 100.195C108.026 100.195 111.134 101.897 113.468 104.115L110.71 106.858C109.036 105.296 106.767 104.082 103.66 104.082C97.9018 104.082 93.3985 108.696 93.3985 114.421C93.3985 120.145 97.9018 124.759 103.66 124.759C107.395 124.759 109.522 123.268 110.884 121.913C111.989 120.814 112.716 119.245 113.003 117.101L103.66 117.105Z" fill="#A6AFB7"/>
</g>
<defs>
<clipPath id="clip0_3492_95734">
<rect width="113" height="38" fill="white" transform="translate(89.0001 100)"/>
</clipPath>
</defs>
</svg>
