<svg width="292" height="238" viewBox="0 0 292 238" fill="none" xmlns="http://www.w3.org/2000/svg">
<g clip-path="url(#clip0_3492_95494)">
<path d="M127.978 115.757V121.905L122.184 115.757H117.81V125.807H120.647V119.777L126.559 125.807H130.815V115.757H127.978ZM90.7354 117.767H92.9818C94.2823 117.767 94.9917 118.358 94.9917 119.422C94.9917 120.841 94.4005 121.314 92.3906 121.314L95.2281 125.807H99.9573L97.0016 121.55C97.4745 121.55 99.3661 121.196 99.3661 118.595C99.3661 115.757 96.5286 115.757 94.637 115.757H86.3609V125.807H90.6172V117.767H90.7354ZM110.598 115.757V121.432C110.598 122.378 110.361 123.087 110.007 123.442C109.652 123.797 109.061 124.033 108.352 124.033C107.642 124.033 107.051 123.915 106.696 123.442C106.342 122.969 106.105 122.378 106.105 121.432V115.757H101.849V121.668C101.849 123.324 102.204 123.915 102.913 124.624C103.977 125.688 105.987 126.161 108.47 126.161C110.953 126.161 112.844 125.688 114.027 124.624C114.736 123.915 115.091 123.324 115.091 121.668V115.757H110.598ZM140.865 115.757H134.007V125.807H140.865C145.83 125.807 148.195 124.742 148.195 120.723C148.195 116.703 145.948 115.757 140.865 115.757ZM140.392 123.797H138.145V117.767H140.392C142.638 117.767 143.702 118.713 143.702 120.723C143.82 122.733 142.638 123.797 140.392 123.797ZM171.131 115.402C165.574 115.402 163.21 117.412 163.21 120.723C163.21 124.388 165.574 126.161 171.131 126.161C176.57 126.161 179.053 124.388 179.053 120.723C178.934 117.53 176.57 115.402 171.131 115.402ZM171.013 124.033C168.767 124.033 167.703 122.969 167.703 120.723C167.703 118.476 168.767 117.412 171.013 117.412C173.259 117.412 174.323 118.476 174.323 120.723C174.323 123.087 173.378 124.033 171.013 124.033ZM155.17 117.885H161.082L162.382 115.757H150.796V125.807H155.17V122.496H160.018L161.318 120.368H155.17V117.885ZM79.3854 120.959V123.915C79.3854 123.915 78.2031 124.033 77.612 124.033C74.3016 124.033 73.8286 122.26 73.8286 120.841C73.8286 118.713 75.1292 117.649 77.8484 117.649C79.6219 117.649 80.5677 117.767 81.8682 118.003L82.4594 118.122L83.7599 115.875C80.8042 115.521 78.9125 115.521 77.2573 115.521C71.8188 115.521 69.3359 117.294 69.3359 120.959C69.3359 124.624 71.8188 126.161 77.2573 126.161C79.6219 126.161 81.8682 126.043 83.6417 125.57V121.077L79.3854 120.959ZM189.339 119.54C187.329 119.186 186.146 119.186 186.146 118.358C186.146 117.53 188.156 117.412 189.457 117.412C190.166 117.412 191.703 117.53 192.767 117.767L193.949 115.757C193.122 115.639 190.757 115.402 188.274 115.402C183.782 115.402 180.826 116.23 180.826 118.358C180.826 120.723 183.309 121.077 185.792 121.55C187.683 121.905 188.984 121.905 188.984 122.851C188.984 123.915 187.329 124.033 185.673 124.033C185.201 124.033 183.782 123.915 182.008 123.56L180.471 125.925C182.363 126.161 183.191 126.279 186.738 126.279C191.821 126.279 194.186 125.334 194.186 122.851C194.186 120.486 191.703 119.895 189.339 119.54ZM205.891 125.807H200.452L208.019 118.24C208.019 118.24 208.492 118.476 209.438 119.422C210.502 120.368 210.738 120.841 210.738 120.841L205.891 125.807Z" fill="#A6AFB7"/>
<path d="M203.409 120.017C200.572 116.588 199.744 115.051 199.035 113.159C198.562 111.977 197.971 109.731 199.153 108.548C200.217 107.484 202.227 107.839 204.355 108.785C206.719 109.849 209.439 111.859 212.04 114.223L220.552 105.711V111.149L212.749 118.953C212.749 118.953 211.922 118.007 211.449 117.652C206.838 113.159 202.581 110.913 201.517 111.977C200.099 113.396 204.473 118.48 204.591 118.716L203.409 120.017ZM220.671 125.81H217.597C217.597 125.81 217.242 124.746 216.178 123.091C215.114 121.435 214.168 120.49 214.168 120.49L216.178 118.48C217.005 119.544 217.833 120.608 218.661 121.908C219.488 123.209 220.198 124.509 220.671 125.81Z" fill="#A6AFB7"/>
</g>
<defs>
<clipPath id="clip0_3492_95494">
<rect width="151.333" height="21.2812" fill="white" transform="translate(69.3359 105)"/>
</clipPath>
</defs>
</svg>
