<svg width="292" height="238" viewBox="0 0 292 238" fill="none" xmlns="http://www.w3.org/2000/svg">
<g clip-path="url(#clip0_3492_95784)">
<path d="M154.931 125.717H148.934C148.781 125.717 148.68 125.615 148.68 125.463L148.68 111.297C148.68 111.145 148.578 111.094 148.425 111.094H144.614C144.461 111.094 144.359 111.145 144.359 111.297L144.359 129.275C144.359 129.427 144.461 129.529 144.614 129.529H154.931C155.084 129.529 155.185 129.427 155.185 129.275V125.971C155.185 125.819 155.084 125.717 154.931 125.717Z" fill="#A6AFB7"/>
<path d="M156.977 117.34V129.323C156.977 129.45 157.053 129.527 157.18 129.527H160.839C160.966 129.527 161.043 129.45 161.043 129.323V117.34C161.043 117.213 160.966 117.137 160.839 117.137H157.18C157.053 117.137 156.977 117.213 156.977 117.34Z" fill="#A6AFB7"/>
<path d="M175.408 125.029L172.002 124.572C171.85 124.546 171.773 124.572 171.723 124.724C171.469 125.538 170.808 126.427 169.562 126.427C167.809 126.427 166.894 124.902 166.894 122.818C166.894 120.734 167.809 119.235 169.562 119.235C170.808 119.235 171.469 120.074 171.723 120.963C171.748 121.065 171.85 121.141 172.002 121.116L175.408 120.658C175.509 120.633 175.534 120.455 175.509 120.353C175.28 118.6 173.374 116.059 169.486 116.059C165.496 116.059 162.828 119.057 162.828 122.818C162.828 126.579 165.496 129.604 169.486 129.604C173.374 129.604 175.255 127.037 175.509 125.309C175.534 125.207 175.509 125.055 175.408 125.029Z" fill="#A6AFB7"/>
<path d="M189.535 122.742C189.535 119.362 187.502 116.059 183.055 116.059C179.065 116.059 176.523 119.083 176.523 122.818C176.523 126.579 178.861 129.604 183.283 129.604C186.587 129.604 188.544 127.85 189.23 125.893C189.281 125.766 189.204 125.69 189.077 125.665L185.672 125.207C185.645 125.2 185.617 125.199 185.591 125.203C185.442 125.224 185.377 125.398 185.282 125.514C184.906 125.971 184.285 126.427 183.207 126.427C182.114 126.427 180.818 125.538 180.818 124.267C180.818 124.114 180.869 124.064 180.996 124.064H189.331C189.459 124.064 189.535 123.987 189.535 123.86V122.742ZM183.055 118.981C184.554 118.981 185.215 119.947 185.215 121.217C185.215 121.319 185.138 121.395 185.011 121.395H180.996C180.894 121.395 180.844 121.319 180.844 121.167C180.869 119.947 181.657 118.981 183.055 118.981Z" fill="#A6AFB7"/>
<path d="M191.07 110.086V129.324C191.07 129.451 191.146 129.527 191.274 129.527H194.933C195.06 129.527 195.136 129.451 195.136 129.324V110.086C195.136 109.959 195.06 109.883 194.933 109.883H191.274C191.146 109.883 191.07 109.959 191.07 110.086Z" fill="#A6AFB7"/>
<path d="M156.977 111.297L156.977 114.721C156.977 114.848 157.053 114.924 157.18 114.924H160.84C160.967 114.924 161.043 114.848 161.043 114.721L161.043 111.297C161.043 111.17 160.966 111.094 160.839 111.094H157.18C157.053 111.094 156.977 111.17 156.977 111.297Z" fill="#A6AFB7"/>
<path d="M119.938 134.384V117.695L134.686 125.987L119.938 134.384Z" fill="#A6AFB7"/>
<path fill-rule="evenodd" clip-rule="evenodd" d="M119.086 108.237V116.017L112.244 112.127L119.086 108.237ZM118.66 107.509L111.818 111.399V103.618L118.66 107.509ZM103.695 106.78L110.537 102.89L103.695 99V106.78ZM103.695 116.017V108.237L110.537 112.127L103.695 116.017ZM104.121 116.746L110.963 112.855V120.636L104.121 116.746ZM103.695 117.474L110.537 121.364L103.695 125.254V117.474ZM110.963 129.873L104.121 125.982L110.963 122.092V129.873ZM111.818 129.873V122.092L118.66 125.982L111.818 129.873ZM112.244 130.601L119.086 126.711V134.491L112.244 130.601ZM119.086 117.474V125.254L112.244 121.364L119.086 117.474ZM118.66 116.746L111.818 120.636V112.855L118.66 116.746ZM110.963 103.618V111.399L104.121 107.509L110.963 103.618Z" fill="#A6AFB7"/>
<path fill-rule="evenodd" clip-rule="evenodd" d="M96 130.361V103.883L110.962 112.385V138.9L96 130.361Z" fill="#A6AFB7"/>
</g>
<defs>
<clipPath id="clip0_3492_95784">
<rect width="99.1397" height="39.8977" fill="white" transform="translate(96 99)"/>
</clipPath>
</defs>
</svg>
