<svg width="292" height="238" viewBox="0 0 292 238" fill="none" xmlns="http://www.w3.org/2000/svg">
<g clip-path="url(#clip0_3492_95750)">
<path d="M129.636 136.966H127.018V106.639L114.691 130.421H112.945L100.618 106.639V136.966H98V101.512H100.509L113.818 126.603L127.236 101.512H129.636V136.966Z" fill="#A6AFB7"/>
<path d="M158.22 130.856C155.82 134.893 153.093 137.62 148.075 137.62C141.857 137.62 137.82 134.129 137.82 128.347C137.82 123.875 140.657 120.602 145.893 117.547C142.729 114.493 141.202 112.42 141.202 109.038C141.202 104.129 144.475 101.184 148.729 101.184C153.093 101.184 156.475 104.238 156.475 108.82C156.475 113.293 153.093 115.802 149.82 117.984L157.893 126.82L162.148 119.511L164.111 120.711L159.42 128.565L165.42 135.111L163.566 136.856L158.22 130.856ZM156.584 129.111L147.529 119.402C142.729 122.238 140.438 124.856 140.438 128.347C140.438 132.711 143.275 135.329 147.966 135.329C152.002 135.329 154.293 132.82 156.584 129.111ZM148.075 116.347C151.129 114.384 153.857 112.202 153.857 108.82C153.857 105.765 151.784 103.584 148.838 103.584C146.002 103.584 143.82 105.547 143.82 108.929C143.711 111.547 145.129 113.293 148.075 116.347Z" fill="#A6AFB7"/>
<path d="M193.997 127.693C193.997 133.475 188.978 137.729 182.106 137.729C175.669 137.729 171.197 135.111 168.688 129.984L170.76 128.675C172.942 133.147 176.651 135.329 182.215 135.329C187.778 135.329 191.597 132.275 191.597 127.584C191.597 123.002 186.906 121.584 181.997 120.165C176.324 118.529 170.651 116.784 170.651 110.565C170.542 103.147 177.633 101.184 181.669 101.184C185.16 101.184 191.16 102.165 193.56 108.82L191.269 109.584C189.851 105.765 186.36 103.475 181.887 103.475C176.542 103.475 173.16 106.202 173.16 110.565C173.16 115.038 177.742 116.347 182.542 117.656C188.215 119.402 193.997 121.038 193.997 127.693Z" fill="#A6AFB7"/>
</g>
<defs>
<clipPath id="clip0_3492_95750">
<rect width="96" height="36.5455" fill="white" transform="translate(98 101.184)"/>
</clipPath>
</defs>
</svg>
