<svg width="292" height="238" viewBox="0 0 292 238" fill="none" xmlns="http://www.w3.org/2000/svg">
<path d="M73 110.234H78.1363L79.29 120.651H79.3122L80.5879 110.234H85.4912L85.5134 127.019H82.1742V115.703L80.8985 127.019H77.7147L76.439 115.703V127.019H73V110.234Z" fill="#A6AFB7"/>
<path d="M92.7529 125.963C91.8765 126.784 90.5564 127.184 89.5469 127.184C86.5073 127.184 85.875 124.399 85.875 122.569C85.875 120.35 86.8401 118.775 88.2268 117.765C87.539 116.7 86.9732 115.48 86.9732 114.093C86.9732 111.575 88.5041 110 90.4899 110C92.6864 110 94.3504 111.087 94.3504 113.916C94.3504 116.035 93.3409 117.1 92.2093 118.298L93.4074 120.561C93.6182 119.995 93.829 119.407 93.829 118.742H96.802C96.7354 120.628 96.0698 122.68 95.1491 123.711L96.9684 127.006H93.3187L92.7529 125.963ZM89.8686 120.561C89.6134 120.75 88.97 121.382 88.97 122.325C88.97 123.124 89.4471 123.767 90.0572 123.767C90.6008 123.767 91.1 123.512 91.3551 123.246L89.8686 120.561ZM89.8021 113.605C89.8021 114.005 89.8908 114.382 90.0905 114.737L90.5897 115.68C90.8227 115.491 91.5326 114.57 91.5326 113.705C91.5326 112.973 91.1333 112.762 90.6562 112.762C90.0794 112.762 89.8021 113.062 89.8021 113.605Z" fill="#A6AFB7"/>
<path d="M102.172 114.972C102.172 114.239 102.172 113.064 101.44 113.064C100.542 113.064 100.52 113.751 100.52 118.466C100.52 123.303 100.586 124.002 101.44 124.002C102.006 124.002 102.239 123.269 102.239 121.195V119.93H105.611V120.962C105.611 124.856 104.336 127.163 101.318 127.163C96.8365 127.163 96.9141 123.746 96.9141 118.466C96.9141 113.352 96.892 110.102 101.34 110.102C105.012 110.102 105.534 112.531 105.534 115.094V116.314H102.172V114.972Z" fill="#A6AFB7"/>
<path d="M113.376 114.339C113.376 113.651 113.165 113.163 112.577 113.163C112.034 113.163 111.701 113.584 111.779 114.25C112.034 117.711 117.037 117.5 117.037 122.237C116.97 126.053 115.506 127.163 112.322 127.163C109.66 127.163 108.406 125.865 108.406 122.259V121.816L111.657 121.838V122.592C111.657 123.413 111.89 124.056 112.533 124.056C113.176 124.056 113.576 123.302 113.454 122.614C113.265 121.394 112.411 120.873 111.901 120.473C110.081 119.22 108.417 117.334 108.417 114.838C108.417 112.431 108.961 111.942 109.76 111.133C110.325 110.545 111.202 110.09 112.544 110.09C116.027 110.09 116.593 112.253 116.593 114.993H113.376V114.339Z" fill="#A6AFB7"/>
<path d="M122.686 124.212H120.356L119.979 127.019H116.352L119.535 110.234H123.618L126.702 127.019H123.096L122.686 124.212ZM121.554 113.795H121.532L120.733 120.607H122.309L121.554 113.795Z" fill="#A6AFB7"/>
<path d="M132.705 124.212H130.375L129.998 127.019H126.359L129.543 110.234H133.625L136.71 127.019H133.104L132.705 124.212ZM131.573 113.795H131.551L130.753 120.607H132.328L131.573 113.795Z" fill="#A6AFB7"/>
<path d="M135.219 110.234H143.45V114.106H141.065V127.019H137.604V114.106H135.219V110.234Z" fill="#A6AFB7"/>
<path d="M148.922 114.972C148.922 114.239 148.922 113.064 148.19 113.064C147.292 113.064 147.27 113.751 147.27 118.466C147.27 123.303 147.336 124.002 148.19 124.002C148.756 124.002 148.989 123.269 148.989 121.195V119.93H152.362V120.962C152.362 124.856 151.086 127.163 148.068 127.163C143.587 127.163 143.664 123.746 143.664 118.466C143.664 113.352 143.642 110.102 148.091 110.102C151.762 110.102 152.284 112.531 152.284 115.094V116.314H148.911V114.972H148.922Z" fill="#A6AFB7"/>
<path d="M158.371 110.234H161.854V127.019H158.371V120.085H156.696V127.019H153.234V110.234H156.696V116.203H158.371V110.234Z" fill="#A6AFB7"/>
<path d="M163.031 110.234H166.925V127.019H163.031V110.234Z" fill="#A6AFB7"/>
<path d="M174.449 118.041H178.687V127.027H176.446V125.829C175.902 127.005 174.727 127.171 173.739 127.171C169.657 127.171 169.734 123.732 169.734 118.496C169.734 113.338 169.923 110.109 174.382 110.109C178.132 110.109 178.576 112.539 178.576 115.101V116.089H175.093V115.368C175.093 114.236 175.048 113.06 174.482 113.06C173.772 113.06 173.684 113.715 173.684 118.463C173.684 123.299 173.828 124.076 174.504 124.076C175.07 124.076 175.325 123.555 175.325 121.391H174.449V118.041Z" fill="#A6AFB7"/>
<path d="M179.754 110.234H184.157C187.363 110.234 188.617 111.455 188.617 115.093C188.617 117.146 188.218 118.388 186.21 118.699C188.262 119.12 188.662 120.463 188.662 122.537V127.019H184.889V122.47C184.889 120.795 184.634 120.274 183.636 120.274H183.514V127.019H179.742V110.234H179.754ZM183.525 113.141V117.334H184.046C184.823 117.334 185.078 116.835 185.078 115.26C185.078 113.607 184.823 113.141 184.046 113.141H183.525Z" fill="#A6AFB7"/>
<path d="M194.082 110.09C197.976 110.09 198.841 111.976 198.841 118.665C198.841 125.332 197.965 127.152 194.082 127.152C190.144 127.152 189.367 125.332 189.367 118.665C189.367 112.009 190.144 110.09 194.082 110.09ZM194.082 124.079C195.002 124.079 194.958 123.158 194.958 118.654C194.958 114.172 195.002 113.185 194.082 113.185C193.161 113.185 193.239 114.172 193.239 118.654C193.228 123.158 193.161 124.079 194.082 124.079Z" fill="#A6AFB7"/>
<path d="M203.561 110.234V122.726C203.561 123.857 203.816 124.112 204.404 124.112C204.97 124.112 205.203 123.857 205.203 122.726V110.234H208.975V121.927C208.975 125.676 207.533 127.163 204.404 127.163C201.265 127.163 199.789 125.676 199.789 121.927V110.234H203.561Z" fill="#A6AFB7"/>
<path d="M210.156 110.234H214.827C218.033 110.234 219.308 111.909 219.308 115.515C219.308 119.287 218.033 120.84 214.716 120.84H213.939V127.019H210.168V110.234H210.156ZM213.928 113.141V118.022H214.472C215.248 118.022 215.504 117.201 215.504 115.615C215.504 113.895 215.248 113.141 214.472 113.141H213.928Z" fill="#A6AFB7"/>
</svg>
