<svg width="292" height="238" viewBox="0 0 292 238" fill="none" xmlns="http://www.w3.org/2000/svg">
<g clip-path="url(#clip0_3492_95878)">
<path d="M134.701 110.679V127.715H131.743V114.346H131.704L126.419 127.715H124.448L119.045 114.346H119.005V127.715H116.284V110.679H120.543L125.433 123.298H125.512L130.678 110.679H134.701V110.679ZM137.146 111.98C137.146 111.507 137.303 111.112 137.658 110.797C138.013 110.481 138.408 110.324 138.881 110.324C139.393 110.324 139.827 110.481 140.143 110.797C140.458 111.112 140.655 111.507 140.655 111.98C140.655 112.453 140.498 112.848 140.143 113.163C139.788 113.479 139.393 113.636 138.881 113.636C138.368 113.636 137.974 113.479 137.658 113.163C137.343 112.808 137.146 112.414 137.146 111.98ZM140.34 115.49V127.715H137.461V115.49H140.34ZM149.055 125.625C149.489 125.625 149.962 125.546 150.475 125.309C150.987 125.112 151.461 124.836 151.894 124.52V127.202C151.421 127.478 150.909 127.675 150.317 127.794C149.726 127.912 149.095 127.991 148.385 127.991C146.571 127.991 145.112 127.439 144.007 126.295C142.864 125.151 142.312 123.692 142.312 121.957C142.312 119.985 142.903 118.369 144.047 117.107C145.19 115.845 146.807 115.214 148.937 115.214C149.489 115.214 150.041 115.293 150.554 115.411C151.106 115.529 151.54 115.726 151.855 115.884V118.645C151.421 118.329 150.948 118.053 150.514 117.895C150.041 117.738 149.568 117.619 149.095 117.619C147.951 117.619 147.044 117.974 146.334 118.723C145.624 119.473 145.309 120.459 145.309 121.721C145.309 122.943 145.664 123.929 146.334 124.599C147.004 125.27 147.911 125.625 149.055 125.625ZM160.058 115.293C160.294 115.293 160.491 115.293 160.688 115.332C160.886 115.371 161.043 115.411 161.162 115.45V118.369C161.004 118.25 160.807 118.132 160.491 118.053C160.176 117.974 159.86 117.895 159.427 117.895C158.717 117.895 158.125 118.211 157.652 118.802C157.179 119.394 156.903 120.301 156.903 121.563V127.715H154.024V115.49H156.903V117.422H156.942C157.218 116.752 157.613 116.239 158.125 115.845C158.677 115.49 159.308 115.293 160.058 115.293ZM161.319 121.799C161.319 119.788 161.911 118.171 163.015 116.988C164.159 115.805 165.736 115.214 167.747 115.214C169.64 115.214 171.139 115.766 172.204 116.909C173.268 118.053 173.82 119.591 173.82 121.523C173.82 123.495 173.229 125.073 172.125 126.256C170.981 127.439 169.443 128.03 167.471 128.03C165.578 128.03 164.08 127.478 162.976 126.374C161.872 125.23 161.319 123.692 161.319 121.799ZM164.317 121.681C164.317 122.943 164.593 123.929 165.184 124.599C165.776 125.27 166.604 125.625 167.669 125.625C168.694 125.625 169.522 125.309 170.074 124.599C170.626 123.929 170.902 122.943 170.902 121.602C170.902 120.301 170.626 119.315 170.074 118.605C169.522 117.935 168.694 117.58 167.708 117.58C166.643 117.58 165.855 117.935 165.263 118.645C164.593 119.394 164.317 120.38 164.317 121.681ZM178.119 118.723C178.119 119.118 178.237 119.473 178.513 119.709C178.789 119.946 179.341 120.222 180.248 120.577C181.392 121.05 182.22 121.563 182.654 122.115C183.127 122.706 183.364 123.377 183.364 124.205C183.364 125.349 182.93 126.256 182.023 126.965C181.155 127.675 179.933 127.991 178.434 127.991C177.922 127.991 177.37 127.912 176.739 127.794C176.108 127.675 175.595 127.518 175.161 127.32V124.481C175.674 124.836 176.265 125.151 176.857 125.349C177.448 125.546 178.001 125.664 178.513 125.664C179.144 125.664 179.657 125.585 179.933 125.388C180.248 125.191 180.406 124.915 180.406 124.481C180.406 124.087 180.248 123.771 179.933 123.456C179.617 123.18 178.986 122.864 178.119 122.509C177.054 122.075 176.305 121.563 175.871 121.011C175.437 120.459 175.201 119.749 175.201 118.881C175.201 117.777 175.634 116.87 176.502 116.16C177.37 115.45 178.513 115.095 179.893 115.095C180.327 115.095 180.8 115.135 181.313 115.253C181.826 115.371 182.299 115.49 182.654 115.608V118.408C182.26 118.171 181.826 117.935 181.313 117.738C180.8 117.54 180.288 117.462 179.815 117.462C179.262 117.462 178.829 117.58 178.553 117.777C178.277 118.053 178.119 118.329 178.119 118.723ZM184.586 121.799C184.586 119.788 185.178 118.171 186.282 116.988C187.426 115.805 189.003 115.214 191.014 115.214C192.907 115.214 194.406 115.766 195.47 116.909C196.535 118.053 197.087 119.591 197.087 121.523C197.087 123.495 196.496 125.073 195.391 126.256C194.248 127.439 192.71 128.03 190.738 128.03C188.845 128.03 187.347 127.478 186.243 126.374C185.178 125.23 184.586 123.692 184.586 121.799ZM187.583 121.681C187.583 122.943 187.859 123.929 188.451 124.599C189.042 125.27 189.871 125.625 190.935 125.625C191.961 125.625 192.789 125.309 193.341 124.599C193.893 123.929 194.169 122.943 194.169 121.602C194.169 120.301 193.893 119.315 193.341 118.605C192.789 117.935 191.961 117.58 190.975 117.58C189.91 117.58 189.121 117.935 188.53 118.645C187.899 119.394 187.583 120.38 187.583 121.681ZM206.67 117.856H202.372V127.715H199.453V117.856H197.403V115.49H199.453V113.794C199.453 112.532 199.887 111.467 200.715 110.639C201.543 109.811 202.608 109.417 203.91 109.417C204.264 109.417 204.58 109.456 204.856 109.456C205.132 109.456 205.369 109.535 205.566 109.614V112.098C205.487 112.059 205.29 111.98 205.053 111.901C204.817 111.822 204.54 111.783 204.225 111.783C203.633 111.783 203.16 111.98 202.845 112.335C202.529 112.69 202.372 113.281 202.372 113.991V115.45H206.67V112.69L209.549 111.822V115.45H212.467V117.816H209.549V123.535C209.549 124.284 209.706 124.796 209.943 125.112C210.219 125.427 210.653 125.585 211.244 125.585C211.402 125.585 211.599 125.546 211.836 125.467C212.073 125.388 212.27 125.309 212.428 125.191V127.557C212.23 127.675 211.954 127.754 211.521 127.833C211.087 127.912 210.692 127.951 210.259 127.951C209.036 127.951 208.129 127.636 207.538 127.005C206.946 126.374 206.631 125.388 206.631 124.087L206.67 117.856Z" fill="#A6AFB7"/>
<path d="M92.8203 105H79.3335V118.487H92.8203V105Z" fill="#A6AFB7"/>
<path d="M107.727 105H94.2401V118.487H107.727V105Z" fill="#A6AFB7"/>
<path d="M92.8203 119.906H79.3335V133.393H92.8203V119.906Z" fill="#A6AFB7"/>
<path d="M107.727 119.906H94.2401V133.393H107.727V119.906Z" fill="#A6AFB7"/>
</g>
<defs>
<clipPath id="clip0_3492_95878">
<rect width="133.133" height="28.3934" fill="white" transform="translate(79.3335 105)"/>
</clipPath>
</defs>
</svg>
