<svg width="292" height="238" viewBox="0 0 292 238" fill="none" xmlns="http://www.w3.org/2000/svg">
<g clip-path="url(#clip0_3492_95833)">
<path d="M94.85 124.405C94.2554 124.943 93.3981 125.124 92.8607 125.192C91.7659 125.329 90.6345 124.965 89.9122 124.095C89.3187 123.384 89.0148 122.463 88.4357 121.727C87.5206 120.562 86.0583 119.798 84.5526 120.067C81.5749 120.608 80.2243 124.079 81.9069 126.487C84.3134 129.929 89.7234 129.334 92.5002 126.949C93.3655 126.208 94.173 125.383 94.85 124.405Z" fill="#A6AFB7"/>
<path d="M195.731 124.404C196.327 124.944 197.182 125.124 197.721 125.192C198.815 125.329 199.948 124.966 200.669 124.095C201.262 123.383 201.568 122.463 202.146 121.726C203.062 120.561 204.524 119.798 206.029 120.068C209.005 120.608 210.356 124.079 208.672 126.488C206.267 129.929 200.857 129.333 198.082 126.949C197.216 126.208 196.407 125.383 195.731 124.404Z" fill="#A6AFB7"/>
<path d="M185.817 106.05C185.742 106.047 178.636 106.047 178.571 106.05C177.792 106.073 177.148 106.794 177.111 107.536C177.071 108.324 177.756 109.106 178.571 109.145C178.646 109.148 185.751 109.148 185.817 109.145C186.596 109.121 187.24 108.401 187.277 107.658C187.317 106.869 186.631 106.088 185.817 106.05Z" fill="#A6AFB7"/>
<path d="M140.56 121.491C140.461 121.08 140.408 120.675 140.38 120.267C140.375 119.678 140.375 118.851 140.375 118.09C140.449 115.46 140.94 110.836 137.374 110.836C134.966 110.836 133.539 112.863 133.135 113.524C133.077 111.677 131.62 110.337 129.394 110.337C127.974 110.337 127.13 111.467 127.13 111.467C127.13 111.467 128.515 111.948 128.515 113.809C128.53 115.143 128.513 121.633 128.515 121.661C128.57 122.812 129.374 123.89 130.811 123.89C132.248 123.89 133.14 122.784 133.14 121.659V115.902C133.341 114.961 133.87 114 134.668 114C135.704 114 135.762 115.152 135.767 115.152L135.762 120.724C135.767 120.905 135.79 121.079 135.821 121.25C135.872 121.541 135.96 121.811 136.086 122.058C136.638 123.181 137.861 123.912 139.503 123.912C140.922 123.912 141.766 122.783 141.766 122.783C141.766 122.783 140.933 122.49 140.56 121.491Z" fill="#A6AFB7"/>
<path d="M174.838 121.491C174.738 121.08 174.683 120.675 174.657 120.267L174.661 106.475C174.661 105.134 173.575 104.046 172.233 104.046C170.891 104.046 169.804 105.134 169.804 106.475L169.808 118.689C169.82 119.789 169.712 120.914 170.231 121.924C170.781 123.047 172.138 123.913 173.778 123.913C175.202 123.913 176.044 122.784 176.044 122.784C176.044 122.784 175.212 122.49 174.838 121.491Z" fill="#A6AFB7"/>
<path d="M120.565 110.715C116.92 110.715 113.966 113.67 113.966 117.315C113.966 120.959 116.921 123.913 120.565 123.913C124.209 123.913 127.165 120.959 127.165 117.315C127.165 113.67 124.209 110.715 120.565 110.715ZM120.614 121.111V121.113C120.608 121.113 120.604 121.112 120.599 121.112C120.594 121.112 120.59 121.113 120.586 121.113V121.111C119.34 121.087 118.715 119.656 118.715 117.315C118.715 114.976 119.507 113.543 120.586 113.517V113.517C120.59 113.517 120.594 113.517 120.599 113.517C120.604 113.517 120.608 113.517 120.614 113.517V113.517C121.691 113.543 122.484 114.976 122.484 117.315C122.483 119.656 121.86 121.087 120.614 121.111Z" fill="#A6AFB7"/>
<path d="M155.404 121.491C155.302 121.08 155.249 120.675 155.223 120.267L155.226 106.475C155.226 105.134 154.139 104.046 152.798 104.046C151.456 104.046 150.369 105.134 150.369 106.475L150.36 113.007C149.775 112.194 148.488 110.82 146.461 110.82C140.883 110.82 140.531 120.752 144.356 123.209C145.434 123.901 147.06 124.079 148.291 123.759C149.14 123.538 150.48 122.703 150.695 121.706C150.726 121.779 150.758 121.852 150.796 121.924C151.347 123.047 152.704 123.913 154.344 123.913C155.767 123.913 156.61 122.784 156.61 122.784C156.61 122.784 155.778 122.49 155.404 121.491ZM148.165 120.688V120.691C148.16 120.691 148.156 120.689 148.152 120.689C148.146 120.689 148.143 120.691 148.137 120.691V120.688C146.891 120.669 146.267 119.421 146.267 117.382C146.267 115.345 147.057 114.097 148.137 114.074V114.073C148.144 114.073 148.146 114.074 148.152 114.074C148.156 114.074 148.16 114.073 148.165 114.073V114.074C149.246 114.098 150.036 115.345 150.036 117.382C150.036 119.42 149.411 120.669 148.165 120.688Z" fill="#A6AFB7"/>
<path d="M168.04 119.83C168.04 119.83 167.328 120.806 164.565 120.806C161.801 120.806 161.208 118.658 161.208 118.658C165.236 118.658 168.613 118.388 168.613 115.128C168.613 111.868 164.928 110.793 162.743 110.793C159.135 110.793 156.499 113.67 156.499 117.467C156.499 121.745 159.932 123.913 162.782 123.913C167.799 123.913 168.04 119.83 168.04 119.83ZM160.947 116.566C161.088 115.525 161.338 114.213 162.273 113.606C163.051 113.101 164.14 113.677 164.156 114.648C164.174 115.675 163.509 116.375 162.586 116.569C162.488 116.59 160.934 116.668 160.947 116.566Z" fill="#A6AFB7"/>
<path d="M187.471 119.83C187.471 119.83 186.759 120.806 183.995 120.806C181.231 120.806 180.639 118.658 180.639 118.658C184.666 118.658 188.044 118.388 188.044 115.128C188.044 111.868 184.359 110.793 182.173 110.793C178.566 110.793 175.93 113.67 175.93 117.467C175.93 121.745 179.362 123.913 182.212 123.913C187.23 123.913 187.471 119.83 187.471 119.83ZM180.378 116.566C180.52 115.525 180.769 114.213 181.704 113.606C182.482 113.101 183.571 113.677 183.588 114.648C183.605 115.675 182.94 116.375 182.017 116.569C181.919 116.59 180.364 116.668 180.378 116.566Z" fill="#A6AFB7"/>
<path d="M196.583 120.183H193.816C194.019 120.183 196.066 118.456 196.745 117.882C198.523 116.373 201.72 114.196 200.788 111.376L200.79 111.396C200.619 110.725 200.102 110.338 200.102 110.338C200.102 110.338 199.909 110.886 199.252 111.131C198.983 111.196 198.714 111.245 198.447 111.261C198.226 111.265 190.712 111.261 190.712 111.261C189.696 111.26 188.844 112.077 188.83 113.041C188.818 114.014 189.622 114.794 190.652 114.807L195.036 114.835C193.003 115.968 190.577 117.31 189.345 119.359C188.642 120.535 187.888 122.348 188.175 123.739C189.148 122.876 191.704 122.041 193.65 122.446C194.378 122.599 195.152 122.97 195.783 123.364C199.431 125.647 201.624 121.183 199.879 119.215C199.879 119.215 198.884 120.183 196.583 120.183Z" fill="#A6AFB7"/>
<path d="M114.323 122.959C112.085 120.505 111.385 116.423 111.247 113.711C111.128 111.368 111.255 107.309 113.102 106.128C112.483 105.351 111.264 105.038 110.337 105.038C108.255 105.038 107.251 106.425 106.54 107.422C106.304 107.752 102.803 112.582 102.803 112.582C102.803 112.582 99.8579 108.026 99.4962 107.478C98.996 106.724 98.0597 105.335 96.4138 105.095C95.7053 104.992 93.8659 104.898 92.865 106.271C94.5905 107.652 94.547 111.167 94.1727 113.567C93.0492 120.771 89.9834 121.433 89.9834 121.433C91.5533 125.674 95.5971 123.998 96.74 120.618C97.48 118.42 97.9573 115.638 98.0678 113.332L102.505 120.139C102.505 120.139 107.53 113.353 107.53 113.359C106.702 125.36 110.824 128.762 114.428 128.762C118.035 128.762 119.262 125.463 119.262 125.463C117.312 125.346 115.605 124.365 114.323 122.959Z" fill="#A6AFB7"/>
<path d="M125.579 126.863C125.623 127.039 125.645 127.212 125.656 127.387C125.656 127.44 125.654 133.665 125.656 133.74C125.672 134.263 126.156 134.694 126.653 134.719C127.182 134.746 127.706 134.286 127.733 133.74C127.734 133.668 127.733 128.062 127.733 128.062C127.728 127.591 127.773 127.11 127.552 126.678C127.316 126.197 126.735 125.826 126.034 125.826C125.424 125.826 125.064 126.31 125.064 126.31C125.064 126.31 125.418 126.435 125.579 126.863Z" fill="#A6AFB7"/>
<path d="M191.392 133.682C191.349 133.507 191.326 133.334 191.315 133.159C191.315 133.106 191.318 126.881 191.316 126.806C191.299 126.284 190.816 125.852 190.318 125.827C189.789 125.8 189.266 126.26 189.239 126.806C189.237 126.877 189.239 132.484 189.239 132.484C189.243 132.955 189.198 133.435 189.42 133.869C189.655 134.349 190.236 134.719 190.938 134.719C191.547 134.719 191.907 134.235 191.907 134.235C191.907 134.235 191.553 134.11 191.392 133.682Z" fill="#A6AFB7"/>
<path d="M153.829 129.049C152.749 129.049 152.11 129.957 151.929 130.253L151.923 130.258C151.923 129.958 151.922 129.72 151.922 129.708C151.907 129.185 151.422 128.794 150.925 128.77C150.397 128.743 149.873 129.163 149.846 129.708C149.845 129.779 149.845 133.682 149.846 133.735C149.862 134.257 150.346 134.689 150.843 134.714C151.372 134.739 151.895 134.28 151.922 133.735C151.923 133.695 151.924 132.421 151.923 131.323L151.932 131.318C152.021 130.896 152.259 130.466 152.616 130.466C153.08 130.466 153.106 130.982 153.108 130.982L153.103 133.735C153.119 134.257 153.603 134.689 154.1 134.714C154.629 134.739 155.152 134.28 155.179 133.735L155.176 132.296C155.176 130.817 155.331 129.042 153.829 129.049Z" fill="#A6AFB7"/>
<path d="M180.362 129.049C179.283 129.049 178.643 129.957 178.463 130.253L178.457 130.258C178.457 129.958 178.456 129.72 178.456 129.708C178.44 129.185 177.956 128.794 177.459 128.77C176.93 128.743 176.406 129.163 176.38 129.708C176.378 129.779 176.378 133.682 176.38 133.735C176.396 134.257 176.879 134.689 177.377 134.714C177.906 134.739 178.429 134.28 178.456 133.735C178.457 133.695 178.457 132.421 178.457 131.323L178.466 131.318C178.555 130.896 178.792 130.466 179.15 130.466C179.614 130.466 179.639 130.982 179.641 130.982L179.637 133.735C179.652 134.257 180.136 134.689 180.634 134.714C181.163 134.739 181.686 134.28 181.712 133.735L181.709 132.296C181.71 130.817 181.864 129.042 180.362 129.049Z" fill="#A6AFB7"/>
<path d="M132.753 129.049C131.674 129.049 131.035 129.957 130.854 130.253L130.848 130.258C130.848 129.958 130.847 129.72 130.847 129.708C130.831 129.185 130.347 128.794 129.85 128.77C129.322 128.743 128.798 129.163 128.771 129.708C128.77 129.779 128.77 133.682 128.771 133.735C128.787 134.257 129.271 134.689 129.768 134.714C130.296 134.739 130.82 134.28 130.847 133.735C130.848 133.695 130.849 132.421 130.848 131.323L130.857 131.318C130.946 130.896 131.183 130.466 131.541 130.466C132.005 130.466 132.03 130.982 132.033 130.982L132.028 133.735C132.044 134.257 132.528 134.689 133.025 134.714C133.553 134.739 134.077 134.28 134.104 133.735L134.101 132.296C134.101 130.817 134.255 129.042 132.753 129.049Z" fill="#A6AFB7"/>
<path d="M172.838 128.788C171.205 128.788 169.882 130.111 169.882 131.744C169.882 133.377 171.205 134.701 172.838 134.701C174.471 134.701 175.795 133.377 175.795 131.744C175.795 130.111 174.47 128.788 172.838 128.788ZM172.859 133.446V133.447C172.857 133.447 172.855 133.447 172.852 133.447C172.85 133.447 172.848 133.447 172.847 133.447V133.446C172.288 133.434 172.008 132.794 172.008 131.744C172.008 130.697 172.363 130.055 172.847 130.044V130.043C172.848 130.043 172.85 130.043 172.852 130.044C172.855 130.043 172.857 130.043 172.859 130.043V130.044C173.342 130.055 173.697 130.697 173.697 131.744C173.697 132.794 173.417 133.434 172.859 133.446Z" fill="#A6AFB7"/>
<path d="M161.797 129.637C161.78 129.089 161.265 128.637 160.745 128.611C160.19 128.584 159.641 129.065 159.614 129.637C159.613 129.676 159.609 129.762 159.609 129.776C159.346 129.412 158.77 128.796 157.861 128.796C155.362 128.796 155.203 133.246 156.918 134.347C157.401 134.658 158.13 134.737 158.681 134.594C158.993 134.512 159.452 134.247 159.661 133.907C159.789 134.345 160.222 134.677 160.667 134.699C161.221 134.727 161.769 134.246 161.797 133.674C161.8 133.6 161.799 129.687 161.797 129.637ZM158.625 133.218C158.624 133.219 158.621 133.218 158.62 133.218C158.617 133.218 158.615 133.219 158.613 133.219V133.218C158.054 133.209 157.775 132.649 157.775 131.736C157.775 130.824 158.129 130.265 158.613 130.254V130.253C158.615 130.253 158.617 130.254 158.62 130.254C158.621 130.254 158.624 130.253 158.625 130.253V130.254C159.109 130.265 159.464 130.824 159.464 131.736C159.464 132.649 159.183 133.21 158.625 133.218Z" fill="#A6AFB7"/>
<path d="M188.309 129.637C188.293 129.089 187.778 128.637 187.256 128.611C186.702 128.584 186.154 129.065 186.127 129.637C186.125 129.676 186.12 129.762 186.12 129.776C185.858 129.412 185.281 128.796 184.374 128.796C181.874 128.796 181.715 133.246 183.43 134.347C183.914 134.658 184.642 134.737 185.193 134.594C185.505 134.512 185.965 134.247 186.173 133.907C186.301 134.345 186.734 134.677 187.178 134.699C187.733 134.727 188.281 134.246 188.309 133.674C188.311 133.6 188.31 129.687 188.309 129.637ZM185.138 133.218C185.135 133.219 185.134 133.218 185.132 133.218C185.129 133.218 185.128 133.219 185.125 133.219V133.218C184.566 133.209 184.287 132.649 184.287 131.736C184.287 130.824 184.641 130.265 185.125 130.254V130.253C185.128 130.253 185.129 130.254 185.132 130.254C185.134 130.254 185.135 130.253 185.138 130.253V130.254C185.622 130.265 185.976 130.824 185.976 131.736C185.976 132.649 185.696 133.21 185.138 133.218Z" fill="#A6AFB7"/>
<path d="M169.23 130.194C169.205 129.679 168.8 129.274 168.289 129.23C168.258 129.227 168.23 129.221 168.201 129.221C167.738 129.221 167.157 129.621 167.157 130.126L167.16 132.04H167.157C167.164 132.637 167.156 133.716 167.157 133.728C167.182 134.243 167.587 134.647 168.098 134.691C168.128 134.695 168.157 134.7 168.186 134.7C168.648 134.7 169.23 134.302 169.23 133.796L169.227 132.197H169.23C169.223 131.599 169.231 130.206 169.23 130.194Z" fill="#A6AFB7"/>
<path d="M169.222 127.605C169.222 128.173 168.761 128.634 168.193 128.634C167.624 128.634 167.164 128.173 167.164 127.605C167.164 127.036 167.624 126.576 168.193 126.576C168.761 126.576 169.222 127.036 169.222 127.605Z" fill="#A6AFB7"/>
<path d="M148.193 128.977C147.577 129.002 147.273 129.462 146.852 130.038C146.85 130.042 146.853 129.772 146.852 129.761C146.837 129.239 146.354 128.807 145.857 128.783C145.327 128.756 144.804 129.216 144.777 129.761V131.254V133.747H144.776C144.792 134.27 145.275 134.702 145.772 134.726C146.296 134.752 146.814 134.301 146.849 133.762H146.854L146.853 131.237C146.885 130.867 147.046 130.405 147.343 130.407C147.765 130.41 147.33 131.429 148.296 131.429C149.683 131.43 149.831 128.909 148.193 128.977Z" fill="#A6AFB7"/>
<path d="M143.961 132.869C143.961 132.869 143.641 133.306 142.401 133.306C141.162 133.306 140.895 132.343 140.895 132.343C142.702 132.343 144.218 132.221 144.218 130.759C144.218 129.296 142.565 128.814 141.585 128.814C139.966 128.814 138.783 130.105 138.783 131.809C138.783 133.727 140.323 134.7 141.601 134.7C143.853 134.7 143.961 132.869 143.961 132.869ZM140.778 131.404C140.841 130.937 140.954 130.349 141.375 130.076C141.723 129.85 142.211 130.108 142.219 130.543C142.227 131.005 141.929 131.318 141.515 131.405C141.47 131.416 140.772 131.45 140.778 131.404Z" fill="#A6AFB7"/>
<path d="M138.658 133.609C138.658 133.609 138.118 134.7 137.121 134.7C136.3 134.7 135.289 133.975 135.247 132.925C135.247 132.916 135.241 131.405 135.237 130.143H134.959C134.813 130.143 134.555 130.056 134.555 129.677C134.555 129.297 134.845 129.217 134.989 129.217H135.235C135.234 128.775 135.233 128.472 135.235 128.453C135.26 127.909 135.783 127.451 136.31 127.477C136.807 127.502 137.302 127.932 137.318 128.453V128.458V129.217H138.196C138.318 129.217 138.6 129.296 138.6 129.683C138.6 130.069 138.318 130.143 138.166 130.143H137.318V132.462C137.318 133.214 137.966 133.605 138.661 133.607" fill="#A6AFB7"/>
<path d="M166.429 133.609C166.429 133.609 165.889 134.7 164.891 134.7C164.07 134.7 163.06 133.975 163.018 132.925C163.017 132.916 163.012 131.405 163.008 130.143H162.729C162.583 130.143 162.326 130.056 162.326 129.677C162.326 129.297 162.616 129.217 162.759 129.217H163.006C163.005 128.775 163.004 128.472 163.005 128.453C163.031 127.909 163.554 127.451 164.081 127.477C164.577 127.502 165.071 127.932 165.088 128.453V128.458V129.217H165.967C166.088 129.217 166.37 129.296 166.37 129.683C166.37 130.069 166.088 130.143 165.935 130.143H165.088V132.462C165.088 133.214 165.736 133.605 166.432 133.607" fill="#A6AFB7"/>
</g>
<defs>
<clipPath id="clip0_3492_95833">
<rect width="128.768" height="30.9042" fill="white" transform="translate(81.0001 104)"/>
</clipPath>
</defs>
</svg>
