<svg width="292" height="238" viewBox="0 0 292 238" fill="none" xmlns="http://www.w3.org/2000/svg">
<g clip-path="url(#clip0_3492_95703)">
<path d="M215.197 136.42C215.197 139.459 216.981 141.017 219.152 141.017C221.322 141.017 223.099 139.459 223.099 136.42C223.099 133.461 221.322 131.903 219.152 131.903C216.981 131.903 215.197 133.461 215.197 136.42ZM224.732 140.783H226.592V142.341H223.099V140.627C222.407 141.717 220.857 142.575 218.997 142.575C215.662 142.575 213.492 139.926 213.492 136.42C213.492 132.916 215.662 130.267 218.997 130.267C220.774 130.267 222.252 131.047 223.027 132.215V127.386L221.167 127.386V125.828H224.732V140.783Z" fill="#A6AFB7"/>
<path d="M208.057 140.783H209.917V142.341L204.414 142.341V140.783H206.274V132.059H204.414V130.579H207.901V132.215C208.599 130.969 210.305 129.801 212.63 130.579V132.293C209.84 131.514 208.057 132.994 208.057 135.72V140.783Z" fill="#A6AFB7"/>
<path d="M158.145 100.59C155.044 101.757 152.951 103.784 152.951 103.784C152.878 102.771 152.641 101.757 152.331 100.979C152.331 100.979 153.343 99.0318 156.285 97.0066C159.463 94.826 163.105 94.2031 163.105 94.2031C163.881 95.8378 164.424 97.5517 164.656 99.3431C164.656 99.3431 162.02 99.1097 158.145 100.59Z" fill="#A6AFB7"/>
<path d="M155.9 94.1385C152.882 97.0977 151.797 100.058 151.797 100.058C151.249 99.1228 150.557 98.3443 149.627 97.7205C149.627 97.7205 150.784 94.2163 152.572 91.6454C154.349 88.9975 157.296 86.8945 157.296 86.8945C158.769 87.9844 160.009 89.3089 161.094 90.7112C161.094 90.7112 158.149 92.0346 155.9 94.1385H155.9Z" fill="#A6AFB7"/>
<path d="M150.632 90.466C149.237 93.9702 148.927 97.3197 148.927 97.3197C147.997 96.8526 146.84 96.4634 145.827 96.3855C145.827 96.3855 145.755 93.0361 146.53 89.5309C147.377 85.4807 148.307 83.0664 148.307 83.0664C150.095 83.2221 151.8 83.767 153.422 84.4687C153.422 84.4687 151.562 88.0507 150.632 90.466Z" fill="#A6AFB7"/>
<path d="M155.582 112.441C151.789 110.65 147.986 111.039 147.986 111.039C149.381 110.494 150.549 109.637 151.396 108.547C151.396 108.547 154.733 108.157 157.288 108.624C161.24 109.481 162.945 110.805 162.945 110.805C162.17 112.441 161.163 113.999 159.923 115.323C159.923 115.323 158.373 113.766 155.582 112.441Z" fill="#A6AFB7"/>
<path d="M158.465 106.747C154.665 106.592 152.03 107.605 152.03 107.605C152.495 106.747 152.805 105.735 152.888 104.722C152.888 104.722 155.984 103.009 158.775 102.619C162.65 102.074 164.898 102.853 164.898 102.853C164.821 104.644 164.588 106.436 164.046 108.15C164.046 108.15 161.565 106.903 158.465 106.747Z" fill="#A6AFB7"/>
<path d="M132.722 100.59C135.823 101.757 137.916 103.784 137.916 103.784C137.989 102.771 138.226 101.757 138.536 100.979C138.536 100.979 137.524 99.0318 134.582 97.0066C131.404 94.826 127.762 94.2031 127.762 94.2031C126.986 95.8378 126.443 97.5517 126.211 99.3431C126.211 99.3431 128.847 99.1097 132.722 100.59Z" fill="#A6AFB7"/>
<path d="M134.967 94.1385C137.985 97.0977 139.07 100.058 139.07 100.058C139.618 99.1228 140.31 98.3443 141.24 97.7205C141.24 97.7205 140.083 94.2163 138.295 91.6454C136.518 88.9975 133.571 86.8945 133.571 86.8945C132.098 87.9844 130.859 89.3089 129.773 90.7112C129.773 90.7112 132.718 92.0346 134.967 94.1385H134.967Z" fill="#A6AFB7"/>
<path d="M140.235 90.466C141.63 93.9702 141.94 97.3197 141.94 97.3197C142.87 96.8526 144.028 96.4634 145.04 96.3855C145.04 96.3855 145.113 93.0361 144.338 89.5309C143.49 85.4807 142.56 83.0664 142.56 83.0664C140.773 83.2221 139.068 83.767 137.445 84.4687C137.445 84.4687 139.305 88.0507 140.235 90.466Z" fill="#A6AFB7"/>
<path d="M135.285 112.441C139.079 110.65 142.881 111.039 142.881 111.039C141.486 110.494 140.319 109.638 139.471 108.547C139.471 108.547 136.134 108.158 133.579 108.625C129.627 109.481 127.922 110.805 127.922 110.805C128.697 112.441 129.704 113.999 130.944 115.324C130.944 115.324 132.494 113.766 135.285 112.441Z" fill="#A6AFB7"/>
<path d="M132.41 106.747C136.21 106.592 138.845 107.605 138.845 107.605C138.38 106.747 138.07 105.735 137.987 104.722C137.987 104.722 134.891 103.009 132.1 102.619C128.225 102.074 125.977 102.853 125.977 102.853C126.054 104.644 126.287 106.436 126.829 108.15C126.829 108.15 129.31 106.903 132.41 106.747Z" fill="#A6AFB7"/>
<path d="M145.427 115.399C150.935 115.399 153.342 120.15 153.342 120.15C155.047 119.371 156.597 118.436 158.064 117.189C158.064 117.189 153.414 111.348 145.427 111.348C137.522 111.348 132.875 117.189 132.875 117.189C134.27 118.436 135.899 119.371 137.604 120.15C137.604 120.15 140.002 115.399 145.427 115.399H145.427Z" fill="#A6AFB7"/>
<path d="M68.5401 127.55V134.56H71.4075C74.5084 134.56 75.9035 133.314 75.9035 131.055C75.9034 128.797 74.586 127.55 71.4075 127.55L68.5401 127.55ZM68.5401 140.713H70.5551V142.349H64.6641V140.713H66.6791L66.6791 127.472H64.6641V125.914L71.4075 125.914C75.1284 125.914 77.6859 127.55 77.6859 131.055C77.6859 134.56 75.1284 136.195 71.4075 136.195H68.54L68.5401 140.713Z" fill="#A6AFB7"/>
<path d="M88.5334 135.8C88.5334 133.619 86.906 131.905 84.6586 131.905C82.4111 131.905 80.7826 133.619 80.7826 135.8H88.5334ZM89.9295 138.994C89.387 141.019 87.5259 142.577 84.6585 142.577C81.1699 142.577 79 140.396 79 136.423C79 132.685 81.2474 130.27 84.6585 130.27C88.3784 130.27 90.7043 133.152 90.2394 137.358L80.7825 137.358C80.9375 139.149 82.1785 141.019 84.6585 141.019C86.2859 141.019 87.4484 140.317 88.0684 138.994L89.9295 138.994Z" fill="#A6AFB7"/>
<path d="M96.2909 140.787H98.1518V142.345L92.6484 142.345V140.787H94.5084V132.063H92.6484V130.583H96.1359V132.219C96.8334 130.973 98.5394 129.805 100.864 130.583V132.297C98.0745 131.518 96.2909 132.998 96.2909 135.724V140.787Z" fill="#A6AFB7"/>
<path d="M114.498 140.785H116.358L116.358 142.343H110.932V140.785H112.793L112.793 135.8C112.793 133.074 111.165 131.906 109.305 131.906C107.522 131.906 105.972 133.152 105.972 135.956V140.785H107.832V142.343H102.406V140.785H104.266V132.061H102.406V130.581L105.895 130.581V132.217C106.515 131.283 107.832 130.348 109.692 130.348C112.251 130.348 114.498 131.828 114.498 135.8V140.785Z" fill="#A6AFB7"/>
<path d="M123.658 141.019C125.983 141.019 127.612 139.383 127.612 136.423C127.612 133.463 125.983 131.905 123.658 131.905C121.411 131.905 119.706 133.463 119.706 136.423C119.706 139.383 121.411 141.019 123.659 141.019H123.658ZM123.658 130.27C127.302 130.27 129.394 132.918 129.394 136.423C129.394 140.006 127.302 142.577 123.658 142.577C120.094 142.577 118 140.006 118 136.423C118 132.918 120.094 130.27 123.658 130.27Z" fill="#A6AFB7"/>
<path d="M133.182 136.424C133.182 139.462 134.965 141.02 137.136 141.02C139.306 141.02 141.083 139.462 141.083 136.424C141.083 133.465 139.306 131.907 137.136 131.907C134.965 131.907 133.182 133.465 133.182 136.424ZM142.716 140.787H144.576V142.345H141.083V140.631C140.391 141.721 138.841 142.578 136.981 142.578C133.647 142.578 131.477 139.93 131.477 136.424C131.477 132.92 133.646 130.271 136.981 130.271C138.758 130.271 140.236 131.051 141.011 132.219V127.39L139.151 127.39V125.832H142.716V140.787Z" fill="#A6AFB7"/>
<path d="M156.281 127.55V133.625H160.074C162.554 133.625 163.566 132.456 163.566 130.587C163.566 128.796 162.554 127.55 160.074 127.55H156.281ZM152.406 125.836H160.074C163.174 125.836 165.426 127.55 165.426 130.587C165.426 133.236 163.794 134.794 161.396 135.261L164.031 140.713H166.201V142.349H162.791L159.381 135.338H156.281V140.713H158.059V142.349L152.406 142.349V140.713H154.421L154.421 127.472H152.406L152.406 125.836Z" fill="#A6AFB7"/>
<path d="M169.994 128.087H171.937V125.828H169.994V128.087ZM171.937 140.783H173.797V142.341H168.289V140.783H170.149V132.059H168.289V130.579H171.937V140.783Z" fill="#A6AFB7"/>
<path d="M186.747 138.058C186.127 140.707 184.339 142.577 181.084 142.577C177.519 142.577 175.422 140.006 175.422 136.423C175.422 132.918 177.519 130.27 181.084 130.27C182.789 130.27 184.339 131.127 185.042 132.217V130.581H186.664V134.866H184.804C184.267 133.23 183.172 131.905 181.084 131.905C178.832 131.905 177.127 133.463 177.127 136.423C177.127 139.383 178.832 141.019 181.084 141.019C183.099 141.019 184.422 139.772 184.959 138.058H186.747Z" fill="#A6AFB7"/>
<path d="M190.624 136.423C190.624 139.461 192.329 141.019 194.498 141.019C196.668 141.019 198.446 139.461 198.446 136.423C198.446 133.463 196.669 131.905 194.498 131.905C192.329 131.905 190.624 133.463 190.624 136.423ZM198.374 130.581L201.938 130.581V132.061H200.078V140.785H201.938V142.343H198.374V140.629C197.671 141.797 196.121 142.577 194.344 142.577C191.006 142.577 188.836 139.928 188.836 136.423C188.836 132.918 191.006 130.27 194.343 130.27C196.121 130.27 197.671 131.049 198.373 132.217L198.374 130.581Z" fill="#A6AFB7"/>
</g>
<defs>
<clipPath id="clip0_3492_95703">
<rect width="162" height="59.6426" fill="white" transform="translate(64.6641 83)"/>
</clipPath>
</defs>
</svg>
