<svg width="292" height="238" viewBox="0 0 292 238" fill="none" xmlns="http://www.w3.org/2000/svg">
<g clip-path="url(#clip0_3492_95799)">
<path d="M141.319 128.208C141.319 130.404 140.459 131.651 136.192 131.651C135.631 131.651 135.144 131.617 134.658 131.55V102.507C134.658 100.303 135.405 98 139.71 98C140.273 98 140.796 98.0495 141.319 98.1685V128.208ZM132.187 123.81C132.187 127.893 129.529 130.88 124.138 131.465C120.208 131.887 114.518 131.393 111.824 131.086C111.711 130.644 111.636 130.095 111.636 129.653C111.636 126.086 113.545 125.261 115.38 125.261C117.251 125.261 120.208 125.602 122.418 125.602C124.812 125.602 125.561 124.786 125.561 124.001C125.561 122.974 124.588 122.548 122.717 122.193L117.55 121.2C113.283 120.378 111 117.427 111 114.287C111 110.458 113.695 107.261 119.011 106.681C123.016 106.239 127.92 106.732 130.615 107.059C130.726 107.519 130.764 107.965 130.764 108.425C130.764 111.996 128.893 112.767 127.057 112.767C125.712 112.767 123.54 112.51 121.07 112.51C118.561 112.51 117.513 113.205 117.513 114.044C117.513 114.934 118.523 115.29 120.059 115.578L125 116.483C130.016 117.405 132.187 120.277 132.187 123.81ZM159.212 139.45C159.775 139.745 160.897 140.082 162.357 140.12C164.827 140.167 166.175 139.232 167.185 136.994L180.512 107.295C179.988 107.006 178.752 106.677 177.741 106.665C176.056 106.627 173.736 106.968 172.277 110.468L167.972 120.647L159.511 106.883C158.95 106.714 157.64 106.479 156.667 106.479C153.673 106.479 151.988 107.571 150.266 109.448L142.069 118.449L148.656 128.845C149.893 130.745 151.502 131.714 154.085 131.714C155.807 131.714 157.228 131.322 157.902 130.997L149.966 119.006L155.581 113.015L164.827 127.548" fill="#A6AFB7"/>
</g>
<defs>
<clipPath id="clip0_3492_95799">
<rect width="69.5118" height="42.1214" fill="white" transform="translate(111 98)"/>
</clipPath>
</defs>
</svg>
