<svg width="292" height="238" viewBox="0 0 292 238" fill="none" xmlns="http://www.w3.org/2000/svg">
<g clip-path="url(#clip0_3492_95766)">
<path d="M215.086 123.246C215.086 125.502 214.451 126.187 212.664 126.711C210.718 127.315 207.303 127.678 205.278 127.678C202.856 127.678 199.878 127.517 197.297 126.912V124.294H211.433V120.749H201.427C198.409 120.749 197.297 119.903 197.297 116.922V115.351C197.297 113.014 197.972 112.289 199.878 111.806C201.784 111.322 204.881 111 206.906 111C209.368 111 212.307 111.201 214.888 111.765V114.384H200.99V117.405H210.957C213.975 117.405 215.086 118.211 215.086 121.192V123.246Z" fill="#A6AFB7"/>
<path d="M190.624 126.912C187.732 127.517 184.841 127.678 182.027 127.678C179.213 127.678 176.243 127.517 173.391 126.912V111.765C176.282 111.161 179.174 111 181.988 111C184.802 111 187.654 111.201 190.546 111.765V114.464H177.533V117.486H186.013V120.628H177.533V124.213H190.624V126.912Z" fill="#A6AFB7"/>
<path d="M168.394 126.365C165.793 126.962 163.153 127.122 160.631 127.122C158.109 127.122 155.429 126.962 152.828 126.365V111H157.005V123.499H168.394V126.365Z" fill="#A6AFB7"/>
<path d="M147.823 126.56C146.445 126.961 144.595 127.122 143.218 127.122L136.763 113.887H136.409L129.955 127.122C128.577 127.082 126.963 126.961 125.586 126.56L133.733 111H139.558L147.823 126.56Z" fill="#A6AFB7"/>
<path d="M120.581 127.067C119.231 127.474 117.801 127.596 116.372 127.637V120.803H105.889V127.678C104.459 127.637 103.03 127.515 101.68 127.108V111.569C103.03 111.163 104.459 111.041 105.889 111V117.63H116.372V111C117.801 111.041 119.231 111.163 120.581 111.569V127.067Z" fill="#A6AFB7"/>
<path d="M95.5654 114.463H88.2105V127.122H84.019V114.463H76.6641V111.756C79.8275 111.159 83.0304 111 86.1147 111C89.199 111 92.402 111.199 95.5654 111.756V114.463Z" fill="#A6AFB7"/>
<path d="M215.086 123.246C215.086 125.502 214.451 126.187 212.664 126.711C210.718 127.315 207.303 127.678 205.278 127.678C202.856 127.678 199.878 127.517 197.297 126.912V124.294H211.433V120.749H201.427C198.409 120.749 197.297 119.903 197.297 116.922V115.351C197.297 113.014 197.972 112.289 199.878 111.806C201.784 111.322 204.881 111 206.906 111C209.368 111 212.307 111.201 214.888 111.765V114.384H200.99V117.405H210.957C213.975 117.405 215.086 118.211 215.086 121.192V123.246Z" fill="#A6AFB7"/>
<path d="M190.624 126.912C187.732 127.517 184.841 127.678 182.027 127.678C179.213 127.678 176.243 127.517 173.391 126.912V111.765C176.282 111.161 179.174 111 181.988 111C184.802 111 187.654 111.201 190.546 111.765V114.464H177.533V117.486H186.013V120.628H177.533V124.213H190.624V126.912Z" fill="#A6AFB7"/>
<path d="M168.394 126.365C165.793 126.962 163.153 127.122 160.631 127.122C158.109 127.122 155.429 126.962 152.828 126.365V111H157.005V123.499H168.394V126.365Z" fill="#A6AFB7"/>
<path d="M147.823 126.56C146.445 126.961 144.595 127.122 143.218 127.122L136.763 113.887H136.409L129.955 127.122C128.577 127.082 126.963 126.961 125.586 126.56L133.733 111H139.558L147.823 126.56Z" fill="#A6AFB7"/>
<path d="M139.481 122.674C139.481 124.205 138.232 125.454 136.701 125.454C135.171 125.454 133.922 124.205 133.922 122.674C133.922 121.143 135.171 119.895 136.701 119.895C138.232 119.935 139.481 121.143 139.481 122.674Z" fill="#A6AFB7"/>
<path d="M120.581 127.067C119.231 127.474 117.801 127.596 116.372 127.637V120.803H105.889V127.678C104.459 127.637 103.03 127.515 101.68 127.108V111.569C103.03 111.163 104.459 111.041 105.889 111V117.63H116.372V111C117.801 111.041 119.231 111.163 120.581 111.569V127.067Z" fill="#A6AFB7"/>
<path d="M95.5654 114.463H88.2105V127.122H84.019V114.463H76.6641V111.756C79.8275 111.159 83.0304 111 86.1147 111C89.199 111 92.402 111.199 95.5654 111.756V114.463Z" fill="#A6AFB7"/>
</g>
<defs>
<clipPath id="clip0_3492_95766">
<rect width="138.424" height="16.6776" fill="white" transform="translate(76.6641 111)"/>
</clipPath>
</defs>
</svg>
