<svg width="292" height="238" viewBox="0 0 292 238" fill="none" xmlns="http://www.w3.org/2000/svg">
<path d="M199.512 120.696C201.859 119.934 203.386 117.32 203.716 115.707L203.755 115.514L203.793 115.32L203.463 115.53C202.007 116.458 199.743 119.271 199.304 120.475L199.188 120.795L199.512 120.696ZM199.93 108.812L199.913 109.177C199.864 110.381 200.782 112.967 201.474 113.945L201.661 114.204L201.765 113.9C201.881 113.569 201.947 113.254 201.963 112.961C202.09 111.044 200.639 109.492 200.194 109.061L200.062 108.934L199.93 108.812ZM200.084 112.414L199.985 112.271L199.886 112.127L199.787 112.464C199.699 112.768 199.644 113.215 199.633 113.757C199.595 115.287 199.848 117.226 200.161 117.823L200.287 118.066L200.441 117.84C200.903 117.16 201.144 116.431 201.161 115.663C201.188 114.63 200.815 113.508 200.084 112.414ZM199.49 118.039C199.507 117.381 199.408 116.69 199.188 115.983L199.139 115.829L199.089 115.674L198.897 115.928C198.194 116.862 197.298 119.906 197.265 121.116L197.281 121.342L197.325 121.63L197.54 121.492C198.787 120.696 199.446 119.53 199.49 118.039ZM201.513 120.702L201.6 120.547L201.688 120.392L201.342 120.447C200.056 120.657 196.424 122.718 195.869 123.552L195.726 123.762L195.973 123.806C198.974 124.342 200.573 122.293 201.513 120.702ZM197.051 119.663L197.078 119.503L197.105 119.342L196.814 119.492C195.847 120.16 193.072 122.541 192.869 123.359L192.819 123.547L193.012 123.563C196.039 123.823 196.77 121.458 197.051 119.663ZM178.312 124.585L177.84 124.713L178.29 124.9C180.192 125.685 182.576 125.911 183.956 125.447C184.478 125.271 184.791 124.989 185.181 124.602C185.83 124.668 186.467 124.873 187.082 125.155C186.527 125.464 184.785 126.508 183.61 128.055L183.522 128.166L183.615 128.271C183.708 128.375 183.939 128.552 184.088 128.602L184.192 128.635L184.263 128.552C185.11 127.497 186.335 126.298 187.742 125.492C189.149 126.298 190.374 127.497 191.215 128.552L191.286 128.635L191.391 128.602C191.539 128.552 191.77 128.37 191.863 128.271L191.962 128.166L191.874 128.055C190.698 126.508 188.962 125.464 188.407 125.155C189.017 124.873 189.654 124.674 190.308 124.602C190.693 124.983 191.006 125.271 191.528 125.447C192.907 125.917 195.292 125.685 197.193 124.9L197.644 124.718L197.177 124.591C193.006 123.453 189.753 124.005 187.742 124.845C185.736 123.994 182.478 123.447 178.312 124.585ZM182.478 123.563L182.67 123.547L182.62 123.359C182.417 122.536 179.642 120.16 178.675 119.492L178.384 119.342L178.406 119.503L178.433 119.663C178.724 121.458 179.455 123.823 182.478 123.563ZM174.147 120.453L173.795 120.398L173.883 120.552L173.977 120.707C174.916 122.298 176.515 124.348 179.51 123.818L179.757 123.773L179.62 123.558C179.06 122.724 175.427 120.663 174.147 120.453ZM178.164 121.635L178.213 121.348L178.23 121.116C178.191 119.906 177.301 116.862 176.598 115.928L176.405 115.674L176.356 115.829L176.312 115.983C176.092 116.69 175.988 117.387 176.01 118.039C176.054 119.53 176.708 120.69 177.961 121.497L178.164 121.635ZM172.026 115.536L171.696 115.326L171.735 115.519L171.773 115.713C172.103 117.326 173.625 119.939 175.977 120.702L176.301 120.806L176.186 120.486C175.746 119.276 173.482 116.464 172.026 115.536ZM175.603 112.121L175.504 112.265L175.405 112.409C174.674 113.497 174.301 114.619 174.328 115.652C174.35 116.414 174.592 117.149 175.048 117.829L175.202 118.055L175.334 117.812C175.647 117.215 175.9 115.282 175.861 113.746C175.85 113.204 175.795 112.757 175.708 112.453L175.603 112.121ZM174.015 113.95C174.707 112.972 175.625 110.381 175.576 109.182L175.559 108.818L175.427 108.945L175.295 109.072C174.845 109.503 173.394 111.05 173.521 112.972C173.542 113.265 173.603 113.586 173.718 113.911L173.823 114.215L174.015 113.95ZM173.834 115.994C173.795 114.928 172.559 111.746 171.63 110.608L171.366 110.287L171.355 110.497L171.339 110.707C171.262 111.845 171.317 114.652 173.581 116.144L173.845 116.315L173.834 115.994ZM173.207 111.237C173.367 109.967 173.158 107.309 172.691 106.122L172.537 105.718L172.46 105.923L172.383 106.127C172.279 106.409 172.086 107 171.987 107.796C171.845 108.912 171.877 110.497 172.839 111.674L172.949 111.812L173.059 111.956L173.207 111.237ZM175.603 103.304L175.686 102.84L175.51 102.994L175.334 103.149C174.68 103.735 173.174 105.276 173.411 106.972L173.433 107.088L173.504 107.425L173.713 107.232C174.636 106.387 175.323 104.956 175.603 103.304ZM176.515 105.729L176.642 105.315L176.455 105.425L176.268 105.541C174.521 106.613 173.696 107.917 173.762 109.525L173.779 109.889L174.037 109.674C174.982 108.884 176.169 106.873 176.515 105.729ZM198.468 111.26C198.468 114.762 196.798 117.878 194.226 119.856C192.731 119.033 192.704 117.895 192.786 117.475C192.863 117.05 193.154 117.237 193.341 117.237C194.319 117.237 195.353 116.945 196.616 115.641C198.051 114.171 198.496 110.912 196.298 108.784C193.924 106.492 191.407 106.889 189.781 108.95C189.445 109.376 188.632 109.685 187.929 109.657C186.885 109.619 187.544 110.442 187.544 110.613C187.544 110.79 187.385 110.906 187.297 110.878C186.945 110.779 187.088 111.304 187.088 111.464C187.088 111.624 186.945 111.702 186.863 111.702C186.423 111.702 186.544 112.099 186.56 112.21C186.571 112.315 186.533 112.503 186.385 112.58C186.247 112.657 186.082 113.005 186.082 113.271C186.082 113.751 186.516 114.083 187.247 114.63C187.973 115.177 188.066 115.69 188.077 116.066C188.094 116.436 188.126 117.039 188.291 117.436C188.489 117.917 188.462 118.79 187.462 118.829C186.231 118.878 184.049 119.867 183.868 119.934C183.175 120.182 182.258 120.271 181.543 120.094C181.159 119.818 180.791 119.519 180.444 119.199C180.301 118.702 180.549 118.166 180.802 117.812C181.208 118.226 181.818 118.199 182.164 118.21C182.505 118.221 184.186 117.956 184.423 117.878C184.659 117.795 184.769 117.823 184.912 117.878C185.549 118.11 186.434 118.182 186.791 116.95C187.148 115.713 186.302 116.061 186.198 116.116C186.093 116.171 185.945 116.155 186 116.05C186.154 115.735 185.923 115.773 185.786 115.757C185.445 115.724 184.994 116.088 184.846 116.226C184.698 116.359 184.555 116.342 184.505 116.32C184.049 116.094 182.692 116.42 182.269 115.679C182.307 115.481 181.928 112.475 181.725 111.956C181.681 111.845 181.648 111.663 181.78 111.464C182.126 110.945 183.076 111.503 183.593 111.492C184.208 111.475 184.307 111.221 184.478 111.005C184.643 110.801 184.763 110.917 184.851 110.862C184.967 110.79 184.862 110.641 184.901 110.563C184.939 110.486 184.989 110.525 185.093 110.431C185.203 110.337 185.082 110.138 185.132 110.061C185.286 109.829 185.703 110.016 185.45 109.409C185.313 109.077 185.5 108.718 185.687 108.481C185.983 108.094 187.143 106.453 185.104 104.757C183.159 103.138 181.192 103.271 179.922 104.652C178.658 106.033 179.29 108.055 179.422 108.586C179.554 109.116 179.175 109.602 178.735 109.812C178.389 109.978 177.592 110.508 176.993 111.033C177.087 106.696 179.708 102.884 183.719 101.26C183.89 101.475 184.082 101.68 184.291 101.867C183.84 102.199 182.868 103.077 182.868 103.077C182.868 103.077 183 103.099 183.126 103.127C183.214 103.149 183.39 103.204 183.39 103.204C183.39 103.204 184.252 102.47 184.654 102.177C184.967 102.42 185.313 102.619 185.67 102.779C185.478 103.11 184.989 104.039 184.989 104.039C184.989 104.039 185.104 104.105 185.203 104.171C185.302 104.238 185.362 104.298 185.362 104.298C185.362 104.298 185.901 103.287 186.099 102.95C186.549 103.105 187.016 103.188 187.495 103.21V105.061C187.231 105.055 186.555 105.028 186.275 105L186.104 104.983L186.198 105.127C186.269 105.232 186.324 105.337 186.379 105.436L186.401 105.475H186.445C186.643 105.492 187.264 105.514 187.495 105.519V108.895H187.962V108.121C188.643 108.088 189.215 108.039 189.896 107.983L189.929 107.978L190.533 107.442L190.204 107.475C189.478 107.569 188.841 107.613 188.258 107.646C188.258 107.646 188.066 107.657 187.962 107.663V105.519C188.802 105.503 189.649 105.381 190.473 105.166C190.698 105.724 191.127 107.077 191.127 107.077L191.566 106.939C191.566 106.939 191.143 105.597 190.923 105.044C191.621 104.823 192.297 104.536 192.935 104.182C193.451 104.818 193.896 105.514 194.259 106.249C193.929 106.403 193.325 106.619 193.325 106.619C193.808 106.668 194.171 106.784 194.171 106.784C194.171 106.784 194.341 106.713 194.451 106.663C194.495 106.762 194.578 106.956 194.578 106.956L195.182 107.226L195.116 107.055C195.116 107.055 194.913 106.575 194.869 106.464C195.506 106.149 196.133 105.784 196.737 105.381C197.858 107.116 198.468 109.155 198.468 111.26ZM196.463 104.978C195.891 105.365 195.281 105.718 194.66 106.028C194.292 105.282 193.841 104.575 193.319 103.923C193.781 103.641 194.221 103.326 194.622 102.983C195.314 103.569 195.935 104.238 196.463 104.978ZM194.259 102.691C193.874 103.011 193.457 103.304 193.023 103.564C192.473 102.928 191.858 102.354 191.182 101.851C191.391 101.663 191.577 101.459 191.748 101.243C192.643 101.602 193.484 102.094 194.259 102.691ZM191.292 101.072C191.138 101.254 190.973 101.425 190.797 101.58C190.204 101.177 189.577 100.829 188.918 100.536C189.737 100.624 190.533 100.801 191.292 101.072ZM188.473 100.845C189.154 101.122 189.802 101.47 190.412 101.873C190.143 102.066 189.852 102.227 189.555 102.359C189.231 101.845 188.863 101.337 188.473 100.845ZM187.956 102.724V100.928C188.363 101.431 188.753 101.961 189.11 102.519C188.731 102.635 188.346 102.702 187.956 102.724ZM189.797 102.757C190.16 102.597 190.5 102.398 190.819 102.155C191.478 102.635 192.083 103.188 192.621 103.801C192.017 104.127 191.385 104.392 190.737 104.591C190.456 103.961 190.143 103.348 189.797 102.757ZM190.281 104.718C189.517 104.917 188.736 105.022 187.951 105.044V103.193C188.434 103.171 188.901 103.083 189.357 102.934C189.704 103.497 190.011 104.099 190.281 104.718ZM187.489 102.724C187.099 102.707 186.72 102.635 186.346 102.519C186.692 101.978 187.071 101.453 187.489 100.95V102.724ZM186.978 100.851C186.593 101.331 186.236 101.834 185.906 102.359C185.604 102.227 185.313 102.066 185.049 101.873C185.648 101.475 186.297 101.133 186.978 100.851ZM186.555 100.53C185.89 100.823 185.258 101.171 184.665 101.58C184.483 101.42 184.318 101.249 184.17 101.072C184.934 100.796 185.736 100.619 186.555 100.53ZM198.924 111.26C198.924 105.05 193.896 100 187.725 100C181.549 100 176.526 105.05 176.526 111.26C176.526 117.469 181.549 122.519 187.725 122.519C193.896 122.525 198.924 117.469 198.924 111.26ZM199.304 105.492L199.117 105.376L198.935 105.26L199.056 105.68C199.386 106.829 200.523 108.867 201.458 109.668L201.71 109.889L201.732 109.519C201.826 107.917 201.029 106.597 199.304 105.492ZM202.084 106.972C202.315 105.276 200.815 103.735 200.155 103.149L199.979 102.994L199.804 102.84L199.886 103.304C200.166 104.956 200.859 106.392 201.776 107.232L201.985 107.425L202.057 107.088L202.084 106.972ZM202.645 111.668C203.612 110.486 203.645 108.906 203.502 107.79C203.397 107 203.211 106.403 203.106 106.122L203.035 105.917L202.958 105.713L202.798 106.116C202.331 107.304 202.123 109.961 202.282 111.232L202.425 111.95L202.54 111.807L202.645 111.668ZM204.156 110.702L204.145 110.492L204.128 110.282L203.864 110.602C202.941 111.74 201.699 114.923 201.661 115.989L201.644 116.309L201.914 116.138C204.178 114.646 204.238 111.84 204.156 110.702Z" fill="#A6AFB7"/>
<path d="M124.124 108.515H120.943V125.404H124.124V108.515V108.515ZM97.006 125.421H100.116V108.531H96.94V117.211C96.94 117.614 96.907 119.597 96.3026 121.183C95.6322 122.934 93.8573 123.603 92.5549 123.603C89.5106 123.603 88.8402 121.448 88.8402 118.52V108.531H85.6641V119.835C85.6641 123.233 87.6698 125.929 91.1866 125.929C93.5276 125.929 95.6706 125.056 96.9455 122.934H97.0114V125.421H97.006ZM114.805 125.421H117.981V113.747C117.981 108.327 112.793 108.028 111.623 108.028C109.952 108.028 107.606 108.901 106.534 111.023H106.469V108.531H103.358V125.421H106.54V116.233C106.54 112.934 107.408 112.194 107.881 111.724C109.222 110.382 110.958 110.481 110.958 110.481C113.634 110.481 114.81 111.995 114.81 114.785V125.421H114.805ZM120.646 104.575H124.427V101.111H120.646V104.575V104.575ZM129.823 116.957C129.823 113.006 130.988 110.371 134.01 110.371C136.274 110.371 137.269 111.841 137.433 113.945H140.588C140.428 110.305 137.769 108.062 134.241 108.062C128.949 108.062 126.493 112.172 126.493 117.089C126.493 122.039 128.619 125.846 133.971 125.846C137.664 125.846 140.45 123.542 140.719 119.763H137.56C137.395 122.172 136.098 123.542 134.004 123.542C130.993 123.542 129.823 120.901 129.823 116.957ZM153.924 115.354H145.484C145.484 112.603 147.039 110.371 149.671 110.371C152.726 110.371 153.99 112.542 153.924 115.354ZM145.478 117.559H157.243V115.99C157.243 111.338 154.886 108.167 149.896 108.062C144.61 108.062 142.143 112.172 142.143 117.089C142.143 122.039 144.275 125.846 149.627 125.846C153.616 125.846 156.54 123.945 157.045 120.128H153.715C153.353 122.575 152.122 123.542 149.66 123.542C146.445 123.542 145.247 120.498 145.478 117.559ZM168.31 103.277V100.636C167.541 100.504 166.81 100.305 166.046 100.305C163.684 100.305 160.925 101.272 160.826 104.951V108.559H157.952V110.769H160.826V125.343H163.986V110.774H167.843V108.564H163.986V105.487C163.887 103.653 164.92 103.178 166.711 103.178C167.244 103.178 167.777 103.249 168.31 103.277Z" fill="#A6AFB7"/>
</svg>
