<svg width="292" height="238" viewBox="0 0 292 238" fill="none" xmlns="http://www.w3.org/2000/svg">
<path d="M137.29 105.228C137.276 104.93 137.261 104.621 137.225 104.31C137.167 103.859 137.083 103.412 136.974 102.971C136.082 99.3527 133.183 97.0092 129.588 97.0001C128.383 96.9961 127.344 97.1967 126.397 97.611C124.369 98.5006 122.969 100.078 122.238 102.301C121.587 104.277 121.53 106.329 122.068 108.397C122.993 111.958 125.804 114.206 129.4 114.264H129.54C132.702 114.264 135.313 112.531 136.54 109.61C137.044 108.407 137.297 107.108 137.312 105.639V105.623V105.608C137.3 105.484 137.294 105.356 137.29 105.228ZM134.977 108.423C134.217 110.67 132.721 111.992 130.529 112.356C127.558 112.847 125.016 111.33 124.051 108.489C123.765 107.652 123.609 106.796 123.609 106.078C123.605 104.261 123.854 102.997 124.442 101.862C125.433 99.946 127.316 98.81 129.438 98.81C129.612 98.81 129.789 98.8172 129.966 98.8329C132.588 99.063 134.473 100.718 135.136 103.375C135.57 105.122 135.516 106.818 134.976 108.423H134.977Z" fill="#A6AFB7"/>
<path d="M109.591 111.269L104.377 97.2812H98.6016L99.282 99.0859H103.086L108.599 114.053H110.458L116.838 97.2812H114.892L109.591 111.269Z" fill="#A6AFB7"/>
<path d="M158.398 99.0299H164.257L164.25 113.992H166.086V99.0299H171.935V97.3242H158.398V99.0299Z" fill="#A6AFB7"/>
<path d="M146.242 97.25H144.438V113.99H155.138V112.221H146.242V97.25Z" fill="#A6AFB7"/>
<path d="M193.459 112.183H189.986L183.803 97.2031H182.174L175.336 113.991H177.314L182.987 99.9819L188.724 113.991H188.726H194.137L193.459 112.183Z" fill="#A6AFB7"/>
<path d="M181.565 120.816L172.648 129.541V120.816H170.695V137.542H172.648V131.903L175.492 129.13L181.637 137.542H184.047L176.961 127.853L184.144 120.816H181.565Z" fill="#A6AFB7"/>
<path d="M198.049 128.747L193.422 127.664C191.711 127.279 191.062 126.315 191.062 125.158C191.062 123.398 192.749 122.242 195.111 122.242C197.352 122.242 199.087 123.254 199.281 125.543H201.304C201.28 122.459 198.581 120.555 195.087 120.555C191.664 120.555 189.134 122.435 189.134 125.158C189.134 127.518 190.532 128.966 192.821 129.497L197.449 130.58C199.16 130.99 199.808 131.931 199.808 133.087C199.808 134.895 198.049 136.124 195.398 136.124C192.771 136.124 190.819 134.822 190.626 132.653H188.602C188.746 136.028 191.42 137.811 195.35 137.811C199.327 137.811 201.737 135.859 201.737 133.111C201.737 130.745 200.339 129.277 198.049 128.747Z" fill="#A6AFB7"/>
<path d="M91 122.6H96.9154V137.542H98.8682V122.6H104.796V120.816H91V122.6Z" fill="#A6AFB7"/>
<path d="M123.673 125.612C123.673 122.504 121.504 120.816 117.865 120.816H110.828V137.542H112.78V130.384H117.721L122.155 137.542H124.42L119.842 130.167C122.203 129.613 123.673 128.143 123.673 125.612ZM112.78 128.673V122.55H117.793C120.179 122.55 121.648 123.393 121.648 125.61C121.648 127.827 120.179 128.671 117.793 128.671L112.78 128.673Z" fill="#A6AFB7"/>
<path d="M141.607 131.155C141.607 134.264 139.775 136.072 136.953 136.072C134.13 136.072 132.298 134.264 132.298 131.155V120.816H130.352V131.155C130.352 135.613 133.17 137.807 136.955 137.807C140.74 137.807 143.559 135.614 143.559 131.155V120.816H141.607V131.155Z" fill="#A6AFB7"/>
<path d="M157.24 122.286C159.534 122.286 161.461 123.63 162.117 125.874H164.225C163.541 122.667 160.888 120.551 157.24 120.551C152.613 120.551 149.359 123.998 149.359 129.179C149.359 134.36 152.613 137.807 157.24 137.807C160.888 137.807 163.541 135.691 164.225 132.483H162.117C161.462 134.728 159.538 136.072 157.24 136.072C153.962 136.072 151.406 133.421 151.406 129.179C151.406 124.937 153.962 122.286 157.24 122.286Z" fill="#A6AFB7"/>
</svg>
