<svg width="292" height="238" viewBox="0 0 292 238" fill="none" xmlns="http://www.w3.org/2000/svg">
<g clip-path="url(#clip0_3492_95669)">
<path fill-rule="evenodd" clip-rule="evenodd" d="M121.559 106.43H119.07L114.978 112.017L110.885 106.43H108.377L113.674 113.575L108.18 121.001H110.648L114.938 115.133L119.228 121.001H121.756L116.261 113.575L121.559 106.43Z" fill="#A6AFB7"/>
<path fill-rule="evenodd" clip-rule="evenodd" d="M136.007 112.689C133.013 112.038 132.465 111.35 132.465 110.23V110.19C132.465 109.016 133.566 108.197 135.141 108.197C136.541 108.197 137.755 108.662 138.961 109.659L139.177 109.837L140.41 108.179L140.207 108.014C138.672 106.764 137.169 106.23 135.18 106.23C132.392 106.23 130.369 107.955 130.369 110.33V110.37C130.369 113.062 132.309 114.041 135.223 114.684C138.083 115.295 138.606 115.972 138.606 117.083V117.123C138.606 118.387 137.475 119.236 135.792 119.236C134.035 119.236 132.713 118.682 131.231 117.322L131.026 117.134L129.711 118.713L129.905 118.889C131.648 120.467 133.5 121.203 135.733 121.203C138.671 121.203 140.722 119.459 140.722 116.963V116.923C140.722 114.686 139.312 113.42 136.007 112.689Z" fill="#A6AFB7"/>
<path fill-rule="evenodd" clip-rule="evenodd" d="M156.463 112.662H149.018V106.43H146.922V121.001H149.018V114.688H156.463V121.001H158.559V106.43H156.463V112.662Z" fill="#A6AFB7"/>
<path fill-rule="evenodd" clip-rule="evenodd" d="M172.215 119.233C169.259 119.233 167.031 116.86 167.031 113.714V113.674C167.031 110.55 169.242 108.194 172.176 108.194C175.13 108.194 177.359 110.567 177.359 113.714V113.754C177.359 116.877 175.148 119.233 172.215 119.233ZM172.215 106.188C168.099 106.188 164.875 109.493 164.875 113.714V113.754C164.875 118.021 168.014 121.24 172.176 121.24C176.291 121.24 179.515 117.934 179.515 113.714V113.674C179.515 109.406 176.377 106.188 172.215 106.188Z" fill="#A6AFB7"/>
<path fill-rule="evenodd" clip-rule="evenodd" d="M187.932 108.436H191.931C194.008 108.436 195.199 109.345 195.199 110.93V110.97C195.199 112.558 193.909 113.584 191.911 113.584H187.932V108.436ZM197.316 110.91V110.87C197.316 109.711 196.909 108.661 196.17 107.912C195.228 106.956 193.765 106.43 192.049 106.43H185.836V121.001H187.932V115.55H191.481L195.491 121.001H198.078L193.76 115.175C195.996 114.617 197.316 113.048 197.316 110.91Z" fill="#A6AFB7"/>
<path fill-rule="evenodd" clip-rule="evenodd" d="M205.761 119.014V114.648H213.305V112.662H205.761V108.416H214.195V106.43H203.664V121.001H214.294V119.014H205.761Z" fill="#A6AFB7"/>
<path fill-rule="evenodd" clip-rule="evenodd" d="M89.8881 120.704L77.1328 107.764L78.4592 106.418L91.2144 119.358L89.8881 120.704Z" fill="#A6AFB7"/>
<mask id="mask0_3492_95669" style="mask-type:alpha" maskUnits="userSpaceOnUse" x="76" y="100" width="26" height="28">
<path d="M76.3359 100.25H101.204V127.987H76.3359V100.25Z" fill="white"/>
</mask>
<g mask="url(#mask0_3492_95669)">
<path fill-rule="evenodd" clip-rule="evenodd" d="M77.6623 120.638L76.3359 119.292L89.0914 106.352L90.4179 107.697L77.6623 120.638Z" fill="#A6AFB7"/>
<path fill-rule="evenodd" clip-rule="evenodd" d="M86.3984 128.003C82.4007 128.003 79.1484 124.704 79.1484 120.648H81.0242C81.0242 123.654 83.435 126.1 86.3984 126.1C89.3615 126.1 91.7724 123.654 91.7724 120.648C91.7724 119.631 91.5545 118.242 89.8548 116.517L86.4992 113.113L83.4795 110.138C81.7562 108.39 81.1193 107.147 81.1193 105.54C81.1193 102.623 83.4586 100.25 86.3341 100.25C89.2093 100.25 91.5486 102.623 91.5486 105.54H89.6729C89.6729 103.673 88.175 102.153 86.3341 102.153C84.4929 102.153 82.995 103.673 82.995 105.54C82.995 106.458 83.282 107.247 84.796 108.782L87.8157 111.758L91.1812 115.172C92.8643 116.879 93.6481 118.619 93.6481 120.648C93.6481 124.704 90.3958 128.003 86.3984 128.003Z" fill="#A6AFB7"/>
<path fill-rule="evenodd" clip-rule="evenodd" d="M100.398 100.25H101.202V127.987H100.398V100.25Z" fill="#A6AFB7"/>
</g>
</g>
<defs>
<clipPath id="clip0_3492_95669">
<rect width="138" height="28" fill="white" transform="translate(76.3359 100)"/>
</clipPath>
</defs>
</svg>
