<svg width="292" height="238" viewBox="0 0 292 238" fill="none" xmlns="http://www.w3.org/2000/svg">
<path d="M108.808 107C108.808 107 119.53 107 122.203 107.717C123.679 108.112 124.839 109.272 125.234 110.748C125.948 113.421 125.951 119 125.951 119C125.951 119.003 125.951 124.58 125.234 127.252C124.839 128.728 123.679 129.888 122.203 130.283C119.53 131 108.808 131 108.808 131C108.729 131 98.0776 130.997 95.4147 130.283C93.9387 129.888 92.7786 128.728 92.3835 127.252C91.6669 124.58 91.6667 119.003 91.6667 119C91.6667 119 91.6667 113.421 92.3835 110.748C92.7786 109.272 93.9387 108.112 95.4147 107.717C98.0776 107.003 108.729 107 108.808 107ZM105.378 124.144L114.285 119.001L105.378 113.859V124.144Z" fill="#A6AFB7"/>
<path d="M133.19 122.603L129.34 108.701H132.699L134.048 115.003C134.392 116.555 134.643 117.879 134.807 118.974H134.906C135.019 118.189 135.273 116.874 135.665 115.025L137.062 108.701H140.42L136.523 122.603V129.272H133.187V122.603H133.19Z" fill="#A6AFB7"/>
<path d="M141.431 128.831C140.753 128.374 140.271 127.663 139.983 126.697C139.698 125.732 139.554 124.451 139.554 122.848V120.666C139.554 119.049 139.718 117.748 140.045 116.769C140.372 115.79 140.883 115.073 141.577 114.624C142.272 114.175 143.183 113.95 144.312 113.95C145.424 113.95 146.313 114.178 146.985 114.635C147.654 115.093 148.145 115.809 148.455 116.78C148.766 117.754 148.921 119.049 148.921 120.666V122.848C148.921 124.451 148.768 125.738 148.466 126.709C148.164 127.682 147.673 128.394 146.996 128.842C146.319 129.291 145.399 129.517 144.239 129.517C143.042 129.52 142.108 129.288 141.431 128.831ZM145.229 126.477C145.416 125.986 145.512 125.188 145.512 124.076V119.394C145.512 118.316 145.418 117.525 145.229 117.029C145.04 116.529 144.71 116.281 144.236 116.281C143.779 116.281 143.454 116.529 143.268 117.029C143.079 117.528 142.986 118.316 142.986 119.394V124.076C142.986 125.188 143.076 125.989 143.257 126.477C143.437 126.968 143.762 127.214 144.236 127.214C144.71 127.214 145.04 126.968 145.229 126.477Z" fill="#A6AFB7"/>
<path d="M159.846 129.275H157.198L156.905 127.435H156.831C156.112 128.823 155.034 129.517 153.594 129.517C152.598 129.517 151.862 129.19 151.387 128.538C150.913 127.883 150.676 126.862 150.676 125.473V114.244H154.06V125.276C154.06 125.947 154.133 126.424 154.28 126.709C154.427 126.994 154.672 127.138 155.017 127.138C155.31 127.138 155.592 127.048 155.863 126.867C156.134 126.687 156.332 126.458 156.465 126.182V114.241H159.846V129.275Z" fill="#A6AFB7"/>
<path d="M169.038 111.424H165.679V129.274H162.369V111.424H159.01V108.703H169.038V111.424Z" fill="#A6AFB7"/>
<path d="M177.199 129.275H174.552L174.259 127.435H174.185C173.465 128.823 172.387 129.517 170.948 129.517C169.952 129.517 169.215 129.19 168.741 128.538C168.267 127.883 168.03 126.862 168.03 125.473V114.244H171.414V125.276C171.414 125.947 171.487 126.424 171.634 126.709C171.781 126.994 172.026 127.138 172.37 127.138C172.664 127.138 172.946 127.048 173.217 126.867C173.488 126.687 173.686 126.458 173.818 126.182V114.241H177.199V129.275Z" fill="#A6AFB7"/>
<path d="M188.398 116.645C188.192 115.697 187.862 115.011 187.404 114.585C186.947 114.159 186.318 113.947 185.516 113.947C184.895 113.947 184.314 114.122 183.775 114.475C183.236 114.828 182.818 115.288 182.525 115.861H182.499V107.941H179.24V129.272H182.034L182.378 127.849H182.451C182.714 128.357 183.106 128.755 183.628 129.051C184.15 129.345 184.732 129.492 185.37 129.492C186.513 129.492 187.356 128.964 187.895 127.911C188.435 126.856 188.705 125.21 188.705 122.97V120.591C188.705 118.911 188.601 117.593 188.398 116.645ZM185.296 122.778C185.296 123.873 185.251 124.731 185.161 125.352C185.07 125.972 184.921 126.416 184.706 126.675C184.495 126.938 184.207 127.067 183.848 127.067C183.569 127.067 183.312 127.003 183.075 126.87C182.838 126.74 182.646 126.543 182.499 126.283V117.751C182.612 117.342 182.81 117.009 183.089 116.747C183.366 116.484 183.671 116.354 183.995 116.354C184.34 116.354 184.605 116.49 184.791 116.758C184.98 117.029 185.11 117.48 185.183 118.118C185.257 118.756 185.293 119.662 185.293 120.839V122.778H185.296Z" fill="#A6AFB7"/>
<path d="M193.506 123.644C193.506 124.609 193.534 125.332 193.591 125.814C193.647 126.297 193.766 126.647 193.946 126.87C194.127 127.09 194.403 127.2 194.779 127.2C195.284 127.2 195.634 127.003 195.82 126.61C196.009 126.218 196.111 125.563 196.128 124.649L199.046 124.821C199.063 124.951 199.071 125.131 199.071 125.36C199.071 126.749 198.69 127.787 197.931 128.473C197.172 129.159 196.097 129.503 194.708 129.503C193.04 129.503 191.872 128.981 191.203 127.934C190.531 126.887 190.198 125.27 190.198 123.08V120.455C190.198 118.2 190.545 116.552 191.24 115.513C191.934 114.475 193.122 113.955 194.807 113.955C195.967 113.955 196.859 114.167 197.48 114.593C198.1 115.019 198.538 115.68 198.792 116.58C199.046 117.48 199.173 118.722 199.173 120.308V122.882H193.506V123.644ZM193.935 116.56C193.763 116.772 193.65 117.119 193.591 117.602C193.534 118.084 193.506 118.815 193.506 119.797V120.876H195.981V119.797C195.981 118.832 195.947 118.101 195.882 117.602C195.817 117.102 195.699 116.752 195.527 116.546C195.354 116.343 195.089 116.239 194.731 116.239C194.37 116.241 194.104 116.349 193.935 116.56Z" fill="#A6AFB7"/>
</svg>
