<svg width="292" height="238" viewBox="0 0 292 238" fill="none" xmlns="http://www.w3.org/2000/svg">
<g clip-path="url(#clip0_3492_95490)">
<path d="M89.1127 111.427H103.247V114.388L95.3514 123.634H103.247V126.684H88.6641V123.634L96.4722 114.388H89.1127V111.427ZM191.108 111.427L198.107 120.582V111.427H202.505V126.728H198.107L191.019 117.484V126.728H186.621V111.427H191.108ZM178.455 111.383H183.48V126.683H178.455V111.383ZM166.34 111.427H171.365V123.634H176.794V126.684H166.34V111.427ZM106.165 111.427H117.832V114.48H111.148V117.577H117.431V120.582H111.148V123.634H118.28V126.684H106.165V111.427ZM130.486 111.875C129.229 111.472 126.448 111.472 126.448 111.472H121.064V126.684H126.18V123.094H127.526C128.288 123.094 129.678 122.915 130.62 122.557C133.088 121.616 134.39 119.46 134.39 117.217C134.345 114.884 133.223 112.817 130.486 111.875ZM128.916 119.146C128.332 119.772 126.986 119.772 126.986 119.772H126.18V114.523H126.986C126.986 114.523 128.063 114.479 128.557 114.836C129.322 115.376 129.498 116.138 129.498 116.991C129.497 117.845 129.453 118.562 128.916 119.146ZM151.532 111.427H163.198V114.48H156.512V117.577H162.795V120.582H156.512V123.634H163.6V126.684H151.532V111.427ZM145.699 111.875C144.441 111.472 141.661 111.472 141.661 111.472H136.275V126.684H141.388V123.094H142.735C143.499 123.094 144.889 122.915 145.831 122.557C148.299 121.616 149.601 119.46 149.601 117.217C149.557 114.884 148.435 112.817 145.699 111.875ZM144.081 119.146C143.499 119.772 142.152 119.772 142.152 119.772H141.344V114.523H142.152C142.152 114.523 143.23 114.479 143.723 114.836C144.484 115.376 144.665 116.138 144.665 116.991C144.71 117.845 144.666 118.562 144.081 119.146Z" fill="#A6AFB7"/>
</g>
<defs>
<clipPath id="clip0_3492_95490">
<rect width="114.558" height="16.2291" fill="white" transform="translate(88.6641 111)"/>
</clipPath>
</defs>
</svg>
