<svg width="446" height="294" viewBox="0 0 446 294" fill="none" xmlns="http://www.w3.org/2000/svg">
<path d="M180.44 144.415L194.751 136.129L209.062 127.844L223.373 119.559L237.684 127.844L251.996 136.129L266.307 144.415L251.996 152.7L237.684 160.985L223.373 169.271L209.062 160.985L194.751 152.7L180.44 144.415Z" fill="#BEEBFF" stroke="#08141F" stroke-width="2"/>
<path opacity="0.9" d="M180.44 128.496L194.751 120.21L209.062 111.925L223.373 103.64L237.684 111.925L251.996 120.21L266.307 128.496L251.996 136.781L237.684 145.067L223.373 153.352L209.062 145.067L194.751 136.781L180.44 128.496Z" fill="#D7F3FF" stroke="#08141F" stroke-width="2"/>
<path d="M180.44 107.364L194.751 99.0786L209.062 90.7932L223.373 82.5078L237.684 90.7932L251.996 99.0786L266.307 107.364V114.456L251.996 122.741L237.684 131.026L223.373 139.312L209.062 131.026L194.751 122.741L180.44 114.456V107.364Z" fill="white"/>
<path d="M194.751 99.0786L180.44 107.364M194.751 99.0786L209.062 107.364M194.751 99.0786L209.062 90.7932M180.44 107.364L194.751 115.649M180.44 107.364V114.456L194.751 122.741M209.062 107.364L194.751 115.649M209.062 107.364L223.373 99.0786M209.062 107.364L223.373 115.649M209.062 90.7932L223.373 99.0786M209.062 90.7932L223.373 82.5078L237.684 90.7932M194.751 115.649V122.741M194.751 115.649L209.062 123.935M194.751 122.741L209.062 131.026M209.062 123.935L223.373 115.649M209.062 123.935L223.373 132.22M209.062 123.935V131.026M223.373 99.0786L237.684 107.364M223.373 99.0786L237.684 90.7932M223.373 115.649L237.684 107.364M223.373 115.649L237.684 123.935M237.684 90.7932L251.996 99.0786M237.684 107.364L251.996 99.0786M237.684 107.364L251.996 115.649M209.062 131.026L223.373 139.312M251.996 99.0786L266.307 107.364M251.996 115.649L237.684 123.935M251.996 115.649L266.307 107.364M251.996 115.649V122.741M237.684 123.935L223.373 132.22M237.684 123.935V131.026M223.373 132.22V139.312M266.307 107.364V114.456L251.996 122.741M223.373 139.312L237.684 131.026M237.684 131.026L251.996 122.741" stroke="#08141F" stroke-width="2"/>
<path d="M194.659 93.7551L208.97 85.4697L223.281 93.7551V99.0693L208.97 107.355L194.659 99.0693V93.7551Z" fill="#D4FC63" fill-opacity="0.9"/>
<path d="M194.659 93.7551L208.97 85.4697L223.281 93.7551M194.659 93.7551L208.97 102.041M194.659 93.7551V99.0693L208.97 107.355M223.281 93.7551L208.97 102.041M223.281 93.7551V99.0693L208.97 107.355M208.97 102.041V107.355" stroke="#08141F" stroke-width="2"/>
<path d="M208.877 96.718L223.189 88.4326L237.5 96.718V107.364L223.189 115.65L208.877 107.364V96.718Z" fill="#D4FC63" fill-opacity="0.9"/>
<path d="M208.877 96.718L223.189 88.4326L237.5 96.718M208.877 96.718L223.189 105.003M208.877 96.718V107.364L223.189 115.65M237.5 96.718L223.189 105.003M237.5 96.718V107.364L223.189 115.65M223.189 105.003V115.65" stroke="#08141F" stroke-width="2"/>
<path d="M223.096 82.4983L237.407 74.2129L251.718 82.4983V115.658L237.407 123.943L223.096 115.658V82.4983Z" fill="#D4FC63" fill-opacity="0.9"/>
<path d="M223.096 82.4983L237.407 74.2129L251.718 82.4983M223.096 82.4983L237.407 90.7837M223.096 82.4983V115.658L237.407 123.943M251.718 82.4983L237.407 90.7837M251.718 82.4983V115.658L237.407 123.943M237.407 90.7837V123.943" stroke="#08141F" stroke-width="2"/>
<path d="M312.91 193.32C312.078 193.32 311.331 193.128 310.67 192.744C310.009 192.36 309.491 191.832 309.118 191.16C308.745 190.477 308.558 189.709 308.558 188.856C308.558 188.045 308.739 187.32 309.102 186.68C309.475 186.029 309.987 185.522 310.638 185.16C311.289 184.786 312.025 184.6 312.846 184.6C313.657 184.6 314.382 184.786 315.022 185.16C315.673 185.522 316.179 186.029 316.542 186.68C316.905 187.32 317.086 188.05 317.086 188.872C317.086 189.106 317.081 189.282 317.07 189.4H309.918C310.014 190.221 310.334 190.882 310.878 191.384C311.433 191.874 312.121 192.12 312.942 192.12C313.539 192.12 314.083 191.981 314.574 191.704C315.075 191.416 315.454 191.032 315.71 190.552L316.814 191.112C316.483 191.805 315.971 192.349 315.278 192.744C314.595 193.128 313.806 193.32 312.91 193.32ZM315.694 188.232C315.577 187.496 315.251 186.909 314.718 186.472C314.195 186.024 313.55 185.8 312.782 185.8C312.035 185.8 311.401 186.024 310.878 186.472C310.366 186.92 310.051 187.506 309.934 188.232H315.694Z" fill="white"/>
<path d="M302.969 193.32C302.169 193.32 301.449 193.133 300.809 192.76C300.169 192.386 299.668 191.869 299.305 191.208C298.943 190.546 298.761 189.805 298.761 188.984C298.761 188.152 298.937 187.405 299.289 186.744C299.652 186.072 300.153 185.549 300.793 185.176C301.433 184.792 302.159 184.6 302.969 184.6C303.62 184.6 304.228 184.728 304.793 184.984C305.359 185.24 305.828 185.597 306.201 186.056C306.575 186.504 306.809 187.01 306.905 187.576L305.609 187.752C305.471 187.176 305.151 186.706 304.649 186.344C304.159 185.981 303.604 185.8 302.985 185.8C302.441 185.8 301.945 185.933 301.497 186.2C301.06 186.466 300.713 186.84 300.457 187.32C300.212 187.8 300.089 188.344 300.089 188.952C300.089 189.57 300.212 190.12 300.457 190.6C300.713 191.08 301.06 191.453 301.497 191.72C301.935 191.986 302.425 192.12 302.969 192.12C303.599 192.12 304.159 191.944 304.649 191.592C305.14 191.229 305.465 190.765 305.625 190.2L306.937 190.376C306.82 190.941 306.569 191.448 306.185 191.896C305.801 192.344 305.327 192.696 304.761 192.952C304.207 193.197 303.609 193.32 302.969 193.32Z" fill="white"/>
<path d="M289.49 184.92H290.818V186.024H290.978C291.266 185.576 291.628 185.23 292.066 184.984C292.503 184.739 292.988 184.616 293.522 184.616C294.194 184.616 294.78 184.771 295.282 185.08C295.794 185.379 296.188 185.8 296.466 186.344C296.743 186.878 296.882 187.486 296.882 188.168V193H295.554V188.168C295.554 187.475 295.356 186.91 294.962 186.472C294.567 186.035 294.028 185.816 293.346 185.816C292.898 185.816 292.476 185.923 292.082 186.136C291.698 186.35 291.388 186.648 291.154 187.032C290.93 187.406 290.818 187.822 290.818 188.28V193H289.49V184.92Z" fill="white"/>
<path d="M283.269 193.32C282.437 193.32 281.691 193.128 281.029 192.744C280.368 192.36 279.851 191.832 279.477 191.16C279.104 190.477 278.917 189.709 278.917 188.856C278.917 188.045 279.099 187.32 279.461 186.68C279.835 186.029 280.347 185.522 280.997 185.16C281.648 184.786 282.384 184.6 283.205 184.6C284.016 184.6 284.741 184.786 285.381 185.16C286.032 185.522 286.539 186.029 286.901 186.68C287.264 187.32 287.445 188.05 287.445 188.872C287.445 189.106 287.44 189.282 287.429 189.4H280.277C280.373 190.221 280.693 190.882 281.237 191.384C281.792 191.874 282.48 192.12 283.301 192.12C283.899 192.12 284.443 191.981 284.933 191.704C285.435 191.416 285.813 191.032 286.069 190.552L287.173 191.112C286.843 191.805 286.331 192.349 285.637 192.744C284.955 193.128 284.165 193.32 283.269 193.32ZM286.053 188.232C285.936 187.496 285.611 186.909 285.077 186.472C284.555 186.024 283.909 185.8 283.141 185.8C282.395 185.8 281.76 186.024 281.237 186.472C280.725 186.92 280.411 187.506 280.293 188.232H286.053Z" fill="white"/>
<path d="M272.581 197C271.547 197 270.661 196.76 269.925 196.28C269.2 195.811 268.699 195.155 268.421 194.312L269.749 193.816C269.963 194.446 270.32 194.931 270.821 195.272C271.323 195.624 271.931 195.8 272.645 195.8C273.531 195.8 274.235 195.534 274.757 195C275.291 194.467 275.557 193.752 275.557 192.856V191.768H275.397C274.64 192.728 273.659 193.208 272.453 193.208C271.653 193.208 270.933 193.027 270.293 192.664C269.653 192.302 269.152 191.795 268.789 191.144C268.437 190.494 268.261 189.763 268.261 188.952C268.261 188.131 268.443 187.39 268.805 186.728C269.168 186.067 269.664 185.55 270.293 185.176C270.933 184.803 271.653 184.616 272.453 184.616C273.68 184.616 274.667 185.102 275.413 186.072H275.573V184.92H276.885V192.856C276.885 193.688 276.709 194.414 276.357 195.032C276.005 195.662 275.504 196.147 274.853 196.488C274.203 196.83 273.445 197 272.581 197ZM272.597 192.04C273.173 192.04 273.691 191.907 274.149 191.64C274.608 191.374 274.965 191.006 275.221 190.536C275.477 190.067 275.605 189.539 275.605 188.952C275.605 188.355 275.472 187.816 275.205 187.336C274.949 186.856 274.592 186.483 274.133 186.216C273.675 185.939 273.163 185.8 272.597 185.8C272.021 185.8 271.504 185.939 271.045 186.216C270.587 186.483 270.229 186.856 269.973 187.336C269.717 187.816 269.589 188.355 269.589 188.952C269.589 189.539 269.717 190.067 269.973 190.536C270.229 191.006 270.587 191.374 271.045 191.64C271.504 191.907 272.021 192.04 272.597 192.04Z" fill="white"/>
<path d="M265.43 183.384C265.153 183.384 264.924 183.293 264.742 183.112C264.561 182.931 264.47 182.701 264.47 182.424C264.47 182.157 264.561 181.939 264.742 181.768C264.924 181.587 265.153 181.496 265.43 181.496C265.708 181.496 265.932 181.581 266.102 181.752C266.284 181.923 266.374 182.147 266.374 182.424C266.374 182.701 266.284 182.931 266.102 183.112C265.932 183.293 265.708 183.384 265.43 183.384ZM264.758 184.92H266.086V193H264.758V184.92Z" fill="white"/>
<path d="M260.849 181.24H262.177V193H260.849V181.24Z" fill="white"/>
<path d="M257.068 181.24H258.396V193H257.068V181.24Z" fill="white"/>
<path d="M250.848 193.32C250.016 193.32 249.269 193.128 248.608 192.744C247.946 192.36 247.429 191.832 247.056 191.16C246.682 190.477 246.496 189.709 246.496 188.856C246.496 188.045 246.677 187.32 247.04 186.68C247.413 186.029 247.925 185.522 248.576 185.16C249.226 184.786 249.962 184.6 250.784 184.6C251.594 184.6 252.32 184.786 252.96 185.16C253.61 185.522 254.117 186.029 254.48 186.68C254.842 187.32 255.024 188.05 255.024 188.872C255.024 189.106 255.018 189.282 255.008 189.4H247.856C247.952 190.221 248.272 190.882 248.816 191.384C249.37 191.874 250.058 192.12 250.88 192.12C251.477 192.12 252.021 191.981 252.512 191.704C253.013 191.416 253.392 191.032 253.648 190.552L254.752 191.112C254.421 191.805 253.909 192.349 253.216 192.744C252.533 193.128 251.744 193.32 250.848 193.32ZM253.632 188.232C253.514 187.496 253.189 186.909 252.656 186.472C252.133 186.024 251.488 185.8 250.72 185.8C249.973 185.8 249.338 186.024 248.816 186.472C248.304 186.92 247.989 187.506 247.872 188.232H253.632Z" fill="white"/>
<path d="M243.887 193.304C243.215 193.304 242.676 193.085 242.271 192.648C241.865 192.21 241.663 191.634 241.663 190.92V185.976H240.351V184.92H241.663L241.967 182.312H243.007L242.991 184.92H245.071V185.976H242.991V190.872C242.991 191.256 243.103 191.57 243.327 191.816C243.551 192.061 243.855 192.184 244.239 192.184C244.367 192.184 244.521 192.168 244.703 192.136C244.884 192.104 245.049 192.066 245.199 192.024V193.096C244.783 193.234 244.345 193.304 243.887 193.304Z" fill="white"/>
<path d="M231.271 184.92H232.599V186.024H232.759C233.047 185.576 233.41 185.23 233.847 184.984C234.284 184.739 234.77 184.616 235.303 184.616C235.975 184.616 236.562 184.771 237.063 185.08C237.575 185.379 237.97 185.8 238.247 186.344C238.524 186.878 238.663 187.486 238.663 188.168V193H237.335V188.168C237.335 187.475 237.138 186.91 236.743 186.472C236.348 186.035 235.81 185.816 235.127 185.816C234.679 185.816 234.258 185.923 233.863 186.136C233.479 186.35 233.17 186.648 232.935 187.032C232.711 187.406 232.599 187.822 232.599 188.28V193H231.271V184.92Z" fill="white"/>
<path d="M227.059 181.72H228.515V193H227.059V181.72Z" fill="white"/>
<path d="M219.449 193.304C218.777 193.304 218.238 193.085 217.833 192.648C217.428 192.21 217.225 191.634 217.225 190.92V185.976H215.913V184.92H217.225L217.529 182.312H218.569L218.553 184.92H220.633V185.976H218.553V190.872C218.553 191.256 218.665 191.57 218.889 191.816C219.113 192.061 219.417 192.184 219.801 192.184C219.929 192.184 220.084 192.168 220.265 192.136C220.446 192.104 220.612 192.066 220.761 192.024V193.096C220.345 193.234 219.908 193.304 219.449 193.304Z" fill="white"/>
<path d="M209.933 193.256C209.059 193.256 208.355 193.048 207.821 192.632C207.299 192.206 207.037 191.646 207.037 190.952C207.037 190.227 207.347 189.619 207.965 189.128C208.584 188.638 209.48 188.328 210.653 188.2L212.893 187.928V187.608C212.893 187.064 212.707 186.632 212.333 186.312C211.96 185.982 211.443 185.816 210.781 185.816C210.163 185.816 209.672 185.96 209.309 186.248C208.947 186.526 208.771 186.915 208.781 187.416H207.437C207.437 186.563 207.741 185.886 208.349 185.384C208.957 184.872 209.773 184.616 210.797 184.616C211.843 184.616 212.675 184.894 213.293 185.448C213.912 185.992 214.221 186.723 214.221 187.64V193H212.893V191.816H212.749C212.152 192.776 211.213 193.256 209.933 193.256ZM210.125 192.152C210.669 192.152 211.149 192.051 211.565 191.848C211.981 191.646 212.307 191.363 212.541 191C212.776 190.638 212.893 190.232 212.893 189.784V189.064L210.653 189.32C209.864 189.416 209.283 189.608 208.909 189.896C208.547 190.174 208.365 190.515 208.365 190.92C208.365 191.304 208.52 191.608 208.829 191.832C209.149 192.046 209.581 192.152 210.125 192.152Z" fill="white"/>
<path d="M201.457 193.32C200.625 193.32 199.878 193.128 199.217 192.744C198.556 192.36 198.038 191.832 197.665 191.16C197.292 190.477 197.105 189.709 197.105 188.856C197.105 188.045 197.286 187.32 197.649 186.68C198.022 186.029 198.534 185.522 199.185 185.16C199.836 184.786 200.572 184.6 201.393 184.6C202.204 184.6 202.929 184.786 203.569 185.16C204.22 185.522 204.726 186.029 205.089 186.68C205.452 187.32 205.633 188.05 205.633 188.872C205.633 189.106 205.628 189.282 205.617 189.4H198.465C198.561 190.221 198.881 190.882 199.425 191.384C199.98 191.874 200.668 192.12 201.489 192.12C202.086 192.12 202.63 191.981 203.121 191.704C203.622 191.416 204.001 191.032 204.257 190.552L205.361 191.112C205.03 191.805 204.518 192.349 203.825 192.744C203.142 193.128 202.353 193.32 201.457 193.32ZM204.241 188.232C204.124 187.496 203.798 186.909 203.265 186.472C202.742 186.024 202.097 185.8 201.329 185.8C200.582 185.8 199.948 186.024 199.425 186.472C198.913 186.92 198.598 187.506 198.481 188.232H204.241Z" fill="white"/>
<path d="M191.537 184.92H192.833V186.008H192.977C193.158 185.645 193.451 185.346 193.857 185.112C194.262 184.877 194.689 184.76 195.137 184.76C195.542 184.76 195.873 184.829 196.129 184.968V186.2C195.755 186.04 195.355 185.96 194.929 185.96C194.321 185.96 193.825 186.21 193.441 186.712C193.057 187.202 192.865 187.848 192.865 188.648V193H191.537V184.92Z" fill="white"/>
<path d="M181.833 181.24H183.161V185.944H183.321C183.609 185.518 183.972 185.187 184.409 184.952C184.847 184.718 185.332 184.6 185.865 184.6C186.537 184.6 187.124 184.755 187.625 185.064C188.137 185.363 188.532 185.784 188.809 186.328C189.087 186.862 189.225 187.47 189.225 188.152V193H187.897V188.152C187.897 187.448 187.7 186.883 187.306 186.456C186.911 186.019 186.372 185.8 185.689 185.8C185.241 185.8 184.82 185.907 184.425 186.12C184.041 186.334 183.732 186.632 183.497 187.016C183.273 187.39 183.161 187.811 183.161 188.28V193H181.833V181.24Z" fill="white"/>
<path d="M175.209 183H171.481V181.72H180.409V183H176.665V193H175.209V183Z" fill="white"/>
<path d="M162.301 193.32C161.469 193.32 160.722 193.128 160.061 192.744C159.4 192.36 158.882 191.832 158.509 191.16C158.136 190.477 157.949 189.709 157.949 188.856C157.949 188.045 158.13 187.32 158.493 186.68C158.866 186.029 159.378 185.522 160.029 185.16C160.68 184.786 161.416 184.6 162.237 184.6C163.048 184.6 163.773 184.786 164.413 185.16C165.064 185.522 165.57 186.029 165.933 186.68C166.296 187.32 166.477 188.05 166.477 188.872C166.477 189.106 166.472 189.282 166.461 189.4H159.309C159.405 190.221 159.725 190.882 160.269 191.384C160.824 191.874 161.512 192.12 162.333 192.12C162.93 192.12 163.474 191.981 163.965 191.704C164.466 191.416 164.845 191.032 165.101 190.552L166.205 191.112C165.874 191.805 165.362 192.349 164.669 192.744C163.986 193.128 163.197 193.32 162.301 193.32ZM165.085 188.232C164.968 187.496 164.642 186.909 164.109 186.472C163.586 186.024 162.941 185.8 162.173 185.8C161.426 185.8 160.792 186.024 160.269 186.472C159.757 186.92 159.442 187.506 159.325 188.232H165.085Z" fill="white"/>
<path d="M152.36 193.32C151.56 193.32 150.84 193.133 150.2 192.76C149.56 192.386 149.059 191.869 148.696 191.208C148.333 190.546 148.152 189.805 148.152 188.984C148.152 188.152 148.328 187.405 148.68 186.744C149.043 186.072 149.544 185.549 150.184 185.176C150.824 184.792 151.549 184.6 152.36 184.6C153.011 184.6 153.619 184.728 154.184 184.984C154.749 185.24 155.219 185.597 155.592 186.056C155.965 186.504 156.2 187.01 156.296 187.576L155 187.752C154.861 187.176 154.541 186.706 154.04 186.344C153.549 185.981 152.995 185.8 152.376 185.8C151.832 185.8 151.336 185.933 150.888 186.2C150.451 186.466 150.104 186.84 149.848 187.32C149.603 187.8 149.48 188.344 149.48 188.952C149.48 189.57 149.603 190.12 149.848 190.6C150.104 191.08 150.451 191.453 150.888 191.72C151.325 191.986 151.816 192.12 152.36 192.12C152.989 192.12 153.549 191.944 154.04 191.592C154.531 191.229 154.856 190.765 155.016 190.2L156.328 190.376C156.211 190.941 155.96 191.448 155.576 191.896C155.192 192.344 154.717 192.696 154.152 192.952C153.597 193.197 153 193.32 152.36 193.32Z" fill="white"/>
<path d="M145.321 183.384C145.044 183.384 144.814 183.293 144.633 183.112C144.452 182.931 144.361 182.701 144.361 182.424C144.361 182.157 144.452 181.939 144.633 181.768C144.814 181.587 145.044 181.496 145.321 181.496C145.598 181.496 145.822 181.581 145.993 181.752C146.174 181.923 146.265 182.147 146.265 182.424C146.265 182.701 146.174 182.931 145.993 183.112C145.822 183.293 145.598 183.384 145.321 183.384ZM144.649 184.92H145.977V193H144.649V184.92Z" fill="white"/>
<path d="M140.74 181.24H142.068V193H140.74V181.24Z" fill="white"/>
<path d="M132.838 181.72H134.822L139.03 193H137.638L136.678 190.472H130.934L129.974 193H128.582L132.838 181.72ZM136.262 189.272L133.894 183H133.75L131.366 189.272H136.262Z" fill="white"/>
</svg>
