<svg width="446" height="294" viewBox="0 0 446 294" fill="none" xmlns="http://www.w3.org/2000/svg">
<path d="M182.023 145.001L195.697 137.085L209.371 129.168L223.045 121.252L236.719 129.168L250.393 137.085L264.067 145.001L250.393 152.918L236.719 160.834L223.045 168.751L209.371 160.834L195.697 152.918L182.023 145.001Z" fill="#BEEBFF" stroke="#08141F" stroke-width="2"/>
<path opacity="0.9" d="M182.023 128.882L195.697 120.966L209.371 113.049L223.045 105.133L236.719 113.049L250.393 120.966L264.067 128.882L250.393 136.799L236.719 144.715L223.045 152.632L209.371 144.715L195.697 136.799L182.023 128.882Z" fill="#D7F3FF" stroke="#08141F" stroke-width="2"/>
<path d="M182.023 97.2161L195.697 89.2997L209.371 81.3832L223.045 73.4668L236.719 81.3832L250.393 89.2997L264.067 97.2161V113.049L250.393 120.966L236.719 128.882L223.045 136.798L209.371 128.882L195.697 120.966L182.023 113.049V97.2161Z" fill="white"/>
<path d="M195.697 89.2997L182.023 97.2161M195.697 89.2997L209.371 97.2161M195.697 89.2997L209.371 81.3832M182.023 97.2161L195.697 105.133M182.023 97.2161V113.049L195.697 120.966M209.371 97.2161L195.697 105.133M209.371 97.2161L223.045 89.2997M209.371 97.2161L223.045 105.133M209.371 81.3832L223.045 89.2997M209.371 81.3832L223.045 73.4668L236.719 81.3832M195.697 105.133V120.966M195.697 105.133L209.371 113.049M195.697 120.966L209.371 128.882M209.371 113.049L223.045 105.133M209.371 113.049L223.045 120.966M209.371 113.049V128.882M223.045 89.2997L236.719 97.2161M223.045 89.2997L236.719 81.3832M223.045 105.133L236.719 97.2161M223.045 105.133L236.719 113.049M236.719 81.3832L250.393 89.2997M236.719 97.2161L250.393 89.2997M236.719 97.2161L250.393 105.133M209.371 128.882L223.045 136.798M250.393 89.2997L264.067 97.2161M250.393 105.133L236.719 113.049M250.393 105.133L264.067 97.2161M250.393 105.133V120.966M236.719 113.049L223.045 120.966M236.719 113.049V128.882M223.045 120.966V136.798M264.067 97.2161V113.049L250.393 120.966M223.045 136.798L236.719 128.882M236.719 128.882L250.393 120.966" stroke="#08141F" stroke-width="2"/>
<path d="M168.493 89.1557L182.167 81.2393L195.841 89.1557V104.989L182.167 112.905L168.493 104.989V89.1557Z" fill="#D4FC63" fill-opacity="0.9"/>
<path d="M168.493 89.1557L182.167 81.2393L195.841 89.1557M168.493 89.1557L182.167 97.0722M168.493 89.1557V104.989L182.167 112.905M195.841 89.1557L182.167 97.0722M195.841 89.1557V104.989L182.167 112.905M182.167 97.0722V112.905" stroke="#08141F" stroke-width="2"/>
<path d="M195.697 105.132L209.371 97.2158L223.045 105.132L209.371 113.049V128.882L195.697 120.965V105.132Z" fill="white"/>
<path d="M195.697 105.132L209.371 97.2158L223.045 105.132L209.371 113.049M195.697 105.132V120.965L209.371 128.882V113.049M195.697 105.132L209.371 113.049" stroke="#08141F" stroke-width="2"/>
<path d="M270.646 184.92H271.942V186.008H272.086C272.267 185.645 272.561 185.346 272.966 185.112C273.371 184.877 273.798 184.76 274.246 184.76C274.651 184.76 274.982 184.829 275.238 184.968V186.2C274.865 186.04 274.465 185.96 274.038 185.96C273.43 185.96 272.934 186.21 272.55 186.712C272.166 187.202 271.974 187.848 271.974 188.648V193H270.646V184.92Z" fill="white"/>
<path d="M264.284 193.32C263.442 193.32 262.69 193.133 262.028 192.76C261.378 192.386 260.866 191.869 260.492 191.208C260.13 190.546 259.948 189.794 259.948 188.952C259.948 188.109 260.13 187.362 260.492 186.712C260.866 186.05 261.378 185.533 262.028 185.16C262.69 184.786 263.442 184.6 264.284 184.6C265.116 184.6 265.863 184.786 266.524 185.16C267.186 185.533 267.698 186.05 268.06 186.712C268.434 187.373 268.62 188.12 268.62 188.952C268.62 189.794 268.434 190.546 268.06 191.208C267.698 191.869 267.186 192.386 266.524 192.76C265.863 193.133 265.116 193.32 264.284 193.32ZM264.284 192.12C264.86 192.12 265.378 191.986 265.836 191.72C266.295 191.442 266.652 191.064 266.908 190.584C267.164 190.104 267.292 189.56 267.292 188.952C267.292 188.354 267.164 187.816 266.908 187.336C266.652 186.856 266.295 186.482 265.836 186.216C265.378 185.938 264.86 185.8 264.284 185.8C263.708 185.8 263.191 185.938 262.732 186.216C262.274 186.482 261.916 186.856 261.66 187.336C261.404 187.816 261.276 188.354 261.276 188.952C261.276 189.56 261.404 190.104 261.66 190.584C261.916 191.064 262.274 191.442 262.732 191.72C263.191 191.986 263.708 192.12 264.284 192.12Z" fill="white"/>
<path d="M257.355 193.304C256.683 193.304 256.145 193.085 255.739 192.648C255.334 192.21 255.131 191.634 255.131 190.92V185.976H253.819V184.92H255.131L255.435 182.312H256.475L256.459 184.92H258.539V185.976H256.459V190.872C256.459 191.256 256.571 191.57 256.795 191.816C257.019 192.061 257.323 192.184 257.707 192.184C257.835 192.184 257.99 192.168 258.171 192.136C258.353 192.104 258.518 192.066 258.667 192.024V193.096C258.251 193.234 257.814 193.304 257.355 193.304Z" fill="white"/>
<path d="M248.735 193.32C247.935 193.32 247.215 193.133 246.575 192.76C245.935 192.386 245.434 191.869 245.071 191.208C244.708 190.546 244.527 189.805 244.527 188.984C244.527 188.152 244.703 187.405 245.055 186.744C245.418 186.072 245.919 185.549 246.559 185.176C247.199 184.792 247.924 184.6 248.735 184.6C249.386 184.6 249.994 184.728 250.559 184.984C251.124 185.24 251.594 185.597 251.967 186.056C252.34 186.504 252.575 187.01 252.671 187.576L251.375 187.752C251.236 187.176 250.916 186.706 250.415 186.344C249.924 185.981 249.37 185.8 248.751 185.8C248.207 185.8 247.711 185.933 247.263 186.2C246.826 186.466 246.479 186.84 246.223 187.32C245.978 187.8 245.855 188.344 245.855 188.952C245.855 189.57 245.978 190.12 246.223 190.6C246.479 191.08 246.826 191.453 247.263 191.72C247.7 191.986 248.191 192.12 248.735 192.12C249.364 192.12 249.924 191.944 250.415 191.592C250.906 191.229 251.231 190.765 251.391 190.2L252.703 190.376C252.586 190.941 252.335 191.448 251.951 191.896C251.567 192.344 251.092 192.696 250.527 192.952C249.972 193.197 249.375 193.32 248.735 193.32Z" fill="white"/>
<path d="M238.723 193.32C237.891 193.32 237.144 193.128 236.483 192.744C235.821 192.36 235.304 191.832 234.931 191.16C234.557 190.477 234.371 189.709 234.371 188.856C234.371 188.045 234.552 187.32 234.915 186.68C235.288 186.029 235.8 185.522 236.451 185.16C237.101 184.786 237.837 184.6 238.659 184.6C239.469 184.6 240.195 184.786 240.835 185.16C241.485 185.522 241.992 186.029 242.355 186.68C242.717 187.32 242.899 188.05 242.899 188.872C242.899 189.106 242.893 189.282 242.883 189.4H235.731C235.827 190.221 236.147 190.882 236.691 191.384C237.245 191.874 237.933 192.12 238.755 192.12C239.352 192.12 239.896 191.981 240.387 191.704C240.888 191.416 241.267 191.032 241.523 190.552L242.627 191.112C242.296 191.805 241.784 192.349 241.091 192.744C240.408 193.128 239.619 193.32 238.723 193.32ZM241.507 188.232C241.389 187.496 241.064 186.909 240.531 186.472C240.008 186.024 239.363 185.8 238.595 185.8C237.848 185.8 237.213 186.024 236.691 186.472C236.179 186.92 235.864 187.506 235.747 188.232H241.507Z" fill="white"/>
<path d="M231.762 193.304C231.09 193.304 230.551 193.085 230.146 192.648C229.74 192.21 229.538 191.634 229.538 190.92V185.976H228.226V184.92H229.538L229.842 182.312H230.882L230.866 184.92H232.946V185.976H230.866V190.872C230.866 191.256 230.978 191.57 231.202 191.816C231.426 192.061 231.73 192.184 232.114 192.184C232.242 192.184 232.396 192.168 232.578 192.136C232.759 192.104 232.924 192.066 233.074 192.024V193.096C232.658 193.234 232.22 193.304 231.762 193.304Z" fill="white"/>
<path d="M222.784 193.32C221.942 193.32 221.19 193.133 220.528 192.76C219.878 192.386 219.366 191.869 218.992 191.208C218.63 190.546 218.448 189.794 218.448 188.952C218.448 188.109 218.63 187.362 218.992 186.712C219.366 186.05 219.878 185.533 220.528 185.16C221.19 184.786 221.942 184.6 222.784 184.6C223.616 184.6 224.363 184.786 225.024 185.16C225.686 185.533 226.198 186.05 226.56 186.712C226.934 187.373 227.12 188.12 227.12 188.952C227.12 189.794 226.934 190.546 226.56 191.208C226.198 191.869 225.686 192.386 225.024 192.76C224.363 193.133 223.616 193.32 222.784 193.32ZM222.784 192.12C223.36 192.12 223.878 191.986 224.336 191.72C224.795 191.442 225.152 191.064 225.408 190.584C225.664 190.104 225.792 189.56 225.792 188.952C225.792 188.354 225.664 187.816 225.408 187.336C225.152 186.856 224.795 186.482 224.336 186.216C223.878 185.938 223.36 185.8 222.784 185.8C222.208 185.8 221.691 185.938 221.232 186.216C220.774 186.482 220.416 186.856 220.16 187.336C219.904 187.816 219.776 188.354 219.776 188.952C219.776 189.56 219.904 190.104 220.16 190.584C220.416 191.064 220.774 191.442 221.232 191.72C221.691 191.986 222.208 192.12 222.784 192.12Z" fill="white"/>
<path d="M212.896 184.92H214.192V186.008H214.336C214.517 185.645 214.811 185.346 215.216 185.112C215.621 184.877 216.048 184.76 216.496 184.76C216.901 184.76 217.232 184.829 217.488 184.968V186.2C217.115 186.04 216.715 185.96 216.288 185.96C215.68 185.96 215.184 186.21 214.8 186.712C214.416 187.202 214.224 187.848 214.224 188.648V193H212.896V184.92Z" fill="white"/>
<path d="M202.45 181.72H206.946C208.183 181.72 209.164 182.024 209.89 182.632C210.626 183.24 210.994 184.077 210.994 185.144C210.994 185.848 210.823 186.466 210.482 187C210.151 187.522 209.676 187.928 209.058 188.216C208.45 188.493 207.746 188.632 206.946 188.632H203.874V193H202.45V181.72ZM206.946 187.336C207.756 187.336 208.391 187.144 208.85 186.76C209.319 186.365 209.554 185.837 209.554 185.176C209.554 184.504 209.319 183.976 208.85 183.592C208.391 183.197 207.756 183 206.946 183H203.874V187.336H206.946Z" fill="white"/>
<path d="M196.006 188.792L193.126 184.92H194.55L196.758 187.928H196.918L199.126 184.92H200.55L197.67 188.792L200.71 193H199.238L196.918 189.704H196.758L194.438 193H192.966L196.006 188.792Z" fill="white"/>
<path d="M187.926 193.32C187.094 193.32 186.347 193.128 185.686 192.744C185.024 192.36 184.507 191.832 184.134 191.16C183.76 190.477 183.574 189.709 183.574 188.856C183.574 188.045 183.755 187.32 184.118 186.68C184.491 186.029 185.003 185.522 185.654 185.16C186.304 184.786 187.04 184.6 187.862 184.6C188.672 184.6 189.398 184.786 190.038 185.16C190.688 185.522 191.195 186.029 191.558 186.68C191.92 187.32 192.102 188.05 192.102 188.872C192.102 189.106 192.096 189.282 192.086 189.4H184.934C185.03 190.221 185.35 190.882 185.894 191.384C186.448 191.874 187.136 192.12 187.958 192.12C188.555 192.12 189.099 191.981 189.59 191.704C190.091 191.416 190.47 191.032 190.726 190.552L191.83 191.112C191.499 191.805 190.987 192.349 190.294 192.744C189.611 193.128 188.822 193.32 187.926 193.32ZM190.71 188.232C190.592 187.496 190.267 186.909 189.734 186.472C189.211 186.024 188.566 185.8 187.798 185.8C187.051 185.8 186.416 186.024 185.894 186.472C185.382 186.92 185.067 187.506 184.95 188.232H190.71Z" fill="white"/>
<path d="M171.809 181.72H175.425C176.716 181.72 177.852 181.954 178.833 182.424C179.814 182.882 180.572 183.538 181.105 184.392C181.649 185.245 181.921 186.232 181.921 187.352C181.921 188.472 181.649 189.458 181.105 190.312C180.572 191.165 179.814 191.826 178.833 192.296C177.852 192.765 176.716 193 175.425 193H171.809V181.72ZM175.425 191.72C176.428 191.72 177.308 191.544 178.065 191.192C178.833 190.84 179.425 190.333 179.841 189.672C180.268 189.01 180.481 188.237 180.481 187.352C180.481 186.466 180.268 185.698 179.841 185.048C179.425 184.386 178.833 183.88 178.065 183.528C177.308 183.176 176.428 183 175.425 183H173.265V191.72H175.425Z" fill="white"/>
</svg>
