<svg width="446" height="294" viewBox="0 0 446 294" fill="none" xmlns="http://www.w3.org/2000/svg">
<path d="M175.96 145.247L189.507 137.404L203.053 129.562L216.6 121.719L230.147 113.876L243.693 121.719L257.24 129.562L270.787 137.404L257.24 145.247L243.693 153.09L230.147 160.933L216.6 168.775L203.053 160.933L189.507 153.09L175.96 145.247Z" fill="#BEEBFF" stroke="#08141F" stroke-width="2"/>
<path opacity="0.9" d="M175.96 128.498L189.507 120.655L203.053 112.813L216.6 104.97L230.147 97.127L243.693 104.97L257.24 112.813L270.787 120.655L257.24 128.498L243.693 136.341L230.147 144.184L216.6 152.027L203.053 144.184L189.507 136.341L175.96 128.498Z" fill="#D7F3FF" stroke="#08141F" stroke-width="2"/>
<path d="M175.96 106.331L189.507 98.4884L203.053 90.6456L216.6 82.8028L230.147 74.96L243.693 82.8028L257.24 90.6456L270.787 98.4884V105.618L257.24 113.461L243.693 121.304L230.147 129.147L216.6 136.989L203.053 129.147L189.507 121.304L175.96 113.461V106.331Z" fill="white"/>
<path d="M189.507 98.4884L175.96 106.331M189.507 98.4884L203.053 106.331M189.507 98.4884L203.053 90.6456M175.96 106.331L189.507 114.174M175.96 106.331V113.461L189.507 121.304M203.053 106.331L189.507 114.174M203.053 106.331L216.6 98.4884M203.053 106.331L216.6 114.174M203.053 90.6456L216.6 98.4884M203.053 90.6456L216.6 82.8028M189.507 114.174V121.304M189.507 114.174L203.053 122.017M189.507 121.304L203.053 129.147M203.053 122.017L216.6 114.174M203.053 122.017L216.6 129.86M203.053 122.017V129.147M216.6 98.4884L230.147 106.331M216.6 98.4884L230.147 90.6456M216.6 114.174L230.147 106.331M216.6 114.174L230.147 122.017M216.6 82.8028L230.147 90.6456M216.6 82.8028L230.147 74.96L243.693 82.8028M230.147 106.331L243.693 98.4884M230.147 106.331L243.693 114.174M230.147 90.6456L243.693 98.4884M230.147 90.6456L243.693 82.8028M203.053 129.147L216.6 136.989M243.693 98.4884L257.24 106.331M243.693 98.4884L257.24 90.6456M243.693 114.174L230.147 122.017M243.693 114.174L257.24 106.331M243.693 114.174V121.304M230.147 122.017L216.6 129.86M230.147 122.017V129.147M216.6 129.86V136.989M257.24 106.331V113.461M257.24 106.331L270.787 98.4884M257.24 90.6456L243.693 82.8028M257.24 90.6456L270.787 98.4884M216.6 136.989L230.147 129.147M230.147 129.147L243.693 121.304M243.693 121.304L257.24 113.461M257.24 113.461L270.787 105.618V98.4884" stroke="#08141F" stroke-width="2"/>
<path d="M203.053 100.536L216.6 92.6934L230.147 100.536V106.24L216.6 114.083L203.053 106.24V100.536Z" fill="#D4FC63" fill-opacity="0.9"/>
<path d="M203.053 100.536L216.6 92.6934L230.147 100.536M203.053 100.536L216.6 108.379M203.053 100.536V106.24L216.6 114.083M230.147 100.536L216.6 108.379M230.147 100.536V106.24L216.6 114.083M216.6 108.379V114.083" stroke="#08141F" stroke-width="2"/>
<path d="M247.271 184.92H248.551V185.992H248.711C248.946 185.565 249.266 185.229 249.671 184.984C250.087 184.728 250.551 184.6 251.063 184.6C251.628 184.6 252.151 184.744 252.631 185.032C253.111 185.32 253.468 185.698 253.703 186.168H253.847C254.135 185.677 254.508 185.298 254.967 185.032C255.426 184.754 255.954 184.616 256.551 184.616C257.18 184.616 257.74 184.77 258.231 185.08C258.732 185.378 259.122 185.8 259.399 186.344C259.676 186.877 259.815 187.49 259.815 188.184V193H258.487V188.168C258.487 187.485 258.29 186.92 257.895 186.472C257.5 186.024 256.999 185.8 256.391 185.8C255.74 185.8 255.207 186.024 254.791 186.472C254.386 186.909 254.183 187.474 254.183 188.168V193H252.855V188.168C252.855 187.453 252.663 186.882 252.279 186.456C251.906 186.018 251.404 185.8 250.775 185.8C250.124 185.8 249.596 186.018 249.191 186.456C248.796 186.882 248.599 187.453 248.599 188.168V193H247.271V184.92Z" fill="white"/>
<path d="M244.024 183.384C243.747 183.384 243.518 183.293 243.336 183.112C243.155 182.931 243.064 182.701 243.064 182.424C243.064 182.157 243.155 181.939 243.336 181.768C243.518 181.587 243.747 181.496 244.024 181.496C244.302 181.496 244.526 181.581 244.696 181.752C244.878 181.923 244.968 182.147 244.968 182.424C244.968 182.701 244.878 182.931 244.696 183.112C244.526 183.293 244.302 183.384 244.024 183.384ZM243.352 184.92H244.68V193H243.352V184.92Z" fill="white"/>
<path d="M236.704 193.4C235.722 193.4 234.869 193.24 234.144 192.92C233.429 192.59 232.88 192.12 232.496 191.512C232.112 190.894 231.92 190.168 231.92 189.336H233.36C233.37 190.211 233.669 190.894 234.256 191.384C234.842 191.875 235.664 192.12 236.72 192.12C237.637 192.12 238.352 191.939 238.864 191.576C239.376 191.203 239.632 190.696 239.632 190.056C239.632 189.576 239.488 189.203 239.2 188.936C238.912 188.659 238.554 188.462 238.128 188.344C237.701 188.216 237.114 188.094 236.368 187.976C235.514 187.838 234.789 187.667 234.192 187.464C233.594 187.262 233.093 186.936 232.688 186.488C232.293 186.04 232.096 185.438 232.096 184.68C232.096 183.656 232.469 182.84 233.216 182.232C233.973 181.624 235.024 181.32 236.368 181.32C237.754 181.32 238.842 181.662 239.632 182.344C240.421 183.016 240.821 183.95 240.832 185.144H239.424C239.424 184.344 239.157 183.72 238.624 183.272C238.09 182.824 237.338 182.6 236.368 182.6C235.472 182.6 234.778 182.782 234.288 183.144C233.797 183.496 233.552 183.982 233.552 184.6C233.552 185.07 233.69 185.438 233.968 185.704C234.245 185.96 234.597 186.152 235.024 186.28C235.45 186.398 236.016 186.51 236.72 186.616C237.616 186.766 238.362 186.936 238.96 187.128C239.557 187.32 240.058 187.646 240.464 188.104C240.88 188.552 241.088 189.171 241.088 189.96C241.088 191.027 240.698 191.87 239.92 192.488C239.152 193.096 238.08 193.4 236.704 193.4Z" fill="white"/>
<path d="M225.36 193.32C224.581 193.32 223.872 193.134 223.232 192.76C222.592 192.376 222.085 191.854 221.712 191.192C221.349 190.531 221.168 189.784 221.168 188.952C221.168 188.12 221.349 187.374 221.712 186.712C222.074 186.051 222.576 185.534 223.216 185.16C223.856 184.787 224.565 184.6 225.344 184.6C225.994 184.6 226.576 184.734 227.088 185C227.6 185.256 228.005 185.63 228.304 186.12H228.464V181.24H229.792V193H228.464V191.752H228.304C228.005 192.254 227.6 192.643 227.088 192.92C226.586 193.187 226.01 193.32 225.36 193.32ZM225.504 192.12C226.069 192.12 226.576 191.982 227.024 191.704C227.482 191.427 227.84 191.048 228.096 190.568C228.362 190.078 228.496 189.539 228.496 188.952C228.496 188.366 228.368 187.832 228.112 187.352C227.856 186.872 227.498 186.494 227.04 186.216C226.581 185.939 226.069 185.8 225.504 185.8C224.928 185.8 224.41 185.939 223.952 186.216C223.504 186.494 223.146 186.872 222.88 187.352C222.624 187.832 222.496 188.366 222.496 188.952C222.496 189.55 222.624 190.088 222.88 190.568C223.146 191.048 223.509 191.427 223.968 191.704C224.426 191.982 224.938 192.12 225.504 192.12Z" fill="white"/>
<path d="M215.599 184.92H216.895V186.008H217.039C217.22 185.645 217.514 185.346 217.919 185.112C218.324 184.877 218.751 184.76 219.199 184.76C219.604 184.76 219.935 184.829 220.191 184.968V186.2C219.818 186.04 219.418 185.96 218.991 185.96C218.383 185.96 217.887 186.21 217.503 186.712C217.119 187.202 216.927 187.848 216.927 188.648V193H215.599V184.92Z" fill="white"/>
<path d="M209.011 193.256C208.137 193.256 207.433 193.048 206.899 192.632C206.377 192.206 206.115 191.646 206.115 190.952C206.115 190.227 206.425 189.619 207.043 189.128C207.662 188.638 208.558 188.328 209.731 188.2L211.971 187.928V187.608C211.971 187.064 211.785 186.632 211.411 186.312C211.038 185.982 210.521 185.816 209.859 185.816C209.241 185.816 208.75 185.96 208.387 186.248C208.025 186.526 207.849 186.915 207.859 187.416H206.515C206.515 186.563 206.819 185.886 207.427 185.384C208.035 184.872 208.851 184.616 209.875 184.616C210.921 184.616 211.753 184.894 212.371 185.448C212.99 185.992 213.299 186.723 213.299 187.64V193H211.971V191.816H211.827C211.23 192.776 210.291 193.256 209.011 193.256ZM209.203 192.152C209.747 192.152 210.227 192.051 210.643 191.848C211.059 191.646 211.385 191.363 211.619 191C211.854 190.638 211.971 190.232 211.971 189.784V189.064L209.731 189.32C208.942 189.416 208.361 189.608 207.987 189.896C207.625 190.174 207.443 190.515 207.443 190.92C207.443 191.304 207.598 191.608 207.907 191.832C208.227 192.046 208.659 192.152 209.203 192.152Z" fill="white"/>
<path d="M199.352 193.4C198.242 193.4 197.24 193.144 196.344 192.632C195.458 192.11 194.765 191.395 194.264 190.488C193.762 189.571 193.512 188.536 193.512 187.384C193.512 186.232 193.757 185.198 194.248 184.28C194.749 183.352 195.442 182.627 196.328 182.104C197.224 181.582 198.232 181.32 199.352 181.32C200.184 181.32 200.973 181.496 201.72 181.848C202.477 182.2 203.117 182.691 203.64 183.32C204.162 183.939 204.514 184.638 204.696 185.416L203.272 185.608C203.133 185.032 202.872 184.515 202.488 184.056C202.104 183.598 201.634 183.24 201.08 182.984C200.536 182.728 199.96 182.6 199.352 182.6C198.509 182.6 197.752 182.808 197.08 183.224C196.418 183.63 195.901 184.195 195.528 184.92C195.154 185.635 194.968 186.446 194.968 187.352C194.968 188.259 195.154 189.075 195.528 189.8C195.912 190.526 196.434 191.096 197.096 191.512C197.768 191.918 198.52 192.12 199.352 192.12C199.949 192.12 200.52 191.998 201.064 191.752C201.608 191.496 202.077 191.15 202.472 190.712C202.866 190.264 203.138 189.768 203.288 189.224L204.68 189.496C204.498 190.243 204.146 190.915 203.624 191.512C203.101 192.099 202.466 192.563 201.72 192.904C200.973 193.235 200.184 193.4 199.352 193.4Z" fill="white"/>
<path d="M187.821 193.32C187.512 193.32 187.165 193.288 186.781 193.224C186.408 193.17 186.067 193.096 185.757 193V191.752C186.045 191.837 186.349 191.906 186.669 191.96C187 192.013 187.277 192.04 187.501 192.04C188.173 192.04 188.717 191.821 189.133 191.384C189.56 190.946 189.773 190.36 189.773 189.624V181.72H191.229V189.608C191.229 190.333 191.08 190.978 190.781 191.544C190.493 192.098 190.088 192.536 189.565 192.856C189.053 193.165 188.472 193.32 187.821 193.32Z" fill="white"/>
</svg>
