<svg width="300" height="123" viewBox="0 0 300 123" fill="none" xmlns="http://www.w3.org/2000/svg">
<path d="M175.862 82.354H157.345C156.874 82.354 156.56 82.0406 156.56 81.5706L156.559 37.8994C156.559 37.4294 156.246 37.2727 155.775 37.2727H144.005C143.535 37.2727 143.221 37.4294 143.221 37.8994L143.221 93.3223C143.221 93.7923 143.535 94.1057 144.006 94.1057H175.862C176.333 94.1057 176.646 93.7923 176.646 93.3223V83.1375C176.646 82.6674 176.333 82.354 175.862 82.354Z" fill="#3454E1"/>
<path d="M182.168 56.5358V93.4789C182.168 93.8707 182.403 94.1057 182.795 94.1057H194.094C194.486 94.1057 194.722 93.8707 194.722 93.4789V56.5358C194.722 56.1441 194.486 55.909 194.094 55.909H182.795C182.403 55.909 182.168 56.1441 182.168 56.5358Z" fill="#3454E1"/>
<path d="M239.072 80.2387L228.558 78.8285C228.087 78.7501 227.851 78.8285 227.694 79.2986C226.91 81.8056 224.87 84.5477 221.025 84.5477C215.611 84.5477 212.787 79.847 212.787 73.4227C212.787 66.9985 215.611 62.3763 221.025 62.3763C224.87 62.3763 226.91 64.9615 227.694 67.7036C227.773 68.0169 228.087 68.252 228.558 68.1736L239.072 66.7635C239.385 66.6851 239.464 66.1367 239.385 65.8234C238.679 60.4176 232.795 52.5832 220.79 52.5832C208.471 52.5832 200.232 61.8277 200.232 73.4227C200.232 85.0177 208.471 94.3407 220.79 94.3407C232.795 94.3407 238.601 86.4279 239.385 81.1005C239.464 80.7871 239.385 80.3171 239.072 80.2387Z" fill="#3454E1"/>
<path d="M282.702 73.1877C282.702 62.7679 276.425 52.5832 262.694 52.5832C250.375 52.5832 242.529 61.9061 242.529 73.4227C242.529 85.0177 249.747 94.3407 263.4 94.3407C273.6 94.3407 279.642 88.9349 281.76 82.9024C281.917 82.5107 281.682 82.2757 281.289 82.1973L270.775 80.7871C270.678 80.7629 270.581 80.7611 270.489 80.7795C270.057 80.8655 269.871 81.3648 269.592 81.7058C268.435 83.1231 266.513 84.5477 263.165 84.5477C259.791 84.5477 255.789 81.8056 255.789 77.8884C255.789 77.4183 255.946 77.2616 256.338 77.2616H282.074C282.466 77.2616 282.702 77.0266 282.702 76.6349V73.1877ZM262.694 61.5928C267.323 61.5928 269.363 64.5698 269.363 68.487C269.363 68.8004 269.128 69.0354 268.735 69.0354H256.338C256.024 69.0354 255.868 68.8004 255.868 68.3303C255.946 64.5698 258.378 61.5928 262.694 61.5928Z" fill="#3454E1"/>
<path d="M287.449 34.1717V93.4789C287.449 93.8707 287.684 94.1057 288.077 94.1057H299.375C299.767 94.1057 300.003 93.8707 300.003 93.4789V34.1717C300.003 33.78 299.767 33.5449 299.375 33.5449H288.077C287.684 33.5449 287.449 33.78 287.449 34.1717Z" fill="#3454E1"/>
<path d="M182.167 37.8994L182.168 48.4544C182.168 48.8461 182.403 49.0811 182.795 49.0811H194.094C194.486 49.0811 194.722 48.8461 194.722 48.4544L194.721 37.8994C194.721 37.5077 194.486 37.2727 194.093 37.2727H182.795C182.402 37.2727 182.167 37.5077 182.167 37.8994Z" fill="#3454E1"/>
<path d="M73.916 109.086V57.6367L119.453 83.1994L73.916 109.086Z" fill="#3D7BF4"/>
<path d="M71.2764 109.414L50.1514 97.4209L71.2764 85.4287V109.414ZM46.1963 95.1768L25.0713 83.1836L46.1963 71.1904V95.1768ZM69.9619 83.1836L48.8369 95.1768V71.1904L69.9619 83.1836ZM44.8818 68.9453L23.7568 80.9385V56.9521L44.8818 68.9453ZM71.2764 80.9385L50.1514 68.9453L71.2764 56.9521V80.9385ZM46.1963 66.7002L25.0713 54.707L46.1963 42.7139V66.7002ZM69.9619 54.707L48.8369 66.7002V42.7139L69.9619 54.707ZM44.8818 40.4688L23.7568 52.4619V28.4756L44.8818 40.4688ZM71.2764 52.4619L50.1514 40.4688L71.2764 28.4756V52.4619ZM46.1963 38.2236L25.0713 26.2305L46.1963 14.2383V38.2236ZM69.9619 26.2305L48.8369 38.2236V14.2383L69.9619 26.2305ZM44.8818 11.9932L23.7568 23.9863V0L44.8818 11.9932Z" fill="#3454E1"/>
<path fill-rule="evenodd" clip-rule="evenodd" d="M0 96.6737V15.0449L46.1971 41.2548V122.998L0 96.6737Z" fill="#3454E1"/>
</svg>
