<svg width="446" height="294" viewBox="0 0 446 294" fill="none" xmlns="http://www.w3.org/2000/svg">
<path d="M181.933 141.81L195.746 133.813L209.56 125.816L223.373 117.818L237.186 125.816L251 133.813L264.813 141.81L251 149.807L237.186 157.804L223.373 165.801L209.56 157.804L195.746 149.807L181.933 141.81Z" fill="#BEEBFF" stroke="#08141F" stroke-width="2"/>
<path opacity="0.9" d="M181.933 125.93L195.746 117.933L209.56 109.936L223.373 101.938L237.186 109.936L251 117.933L264.813 125.93L251 133.927L237.186 141.924L223.373 149.922L209.56 141.924L195.746 133.927L181.933 125.93Z" fill="#D7F3FF" stroke="#08141F" stroke-width="2"/>
<path d="M195.746 101.939L209.559 93.9415L223.373 85.9443L237.186 93.9415L250.999 101.939V117.933L237.186 125.93L223.373 133.928L209.559 125.93L195.746 117.933V101.939Z" fill="white"/>
<path d="M209.559 93.9415L195.746 101.939M209.559 93.9415L223.373 101.939M209.559 93.9415L223.373 85.9443L237.186 93.9415M195.746 101.939L209.559 109.936M195.746 101.939V117.933L209.559 125.93M223.373 101.939L209.559 109.936M223.373 101.939L237.186 93.9415M223.373 101.939L237.186 109.936M237.186 93.9415L250.999 101.939M209.559 109.936V125.93M209.559 109.936L223.373 117.933M209.559 125.93L223.373 133.928M223.373 117.933L237.186 109.936M223.373 117.933V133.928M237.186 109.936L250.999 101.939M237.186 109.936V125.93M250.999 101.939V117.933L237.186 125.93M223.373 133.928L237.186 125.93" stroke="#08141F" stroke-width="2"/>
<path d="M181.933 93.9406L195.746 85.9434L209.56 77.9463L223.373 85.9434V101.938L209.56 109.935L195.746 117.932L181.933 109.935V93.9406Z" fill="white"/>
<path d="M181.933 93.9406L195.746 85.9434M181.933 93.9406V109.935L195.746 117.932M181.933 93.9406L195.746 101.938M195.746 85.9434L209.56 77.9463L223.373 85.9434M195.746 85.9434L209.56 93.9406M195.746 117.932V101.938M195.746 117.932L209.56 109.935M195.746 101.938L209.56 93.9406M223.373 85.9434L209.56 93.9406M223.373 85.9434V101.938L209.56 109.935M209.56 93.9406V109.935" stroke="#08141F" stroke-width="2"/>
<path d="M223.373 85.9434L237.186 77.9463L251 85.9434L264.813 93.9406V109.935L251 117.932L237.186 109.935L223.373 101.938V85.9434Z" fill="white"/>
<path d="M223.373 85.9434L237.186 77.9463L251 85.9434M223.373 85.9434L237.186 93.9406M223.373 85.9434V101.938L237.186 109.935M251 85.9434L237.186 93.9406M251 85.9434L264.813 93.9406M237.186 93.9406V109.935M237.186 93.9406L251 101.938M237.186 109.935L251 117.932M251 101.938L264.813 93.9406M251 101.938V117.932M264.813 93.9406V109.935L251 117.932" stroke="#08141F" stroke-width="2"/>
<path d="M209.56 93.9415L223.373 85.9443L237.187 93.9415V109.936L223.373 117.933L209.56 109.936V93.9415Z" fill="#D4FC63" fill-opacity="0.9"/>
<path d="M209.56 93.9415L223.373 85.9443L237.187 93.9415M209.56 93.9415L223.373 101.939M209.56 93.9415V109.936L223.373 117.933M237.187 93.9415L223.373 101.939M237.187 93.9415V109.936L223.373 117.933M223.373 101.939V117.933" stroke="#08141F" stroke-width="2"/>
<path d="M315.802 184.92H317.098V186.008H317.242C317.424 185.645 317.717 185.346 318.122 185.112C318.528 184.877 318.954 184.76 319.402 184.76C319.808 184.76 320.138 184.829 320.394 184.968V186.2C320.021 186.04 319.621 185.96 319.194 185.96C318.586 185.96 318.09 186.21 317.706 186.712C317.322 187.202 317.13 187.848 317.13 188.648V193H315.802V184.92Z" fill="white"/>
<path d="M309.441 193.32C308.598 193.32 307.846 193.133 307.185 192.76C306.534 192.386 306.022 191.869 305.649 191.208C305.286 190.546 305.105 189.794 305.105 188.952C305.105 188.109 305.286 187.362 305.649 186.712C306.022 186.05 306.534 185.533 307.185 185.16C307.846 184.786 308.598 184.6 309.441 184.6C310.273 184.6 311.019 184.786 311.681 185.16C312.342 185.533 312.854 186.05 313.217 186.712C313.59 187.373 313.777 188.12 313.777 188.952C313.777 189.794 313.59 190.546 313.217 191.208C312.854 191.869 312.342 192.386 311.681 192.76C311.019 193.133 310.273 193.32 309.441 193.32ZM309.441 192.12C310.017 192.12 310.534 191.986 310.993 191.72C311.451 191.442 311.809 191.064 312.065 190.584C312.321 190.104 312.449 189.56 312.449 188.952C312.449 188.354 312.321 187.816 312.065 187.336C311.809 186.856 311.451 186.482 310.993 186.216C310.534 185.938 310.017 185.8 309.441 185.8C308.865 185.8 308.347 185.938 307.889 186.216C307.43 186.482 307.073 186.856 306.817 187.336C306.561 187.816 306.433 188.354 306.433 188.952C306.433 189.56 306.561 190.104 306.817 190.584C307.073 191.064 307.43 191.442 307.889 191.72C308.347 191.986 308.865 192.12 309.441 192.12Z" fill="white"/>
<path d="M302.512 193.304C301.84 193.304 301.301 193.085 300.896 192.648C300.49 192.21 300.288 191.634 300.288 190.92V185.976H298.976V184.92H300.288L300.592 182.312H301.632L301.616 184.92H303.696V185.976H301.616V190.872C301.616 191.256 301.728 191.57 301.952 191.816C302.176 192.061 302.48 192.184 302.864 192.184C302.992 192.184 303.146 192.168 303.328 192.136C303.509 192.104 303.674 192.066 303.824 192.024V193.096C303.408 193.234 302.97 193.304 302.512 193.304Z" fill="white"/>
<path d="M292.996 193.256C292.121 193.256 291.417 193.048 290.884 192.632C290.361 192.206 290.1 191.646 290.1 190.952C290.1 190.227 290.409 189.619 291.028 189.128C291.646 188.638 292.542 188.328 293.716 188.2L295.956 187.928V187.608C295.956 187.064 295.769 186.632 295.396 186.312C295.022 185.982 294.505 185.816 293.844 185.816C293.225 185.816 292.734 185.96 292.372 186.248C292.009 186.526 291.833 186.915 291.844 187.416H290.5C290.5 186.563 290.804 185.886 291.412 185.384C292.02 184.872 292.836 184.616 293.86 184.616C294.905 184.616 295.737 184.894 296.356 185.448C296.974 185.992 297.284 186.723 297.284 187.64V193H295.956V191.816H295.812C295.214 192.776 294.276 193.256 292.996 193.256ZM293.188 192.152C293.732 192.152 294.212 192.051 294.628 191.848C295.044 191.646 295.369 191.363 295.604 191C295.838 190.638 295.956 190.232 295.956 189.784V189.064L293.716 189.32C292.926 189.416 292.345 189.608 291.972 189.896C291.609 190.174 291.428 190.515 291.428 190.92C291.428 191.304 291.582 191.608 291.892 191.832C292.212 192.046 292.644 192.152 293.188 192.152Z" fill="white"/>
<path d="M284.735 193.32C283.935 193.32 283.215 193.133 282.575 192.76C281.935 192.386 281.434 191.869 281.071 191.208C280.708 190.546 280.527 189.805 280.527 188.984C280.527 188.152 280.703 187.405 281.055 186.744C281.418 186.072 281.919 185.549 282.559 185.176C283.199 184.792 283.924 184.6 284.735 184.6C285.386 184.6 285.994 184.728 286.559 184.984C287.124 185.24 287.594 185.597 287.967 186.056C288.34 186.504 288.575 187.01 288.671 187.576L287.375 187.752C287.236 187.176 286.916 186.706 286.415 186.344C285.924 185.981 285.37 185.8 284.751 185.8C284.207 185.8 283.711 185.933 283.263 186.2C282.826 186.466 282.479 186.84 282.223 187.32C281.978 187.8 281.855 188.344 281.855 188.952C281.855 189.57 281.978 190.12 282.223 190.6C282.479 191.08 282.826 191.453 283.263 191.72C283.7 191.986 284.191 192.12 284.735 192.12C285.364 192.12 285.924 191.944 286.415 191.592C286.906 191.229 287.231 190.765 287.391 190.2L288.703 190.376C288.586 190.941 288.335 191.448 287.951 191.896C287.567 192.344 287.092 192.696 286.527 192.952C285.972 193.197 285.375 193.32 284.735 193.32Z" fill="white"/>
<path d="M275.536 193.32C274.374 193.32 273.472 193.053 272.832 192.52C272.192 191.976 271.872 191.224 271.872 190.264H273.152C273.163 190.85 273.382 191.32 273.808 191.672C274.246 192.024 274.838 192.2 275.584 192.2C276.192 192.2 276.678 192.082 277.04 191.848C277.403 191.602 277.584 191.266 277.584 190.84C277.584 190.509 277.483 190.264 277.28 190.104C277.078 189.933 276.838 189.816 276.56 189.752C276.283 189.688 275.851 189.618 275.264 189.544C274.294 189.426 273.51 189.202 272.912 188.872C272.315 188.53 272.016 187.949 272.016 187.128C272.016 186.349 272.31 185.736 272.896 185.288C273.494 184.829 274.283 184.6 275.264 184.6C276.278 184.6 277.094 184.85 277.712 185.352C278.342 185.842 278.656 186.504 278.656 187.336H277.36C277.35 186.845 277.152 186.456 276.768 186.168C276.384 185.869 275.878 185.72 275.248 185.72C274.662 185.72 274.187 185.842 273.824 186.088C273.462 186.333 273.28 186.664 273.28 187.08C273.28 187.389 273.376 187.629 273.568 187.8C273.771 187.96 274.011 188.072 274.288 188.136C274.576 188.189 275.003 188.248 275.568 188.312C276.198 188.386 276.742 188.504 277.2 188.664C277.67 188.813 278.059 189.064 278.368 189.416C278.678 189.757 278.832 190.226 278.832 190.824C278.832 191.613 278.539 192.226 277.952 192.664C277.376 193.101 276.571 193.32 275.536 193.32Z" fill="white"/>
<path d="M269.753 193H268.425V191.896H268.265C267.987 192.333 267.625 192.675 267.177 192.92C266.739 193.165 266.259 193.288 265.737 193.288C265.065 193.288 264.473 193.139 263.961 192.84C263.449 192.531 263.054 192.109 262.777 191.576C262.51 191.032 262.377 190.419 262.377 189.736V184.92H263.705V189.736C263.705 190.44 263.897 191.011 264.281 191.448C264.675 191.875 265.214 192.088 265.897 192.088C266.345 192.088 266.761 191.981 267.145 191.768C267.539 191.555 267.849 191.261 268.073 190.888C268.307 190.504 268.425 190.083 268.425 189.624V184.92H269.753V193Z" fill="white"/>
<path d="M257.288 185.976H255.992V184.92H257.288V183.288C257.288 182.573 257.485 182.003 257.88 181.576C258.285 181.139 258.808 180.92 259.448 180.92C259.853 180.92 260.264 180.984 260.68 181.112V182.264C260.349 182.168 260.056 182.12 259.8 182.12C259.448 182.12 259.16 182.237 258.936 182.472C258.723 182.707 258.616 183.021 258.616 183.416V184.92H260.664V185.976H258.616V193H257.288V185.976Z" fill="white"/>
<path d="M250.656 193.32C249.995 193.32 249.408 193.187 248.896 192.92C248.395 192.643 247.995 192.254 247.696 191.752H247.552V193H246.224V181.24H247.552V186.12H247.696C247.995 185.63 248.4 185.256 248.912 185C249.435 184.734 250.022 184.6 250.672 184.6C251.451 184.6 252.155 184.787 252.784 185.16C253.424 185.534 253.926 186.051 254.288 186.712C254.651 187.374 254.832 188.12 254.832 188.952C254.832 189.784 254.646 190.531 254.272 191.192C253.91 191.854 253.408 192.376 252.768 192.76C252.139 193.134 251.435 193.32 250.656 193.32ZM250.512 192.12C251.078 192.12 251.59 191.982 252.048 191.704C252.507 191.427 252.864 191.048 253.12 190.568C253.376 190.088 253.504 189.55 253.504 188.952C253.504 188.366 253.376 187.832 253.12 187.352C252.864 186.872 252.507 186.494 252.048 186.216C251.59 185.939 251.078 185.8 250.512 185.8C249.936 185.8 249.419 185.939 248.96 186.216C248.512 186.494 248.155 186.872 247.888 187.352C247.632 187.832 247.504 188.366 247.504 188.952C247.504 189.539 247.632 190.078 247.888 190.568C248.155 191.048 248.518 191.427 248.976 191.704C249.435 191.982 249.947 192.12 250.512 192.12Z" fill="white"/>
<path d="M238.076 193.4C236.903 193.4 235.852 193.144 234.924 192.632C233.996 192.12 233.271 191.406 232.748 190.488C232.236 189.571 231.98 188.526 231.98 187.352C231.98 186.19 232.236 185.155 232.748 184.248C233.271 183.331 233.996 182.616 234.924 182.104C235.852 181.582 236.903 181.32 238.076 181.32C239.249 181.32 240.3 181.582 241.228 182.104C242.156 182.616 242.876 183.331 243.388 184.248C243.911 185.155 244.172 186.19 244.172 187.352C244.172 188.526 243.911 189.571 243.388 190.488C242.876 191.406 242.156 192.12 241.228 192.632C240.3 193.144 239.249 193.4 238.076 193.4ZM238.076 192.12C238.961 192.12 239.756 191.918 240.46 191.512C241.164 191.096 241.713 190.531 242.108 189.816C242.503 189.091 242.7 188.27 242.7 187.352C242.7 186.446 242.503 185.63 242.108 184.904C241.713 184.179 241.164 183.614 240.46 183.208C239.756 182.803 238.961 182.6 238.076 182.6C237.191 182.6 236.391 182.803 235.676 183.208C234.972 183.614 234.423 184.179 234.028 184.904C233.633 185.63 233.436 186.446 233.436 187.352C233.436 188.259 233.633 189.075 234.028 189.8C234.423 190.526 234.972 191.096 235.676 191.512C236.391 191.918 237.191 192.12 238.076 192.12Z" fill="white"/>
<path d="M221.808 193.256C220.934 193.256 220.23 193.048 219.696 192.632C219.174 192.206 218.912 191.646 218.912 190.952C218.912 190.227 219.222 189.619 219.84 189.128C220.459 188.638 221.355 188.328 222.528 188.2L224.768 187.928V187.608C224.768 187.064 224.582 186.632 224.208 186.312C223.835 185.982 223.318 185.816 222.656 185.816C222.038 185.816 221.547 185.96 221.184 186.248C220.822 186.526 220.646 186.915 220.656 187.416H219.312C219.312 186.563 219.616 185.886 220.224 185.384C220.832 184.872 221.648 184.616 222.672 184.616C223.718 184.616 224.55 184.894 225.168 185.448C225.787 185.992 226.096 186.723 226.096 187.64V193H224.768V191.816H224.624C224.027 192.776 223.088 193.256 221.808 193.256ZM222 192.152C222.544 192.152 223.024 192.051 223.44 191.848C223.856 191.646 224.182 191.363 224.416 191C224.651 190.638 224.768 190.232 224.768 189.784V189.064L222.528 189.32C221.739 189.416 221.158 189.608 220.784 189.896C220.422 190.174 220.24 190.515 220.24 190.92C220.24 191.304 220.395 191.608 220.704 191.832C221.024 192.046 221.456 192.152 222 192.152Z" fill="white"/>
<path d="M210.09 184.92H211.45L214.026 191.944H214.17L216.762 184.92H218.122L215.05 193H213.162L210.09 184.92Z" fill="white"/>
<path d="M204.558 193.256C203.684 193.256 202.98 193.048 202.446 192.632C201.924 192.206 201.662 191.646 201.662 190.952C201.662 190.227 201.972 189.619 202.59 189.128C203.209 188.638 204.105 188.328 205.278 188.2L207.518 187.928V187.608C207.518 187.064 207.332 186.632 206.958 186.312C206.585 185.982 206.068 185.816 205.406 185.816C204.788 185.816 204.297 185.96 203.934 186.248C203.572 186.526 203.396 186.915 203.406 187.416H202.062C202.062 186.563 202.366 185.886 202.974 185.384C203.582 184.872 204.398 184.616 205.422 184.616C206.468 184.616 207.3 184.894 207.918 185.448C208.537 185.992 208.846 186.723 208.846 187.64V193H207.518V191.816H207.374C206.777 192.776 205.838 193.256 204.558 193.256ZM204.75 192.152C205.294 192.152 205.774 192.051 206.19 191.848C206.606 191.646 206.932 191.363 207.166 191C207.401 190.638 207.518 190.232 207.518 189.784V189.064L205.278 189.32C204.489 189.416 203.908 189.608 203.534 189.896C203.172 190.174 202.99 190.515 202.99 190.92C202.99 191.304 203.145 191.608 203.454 191.832C203.774 192.046 204.206 192.152 204.75 192.152Z" fill="white"/>
<path d="M196.212 193.32C195.902 193.32 195.556 193.288 195.172 193.224C194.798 193.17 194.457 193.096 194.148 193V191.752C194.436 191.837 194.74 191.906 195.06 191.96C195.39 192.013 195.668 192.04 195.892 192.04C196.564 192.04 197.108 191.821 197.524 191.384C197.95 190.946 198.164 190.36 198.164 189.624V181.72H199.62V189.608C199.62 190.333 199.47 190.978 199.172 191.544C198.884 192.098 198.478 192.536 197.956 192.856C197.444 193.165 196.862 193.32 196.212 193.32Z" fill="white"/>
<path d="M184.443 184.92H185.739V186.008H185.883C186.064 185.645 186.358 185.346 186.763 185.112C187.168 184.877 187.595 184.76 188.043 184.76C188.448 184.76 188.779 184.829 189.035 184.968V186.2C188.662 186.04 188.262 185.96 187.835 185.96C187.227 185.96 186.731 186.21 186.347 186.712C185.963 187.202 185.771 187.848 185.771 188.648V193H184.443V184.92Z" fill="white"/>
<path d="M178.223 193.32C177.391 193.32 176.644 193.128 175.983 192.744C175.321 192.36 174.804 191.832 174.431 191.16C174.057 190.477 173.871 189.709 173.871 188.856C173.871 188.045 174.052 187.32 174.415 186.68C174.788 186.029 175.3 185.522 175.951 185.16C176.601 184.786 177.337 184.6 178.159 184.6C178.969 184.6 179.695 184.786 180.335 185.16C180.985 185.522 181.492 186.029 181.855 186.68C182.217 187.32 182.399 188.05 182.399 188.872C182.399 189.106 182.393 189.282 182.383 189.4H175.231C175.327 190.221 175.647 190.882 176.191 191.384C176.745 191.874 177.433 192.12 178.255 192.12C178.852 192.12 179.396 191.981 179.887 191.704C180.388 191.416 180.767 191.032 181.023 190.552L182.127 191.112C181.796 191.805 181.284 192.349 180.591 192.744C179.908 193.128 179.119 193.32 178.223 193.32ZM181.007 188.232C180.889 187.496 180.564 186.909 180.031 186.472C179.508 186.024 178.863 185.8 178.095 185.8C177.348 185.8 176.713 186.024 176.191 186.472C175.679 186.92 175.364 187.506 175.247 188.232H181.007Z" fill="white"/>
<path d="M167.534 197C166.5 197 165.614 196.76 164.878 196.28C164.153 195.811 163.652 195.155 163.374 194.312L164.702 193.816C164.916 194.446 165.273 194.931 165.774 195.272C166.276 195.624 166.884 195.8 167.598 195.8C168.484 195.8 169.188 195.534 169.71 195C170.244 194.467 170.51 193.752 170.51 192.856V191.768H170.35C169.593 192.728 168.612 193.208 167.406 193.208C166.606 193.208 165.886 193.027 165.246 192.664C164.606 192.302 164.105 191.795 163.742 191.144C163.39 190.494 163.214 189.763 163.214 188.952C163.214 188.131 163.396 187.39 163.758 186.728C164.121 186.067 164.617 185.55 165.246 185.176C165.886 184.803 166.606 184.616 167.406 184.616C168.633 184.616 169.62 185.102 170.366 186.072H170.526V184.92H171.838V192.856C171.838 193.688 171.662 194.414 171.31 195.032C170.958 195.662 170.457 196.147 169.806 196.488C169.156 196.83 168.398 197 167.534 197ZM167.55 192.04C168.126 192.04 168.644 191.907 169.102 191.64C169.561 191.374 169.918 191.006 170.174 190.536C170.43 190.067 170.558 189.539 170.558 188.952C170.558 188.355 170.425 187.816 170.158 187.336C169.902 186.856 169.545 186.483 169.086 186.216C168.628 185.939 168.116 185.8 167.55 185.8C166.974 185.8 166.457 185.939 165.998 186.216C165.54 186.483 165.182 186.856 164.926 187.336C164.67 187.816 164.542 188.355 164.542 188.952C164.542 189.539 164.67 190.067 164.926 190.536C165.182 191.006 165.54 191.374 165.998 191.64C166.457 191.907 166.974 192.04 167.55 192.04Z" fill="white"/>
<path d="M153.943 184.92H155.271V186.024H155.431C155.719 185.576 156.082 185.23 156.519 184.984C156.956 184.739 157.442 184.616 157.975 184.616C158.647 184.616 159.234 184.771 159.735 185.08C160.247 185.379 160.642 185.8 160.919 186.344C161.196 186.878 161.335 187.486 161.335 188.168V193H160.007V188.168C160.007 187.475 159.81 186.91 159.415 186.472C159.02 186.035 158.482 185.816 157.799 185.816C157.351 185.816 156.93 185.923 156.535 186.136C156.151 186.35 155.842 186.648 155.607 187.032C155.383 187.406 155.271 187.822 155.271 188.28V193H153.943V184.92Z" fill="white"/>
<path d="M150.696 183.384C150.419 183.384 150.189 183.293 150.008 183.112C149.827 182.931 149.736 182.701 149.736 182.424C149.736 182.157 149.827 181.939 150.008 181.768C150.189 181.587 150.419 181.496 150.696 181.496C150.973 181.496 151.197 181.581 151.368 181.752C151.549 181.923 151.64 182.147 151.64 182.424C151.64 182.701 151.549 182.931 151.368 183.112C151.197 183.293 150.973 183.384 150.696 183.384ZM150.024 184.92H151.352V193H150.024V184.92Z" fill="white"/>
<path d="M143.599 184.92H144.895V186.008H145.039C145.221 185.645 145.514 185.346 145.919 185.112C146.325 184.877 146.751 184.76 147.199 184.76C147.605 184.76 147.935 184.829 148.191 184.968V186.2C147.818 186.04 147.418 185.96 146.991 185.96C146.383 185.96 145.887 186.21 145.503 186.712C145.119 187.202 144.927 187.848 144.927 188.648V193H143.599V184.92Z" fill="white"/>
<path d="M140.277 193.304C139.605 193.304 139.067 193.085 138.661 192.648C138.256 192.21 138.053 191.634 138.053 190.92V185.976H136.741V184.92H138.053L138.357 182.312H139.397L139.381 184.92H141.461V185.976H139.381V190.872C139.381 191.256 139.493 191.57 139.717 191.816C139.941 192.061 140.245 192.184 140.629 192.184C140.757 192.184 140.912 192.168 141.093 192.136C141.275 192.104 141.44 192.066 141.589 192.024V193.096C141.173 193.234 140.736 193.304 140.277 193.304Z" fill="white"/>
<path d="M130.829 193.4C129.847 193.4 128.994 193.24 128.269 192.92C127.554 192.59 127.005 192.12 126.621 191.512C126.237 190.894 126.045 190.168 126.045 189.336H127.485C127.495 190.211 127.794 190.894 128.381 191.384C128.967 191.875 129.789 192.12 130.845 192.12C131.762 192.12 132.477 191.939 132.989 191.576C133.501 191.203 133.757 190.696 133.757 190.056C133.757 189.576 133.613 189.203 133.325 188.936C133.037 188.659 132.679 188.462 132.253 188.344C131.826 188.216 131.239 188.094 130.493 187.976C129.639 187.838 128.914 187.667 128.317 187.464C127.719 187.262 127.218 186.936 126.813 186.488C126.418 186.04 126.221 185.438 126.221 184.68C126.221 183.656 126.594 182.84 127.341 182.232C128.098 181.624 129.149 181.32 130.493 181.32C131.879 181.32 132.967 181.662 133.757 182.344C134.546 183.016 134.946 183.95 134.957 185.144H133.549C133.549 184.344 133.282 183.72 132.749 183.272C132.215 182.824 131.463 182.6 130.493 182.6C129.597 182.6 128.903 182.782 128.413 183.144C127.922 183.496 127.677 183.982 127.677 184.6C127.677 185.07 127.815 185.438 128.093 185.704C128.37 185.96 128.722 186.152 129.149 186.28C129.575 186.398 130.141 186.51 130.845 186.616C131.741 186.766 132.487 186.936 133.085 187.128C133.682 187.32 134.183 187.646 134.589 188.104C135.005 188.552 135.213 189.171 135.213 189.96C135.213 191.027 134.823 191.87 134.045 192.488C133.277 193.096 132.205 193.4 130.829 193.4Z" fill="white"/>
</svg>
